<?xml version="1.0" standalone="no"?>
<!DOCTYPE svg PUBLIC "-//W3C//DTD SVG 20010904//EN"
 "http://www.w3.org/TR/2001/REC-SVG-20010904/DTD/svg10.dtd">
<svg version="1.0" xmlns="http://www.w3.org/2000/svg"
 width="1449.000000pt" height="1337.000000pt" viewBox="0 0 1449.000000 1337.000000"
 preserveAspectRatio="xMidYMid meet">

<g transform="translate(0.000000,1337.000000) scale(0.100000,-0.100000)"
fill="#000000" stroke="none">
<path d="M14032 13340 c-10 -17 -10 -21 3 -27 21 -7 39 11 32 31 -8 22 -20 20
-35 -4z"/>
<path d="M13979 13273 c-5 -14 -7 -29 -3 -34 6 -10 -14 -77 -28 -93 -4 -6 -8
-18 -8 -28 0 -10 -4 -18 -10 -18 -5 0 -10 -8 -10 -19 0 -10 -7 -24 -16 -32 -9
-7 -13 -21 -10 -33 3 -13 -3 -29 -16 -43 -12 -13 -19 -26 -15 -29 3 -4 2 -14
-2 -23 -5 -9 -11 -36 -15 -60 -3 -25 -10 -47 -16 -51 -16 -10 -39 -87 -29 -97
6 -6 0 -27 -16 -57 -16 -29 -25 -63 -25 -90 0 -27 -6 -48 -15 -56 -8 -7 -15
-23 -15 -35 0 -12 -7 -28 -15 -35 -9 -7 -13 -21 -9 -35 4 -15 0 -24 -11 -29
-10 -4 -14 -13 -11 -24 4 -13 -4 -29 -24 -50 -16 -18 -25 -34 -19 -37 14 -9 7
-36 -14 -58 -10 -10 -16 -25 -13 -33 3 -8 -1 -14 -9 -14 -10 0 -15 -11 -15
-35 0 -21 -6 -38 -13 -41 -8 -3 -14 -10 -15 -17 -7 -56 -16 -77 -31 -75 -11 2
-17 -6 -19 -24 -2 -16 -7 -28 -10 -28 -4 0 -14 -20 -21 -45 -7 -25 -17 -45
-21 -45 -7 0 -20 -29 -24 -53 0 -4 -6 -11 -12 -15 -13 -9 -18 -96 -5 -87 5 3
12 1 16 -5 4 -6 -5 -10 -19 -10 -17 0 -26 -6 -26 -16 0 -9 5 -12 12 -8 7 4 8
3 4 -4 -4 -7 -15 -12 -25 -12 -10 0 -21 -9 -24 -20 -3 -11 -13 -20 -22 -20
-12 0 -15 -5 -11 -16 4 -11 -1 -18 -14 -21 -11 -3 -20 -14 -20 -24 0 -10 -4
-20 -8 -23 -5 -3 -9 -20 -10 -37 0 -18 -5 -35 -10 -38 -5 -3 -19 -23 -30 -44
-11 -21 -23 -38 -26 -38 -18 2 -19 -1 -3 -10 18 -11 18 -12 -2 -30 -11 -10
-25 -19 -32 -19 -6 0 -9 -8 -7 -18 3 -12 -2 -24 -14 -31 -11 -7 -24 -25 -30
-42 -5 -16 -16 -29 -24 -29 -8 0 -14 -4 -14 -9 0 -6 -12 -30 -27 -55 -21 -34
-33 -45 -47 -42 -12 3 -20 -2 -23 -14 -3 -10 -11 -21 -19 -24 -8 -3 -14 -14
-14 -25 0 -22 -34 -46 -50 -36 -6 4 -7 -1 -3 -11 4 -11 -1 -22 -12 -30 -15
-11 -16 -16 -5 -29 10 -12 9 -16 -3 -21 -9 -3 -18 -12 -21 -20 -3 -8 -2 -13 3
-10 13 9 24 -45 12 -57 -6 -6 -11 -18 -11 -26 0 -9 -7 -25 -15 -35 -12 -15
-17 -17 -29 -7 -8 7 -20 10 -25 7 -5 -4 -12 -2 -16 3 -3 6 -15 7 -28 2 -12 -5
-30 -7 -39 -6 -10 2 -18 -3 -18 -11 0 -8 -9 -18 -21 -22 -11 -5 -21 -12 -22
-17 -1 -16 -24 -35 -32 -27 -5 4 -5 -3 -2 -15 4 -17 1 -23 -10 -23 -14 0 -14
-2 0 -18 21 -23 24 -90 4 -74 -10 8 -16 4 -26 -19 -14 -32 -32 -40 -24 -10 3
10 0 22 -5 25 -19 11 -24 -14 -8 -44 16 -32 13 -41 -34 -115 -39 -61 -51 -86
-45 -95 4 -6 -1 -13 -9 -16 -9 -3 -16 -15 -16 -25 0 -11 -11 -24 -25 -31 -14
-6 -25 -19 -25 -29 0 -10 -5 -21 -10 -24 -6 -4 -8 -11 -5 -16 4 -5 1 -9 -4 -9
-6 0 -11 -4 -11 -9 0 -18 -49 -63 -60 -56 -6 3 -10 3 -9 -2 4 -20 -2 -33 -15
-33 -8 0 -18 -16 -23 -37 -7 -28 -14 -37 -26 -35 -10 2 -17 -4 -17 -13 0 -8
-5 -15 -10 -15 -6 0 -14 -10 -19 -22 -5 -13 -21 -38 -35 -57 -14 -19 -26 -38
-26 -43 0 -4 -16 -23 -35 -42 -23 -23 -35 -45 -36 -63 0 -28 0 -28 -10 -4 -11
29 -19 24 -23 -15 -2 -19 -9 -28 -18 -26 -8 1 -23 -7 -33 -18 -10 -11 -13 -20
-7 -20 20 0 13 -20 -10 -30 -30 -12 -62 -41 -71 -62 -3 -10 -13 -18 -22 -18
-8 0 -15 -6 -15 -14 0 -18 -56 -66 -78 -67 -11 0 -12 -2 -4 -6 6 -2 12 -12 12
-20 0 -9 -6 -13 -15 -9 -8 3 -15 1 -15 -4 0 -6 -6 -10 -13 -10 -8 0 -20 -11
-27 -25 -8 -14 -20 -23 -27 -21 -8 3 -13 -2 -13 -12 0 -26 -35 -51 -62 -45
-16 3 -19 2 -10 -5 10 -7 6 -15 -18 -36 -17 -14 -36 -26 -41 -26 -5 0 -9 -9
-9 -19 0 -33 -11 -51 -32 -51 -11 0 -22 -8 -25 -17 -6 -22 -95 -93 -116 -93
-9 0 -18 -13 -22 -30 -4 -16 -11 -30 -16 -30 -12 0 -59 -49 -59 -61 0 -5 -7
-9 -16 -9 -10 0 -14 -5 -10 -15 4 -13 2 -13 -14 -5 -15 8 -20 6 -24 -8 -3 -9
-39 -32 -78 -51 -98 -46 -128 -68 -128 -95 0 -16 -9 -25 -33 -34 -18 -7 -41
-12 -50 -12 -10 0 -17 -8 -17 -18 0 -11 -14 -27 -35 -38 -19 -10 -38 -27 -41
-36 -3 -10 -12 -18 -19 -18 -8 0 -19 -9 -25 -20 -6 -11 -17 -20 -25 -20 -8 0
-18 -6 -22 -13 -4 -7 -19 -21 -33 -30 -13 -9 -21 -17 -17 -17 5 0 2 -7 -7 -15
-8 -8 -22 -15 -31 -15 -9 0 -14 -4 -11 -9 4 -5 -3 -7 -14 -4 -26 7 -26 -12 1
-31 19 -13 25 -13 50 0 39 20 52 18 46 -7 -4 -15 3 -31 24 -53 33 -35 35 -42
14 -50 -8 -3 -15 -15 -15 -26 0 -25 -8 -25 -27 -2 -13 16 -14 15 -8 -5 8 -27
-28 -51 -50 -33 -10 8 -16 7 -23 -7 -14 -23 -27 -10 -14 14 12 23 5 43 -16 43
-40 1 -44 15 -18 66 26 51 22 63 -14 44 -12 -6 -34 -8 -51 -5 -23 5 -28 4 -23
-8 3 -10 -2 -18 -16 -22 -16 -5 -19 -10 -10 -20 9 -11 6 -16 -14 -21 -21 -5
-26 -12 -25 -38 1 -29 1 -30 8 -6 6 22 8 23 14 7 4 -10 11 -16 17 -12 8 5 43
-7 58 -20 9 -8 -20 -44 -32 -39 -7 3 -16 -3 -20 -13 -6 -14 -9 -15 -16 -3 -7
11 -11 11 -24 1 -18 -15 -17 -17 -20 74 -1 28 -5 56 -10 63 -5 8 -4 18 3 25
20 20 12 27 -33 27 -32 0 -49 -5 -58 -18 -7 -11 -23 -24 -34 -30 -12 -6 -25
-23 -28 -37 -4 -14 -11 -25 -16 -25 -5 0 -7 -6 -5 -12 7 -20 -17 -44 -57 -57
-27 -9 -38 -18 -38 -32 0 -11 -6 -19 -12 -17 -21 4 -78 -31 -78 -47 0 -8 -4
-15 -9 -15 -14 0 -71 -60 -71 -75 0 -9 -9 -15 -23 -15 -36 0 -87 -29 -81 -45
3 -8 -4 -20 -15 -27 -12 -7 -21 -16 -21 -20 0 -11 -42 -52 -55 -54 -5 0 -16
-2 -22 -2 -7 -1 -13 -11 -13 -22 0 -13 -7 -20 -20 -20 -13 0 -25 -10 -33 -28
-7 -17 -20 -27 -32 -27 -11 0 -24 -10 -30 -22 -12 -27 -22 -29 -28 -5 -3 12
-5 9 -6 -8 -2 -25 -22 -60 -35 -60 -4 0 -24 -18 -45 -40 -21 -22 -36 -40 -33
-40 3 0 -7 -9 -22 -21 -14 -11 -23 -25 -20 -30 3 -6 -3 -13 -13 -15 -15 -4
-19 -12 -15 -30 2 -13 8 -24 12 -24 19 0 40 13 40 25 0 8 9 16 20 20 11 3 27
16 37 29 10 12 25 25 33 29 39 20 59 34 54 40 -3 3 3 3 14 1 13 -4 21 0 24 14
4 15 12 19 34 15 21 -3 25 -2 15 5 -18 13 -7 28 34 48 19 9 35 23 35 31 0 9 6
13 14 10 17 -7 27 15 16 33 -10 16 15 39 43 40 10 0 20 7 23 15 4 8 13 15 20
15 8 0 18 8 21 18 9 23 25 33 45 26 15 -4 17 -1 12 24 -7 34 6 45 68 56 29 5
39 3 48 -11 10 -16 10 -16 5 4 -5 20 -3 21 39 16 29 -3 47 0 52 8 4 7 3 14 -4
17 -15 5 -3 32 14 32 8 0 14 -10 14 -26 0 -16 5 -24 13 -21 6 2 11 12 9 21 -2
10 1 23 6 29 6 7 13 29 17 50 4 21 17 44 28 52 26 18 38 19 34 3 -1 -7 7 -13
18 -14 36 -2 40 -5 18 -14 -13 -5 -23 -17 -23 -25 0 -10 5 -14 13 -10 6 4 1
-3 -13 -14 l-25 -21 28 0 c15 0 27 -4 27 -10 0 -5 11 -10 24 -10 l24 0 -26
-55 c-15 -30 -32 -55 -39 -55 -6 0 -15 -9 -18 -20 -3 -11 -15 -20 -25 -20 -10
0 -25 -11 -34 -25 -10 -16 -26 -25 -42 -25 -19 0 -25 -5 -22 -17 3 -16 -75
-103 -92 -103 -4 0 -20 -11 -35 -24 -16 -14 -32 -23 -37 -20 -4 3 -8 0 -8 -5
0 -6 -9 -11 -21 -11 -15 0 -19 -4 -15 -16 4 -11 -1 -18 -14 -21 -12 -3 -19
-12 -18 -22 2 -9 -4 -17 -12 -17 -45 -5 -65 -19 -62 -45 1 -4 -10 -10 -24 -13
-20 -5 -23 -10 -14 -21 8 -10 8 -15 -1 -21 -7 -4 -15 -2 -17 4 -7 21 -25 13
-19 -9 4 -14 2 -19 -8 -15 -7 2 -16 -2 -19 -11 -4 -8 -13 -13 -20 -10 -8 3
-19 0 -25 -7 -6 -7 -23 -11 -39 -9 -25 4 -26 3 -9 -10 16 -14 16 -15 -5 -22
-13 -4 -28 -8 -33 -9 -6 0 -24 -12 -40 -24 -29 -23 -29 -24 -11 -38 19 -13 18
-14 -10 -16 -45 -2 -47 -3 -76 -22 -16 -10 -28 -25 -28 -33 0 -13 -3 -13 -15
-3 -12 10 -16 9 -21 -4 -3 -9 -12 -16 -20 -16 -7 0 -18 -9 -24 -20 -6 -11 -20
-20 -31 -20 -21 0 -81 -55 -71 -65 4 -3 -1 -3 -11 1 -10 3 -17 1 -17 -6 0 -6
-4 -9 -9 -6 -5 3 -11 -3 -14 -14 -6 -22 -27 -28 -27 -8 0 7 -13 -2 -29 -20
-17 -17 -36 -32 -44 -32 -20 0 -36 -21 -43 -59 -5 -25 -10 -30 -26 -25 -10 3
-25 0 -33 -6 -8 -6 -19 -9 -25 -5 -5 3 -10 -1 -10 -9 0 -15 -17 -21 -48 -17
-7 1 -15 -6 -19 -16 -9 -23 -34 -42 -49 -36 -7 2 -15 0 -19 -6 -14 -24 -43
-11 -55 25 -14 42 1 84 30 84 13 0 16 6 12 25 -5 30 -35 34 -54 6 -7 -10 -28
-22 -46 -26 -22 -4 -32 -12 -30 -23 2 -9 -9 -22 -26 -31 -16 -9 -37 -24 -47
-33 -10 -10 -25 -15 -34 -12 -8 4 -15 1 -15 -6 0 -7 -7 -10 -16 -6 -9 4 -23 1
-30 -5 -8 -6 -14 -8 -14 -4 0 5 -8 1 -17 -7 -10 -9 -27 -18 -37 -19 -10 -2
-22 -11 -26 -19 -4 -8 -13 -27 -21 -42 -7 -16 -18 -28 -26 -28 -7 0 -13 -5
-13 -11 0 -5 -4 -7 -10 -4 -9 6 -14 -7 -11 -27 0 -4 -8 -12 -19 -18 -13 -7
-20 -21 -20 -42 0 -17 -3 -29 -6 -25 -11 11 -34 -21 -35 -50 -2 -23 -2 -24 -6
-5 -5 26 -16 28 -37 7 -8 -8 -19 -15 -25 -15 -6 0 -11 -4 -11 -10 0 -5 -8 -10
-18 -10 -10 0 -25 -11 -32 -25 -7 -14 -17 -25 -22 -25 -5 0 -6 -4 -3 -10 3 -5
1 -19 -5 -30 -9 -16 -15 -19 -25 -10 -9 8 -15 8 -20 0 -4 -6 -15 -8 -26 -5
-13 4 -19 2 -19 -9 0 -9 -7 -16 -15 -16 -8 0 -15 -7 -15 -16 0 -8 -4 -13 -9
-9 -5 3 -12 1 -16 -5 -4 -6 -12 -7 -18 -3 -7 4 -6 0 2 -10 11 -15 11 -17 -2
-17 -8 0 -17 -10 -20 -21 -5 -20 -7 -21 -23 -5 -14 14 -19 15 -25 4 -5 -7 -9
-21 -9 -30 0 -13 -8 -18 -26 -18 -19 0 -25 -4 -20 -15 3 -9 0 -15 -10 -15 -11
0 -14 -5 -10 -16 4 -11 2 -15 -7 -11 -8 3 -29 -8 -48 -24 -18 -15 -46 -31 -61
-34 -18 -4 -28 -13 -28 -25 0 -12 -10 -21 -31 -25 -17 -4 -33 -13 -36 -21 -3
-8 -11 -14 -19 -14 -8 0 -13 -3 -12 -7 4 -10 -39 -53 -51 -53 -5 0 -19 -13
-32 -30 -15 -19 -30 -28 -41 -24 -16 5 -58 -30 -58 -48 0 -4 -9 -8 -19 -8 -11
0 -23 -5 -26 -10 -4 -6 -12 -10 -18 -8 -18 3 -57 -12 -57 -22 0 -5 -10 -10
-22 -12 -16 -2 -22 -9 -20 -20 2 -14 -4 -18 -30 -18 -32 -1 -32 -1 -13 -16 14
-11 15 -15 5 -13 -26 3 -80 -22 -80 -38 0 -10 -6 -14 -20 -10 -12 3 -20 0 -20
-8 0 -7 -7 -15 -15 -19 -8 -3 -15 0 -15 7 0 6 -7 1 -16 -11 -8 -12 -22 -22
-30 -22 -8 0 -14 -4 -14 -8 0 -4 -15 -14 -32 -22 -18 -7 -37 -16 -42 -18 -5
-3 -6 0 -2 6 3 6 2 13 -4 17 -5 3 -10 -3 -10 -14 0 -11 -9 -22 -20 -26 -11 -3
-20 -11 -20 -16 0 -5 -7 -9 -15 -9 -18 0 -20 -17 -3 -22 16 -6 -27 -48 -47
-48 -9 0 -18 -7 -22 -16 -3 -8 -12 -13 -21 -9 -8 3 -21 -3 -29 -15 -8 -11 -20
-20 -28 -20 -8 0 -18 -6 -22 -14 -4 -8 -19 -16 -33 -18 -14 -2 -24 -9 -22 -16
2 -9 -4 -11 -16 -8 -11 4 -24 0 -32 -9 -7 -8 -17 -15 -22 -15 -5 0 -20 -12
-33 -26 -19 -21 -30 -25 -51 -20 -20 5 -27 3 -31 -14 -7 -28 -31 -25 -39 5 -3
14 -13 25 -21 25 -12 0 -12 -2 1 -16 22 -21 20 -37 -2 -30 -13 4 -31 -5 -56
-29 -21 -19 -48 -35 -61 -35 -13 0 -30 -3 -38 -6 -8 -3 -21 1 -28 9 -26 26
-138 50 -123 26 2 -4 -4 -10 -13 -13 -12 -5 -14 -9 -5 -18 16 -16 15 -28 -1
-28 -8 0 -22 -9 -32 -20 -10 -12 -25 -18 -32 -16 -8 3 -13 -2 -13 -15 0 -15
-5 -19 -16 -15 -9 3 -29 -3 -46 -15 -23 -17 -38 -20 -68 -15 -27 4 -41 2 -50
-9 -7 -8 -21 -15 -32 -15 -10 0 -17 -4 -13 -9 8 -14 -15 -25 -27 -13 -8 8 -18
5 -36 -8 -52 -42 -122 -12 -122 52 0 16 -6 31 -15 34 -17 7 -20 34 -4 34 8 0
8 4 1 13 -10 11 -9 68 2 217 1 19 0 39 -3 45 -7 13 -1 83 10 111 5 15 4 26 -2
30 -6 3 -6 10 -1 17 12 16 3 137 -10 137 -6 0 -5 6 2 15 7 9 10 25 6 41 -4 15
-2 32 5 40 6 8 9 25 7 39 -3 13 -1 26 3 27 8 3 -6 216 -16 245 -2 6 3 14 12
17 13 5 15 16 10 56 -4 32 -2 50 5 52 7 3 8 10 3 18 -11 18 -7 113 7 173 8 33
9 50 1 58 -10 10 -5 42 23 144 8 28 14 64 13 80 -1 80 3 125 11 130 6 4 10 31
10 61 0 44 5 62 25 88 28 36 32 50 13 43 -7 -2 -31 4 -52 14 -22 9 -45 15 -53
12 -8 -3 -23 3 -34 13 -19 17 -21 17 -30 2 -5 -9 -15 -23 -22 -30 -7 -7 -22
-28 -32 -45 -11 -18 -25 -33 -33 -33 -7 0 -10 -5 -6 -12 5 -8 0 -9 -17 -5 -13
4 -27 7 -30 7 -4 0 -10 11 -13 25 -4 14 -11 25 -16 25 -6 0 -10 7 -10 15 0 13
-28 35 -45 35 -4 0 -4 -21 -1 -47 6 -55 6 -59 3 -96 -1 -21 -11 -31 -42 -46
-106 -50 -132 -61 -142 -61 -6 0 -16 -13 -22 -30 -5 -16 -16 -30 -24 -30 -8 0
-18 -7 -21 -16 -3 -8 -10 -12 -16 -9 -6 3 -13 -1 -16 -9 -7 -19 -40 -21 -47
-3 -4 7 -6 6 -6 -5 -1 -9 5 -18 12 -21 6 -2 -10 -11 -38 -19 -39 -12 -49 -20
-48 -34 1 -11 0 -13 -3 -6 -10 21 -23 13 -26 -15 -2 -19 -8 -28 -20 -27 -10 1
-17 -1 -16 -5 2 -21 -7 -33 -47 -62 -25 -18 -45 -38 -45 -44 0 -6 -22 -22 -50
-34 -30 -14 -80 -53 -129 -102 -44 -43 -84 -79 -89 -79 -4 0 -19 -11 -32 -25
-13 -14 -30 -23 -37 -21 -7 3 -13 1 -13 -3 0 -5 6 -11 12 -14 9 -3 7 -9 -7
-20 -11 -9 -21 -12 -23 -7 -4 11 -42 -26 -42 -40 0 -6 -11 -8 -25 -4 -21 5
-25 3 -25 -15 0 -14 -12 -27 -38 -40 -43 -22 -102 -78 -102 -96 0 -7 -22 -18
-49 -25 -30 -7 -48 -16 -46 -23 3 -7 -23 -28 -56 -47 -73 -42 -84 -47 -74 -30
5 8 3 11 -6 8 -8 -3 -15 -15 -17 -27 -2 -13 -9 -21 -16 -18 -7 3 -21 -6 -31
-19 -10 -14 -24 -23 -32 -20 -7 3 -13 1 -13 -4 0 -6 -9 -10 -20 -10 -11 0 -20
-4 -20 -9 0 -5 -15 -19 -33 -30 -18 -11 -39 -32 -47 -46 -8 -14 -21 -25 -29
-24 -28 2 -59 -12 -64 -30 -2 -10 -21 -25 -41 -35 -20 -9 -36 -21 -36 -26 0
-6 -9 -10 -19 -10 -11 0 -23 -5 -26 -10 -4 -6 -10 -8 -15 -5 -4 3 -6 -4 -3
-15 3 -11 0 -20 -6 -20 -6 0 -11 5 -11 10 0 6 -4 10 -10 10 -5 0 -7 -7 -4 -14
4 -10 -6 -20 -30 -30 -20 -8 -39 -22 -42 -31 -3 -8 -15 -15 -26 -15 -10 0 -16
-4 -13 -10 4 -6 -5 -7 -23 -4 -18 4 -34 1 -43 -8 -8 -7 -24 -18 -34 -24 -12
-7 -19 -20 -17 -30 2 -11 0 -16 -4 -11 -4 4 -18 0 -32 -9 -20 -13 -26 -14 -34
-3 -7 11 -8 9 -6 -5 2 -10 -3 -21 -9 -23 -7 -3 -13 0 -13 6 0 6 -5 11 -11 11
-6 0 -9 -9 -6 -20 4 -15 1 -21 -11 -19 -31 3 -43 -1 -37 -11 3 -5 0 -10 -8
-10 -8 0 -20 -7 -27 -15 -7 -9 -21 -13 -31 -10 -14 5 -19 1 -19 -13 0 -15 -5
-19 -19 -15 -10 3 -22 0 -25 -5 -3 -6 -15 -8 -26 -5 -15 4 -20 0 -20 -15 0
-16 -7 -21 -33 -24 -23 -2 -32 -8 -31 -21 1 -9 -2 -17 -7 -17 -5 0 -9 5 -9 10
0 6 -11 10 -24 10 -17 0 -23 -5 -22 -18 1 -12 -7 -18 -26 -20 -19 -2 -28 -10
-30 -25 -2 -17 -9 -21 -29 -19 -20 2 -32 -4 -48 -26 -12 -17 -21 -35 -21 -41
0 -6 -7 -8 -15 -5 -10 4 -15 0 -15 -11 0 -10 -4 -13 -12 -8 -14 8 -78 13 -78
6 0 -3 7 -11 15 -19 8 -9 14 -23 14 -32 -1 -15 -2 -15 -6 1 -5 19 -23 24 -23
6 0 -6 -7 -9 -15 -6 -8 4 -17 1 -21 -5 -5 -7 2 -9 19 -6 25 5 44 -13 32 -32
-10 -15 -46 -19 -52 -4 -3 8 -13 14 -22 14 -15 -1 -15 -2 0 -13 15 -11 15 -16
3 -37 -7 -14 -13 -32 -14 -42 0 -9 -5 -18 -12 -20 -7 -3 -8 -10 -4 -17 8 -13
67 -8 91 7 5 4 13 7 17 7 3 0 10 4 15 9 5 5 2 6 -6 1 -9 -5 -12 -4 -7 3 4 7
16 12 26 12 10 0 22 5 25 10 11 18 35 11 35 -11 0 -17 -4 -20 -24 -15 -23 6
-25 3 -28 -31 -2 -21 -8 -38 -15 -38 -7 0 -18 -6 -25 -12 -6 -7 -17 -13 -24
-13 -6 0 -19 -12 -29 -26 -14 -21 -19 -23 -32 -13 -12 11 -17 10 -24 -4 -6 -9
-17 -17 -24 -17 -8 0 -15 -5 -15 -11 0 -6 -9 -9 -19 -6 -11 3 -28 -3 -38 -13
-35 -32 -60 -41 -72 -26 -9 11 -7 15 10 19 12 3 19 11 17 18 -2 7 8 26 24 41
16 15 24 28 17 28 -6 0 -9 9 -6 20 3 11 1 18 -3 15 -5 -3 -15 1 -22 8 -12 12
-19 10 -48 -14 -19 -16 -42 -29 -52 -29 -10 0 -21 -7 -24 -15 -4 -8 -10 -15
-16 -15 -5 0 -7 4 -4 9 3 5 -1 11 -9 15 -8 3 -15 1 -15 -4 0 -6 -10 -10 -22
-10 -19 0 -20 -2 -8 -10 13 -9 13 -10 0 -11 -8 0 -27 -2 -42 -3 -19 -1 -28 4
-32 18 -7 28 3 39 21 24 14 -11 15 -10 10 7 -8 24 1 39 28 49 19 7 19 8 2 17
-13 8 -23 7 -34 -3 -13 -10 -17 -10 -20 0 -3 8 -11 5 -24 -10 -16 -20 -20 -21
-29 -8 -7 12 -10 8 -10 -17 0 -22 -5 -33 -14 -33 -16 0 -30 -27 -27 -55 1 -12
-1 -16 -6 -10 -11 15 -44 11 -84 -9 -21 -10 -35 -13 -37 -6 -5 14 -22 13 -22
-2 0 -7 -15 -20 -33 -28 -17 -8 -33 -21 -33 -27 -3 -24 -4 -25 -19 -13 -13 10
-15 9 -15 -9 0 -12 -6 -21 -15 -21 -8 0 -15 -7 -15 -15 0 -9 -9 -15 -23 -15
-14 0 -26 -9 -32 -23 -6 -13 -21 -23 -36 -25 -15 -2 -37 -14 -50 -28 -12 -13
-28 -24 -34 -24 -7 0 -20 -9 -30 -20 -20 -22 -35 -26 -35 -10 0 6 8 10 17 10
13 0 14 3 6 11 -16 16 -44 4 -37 -16 5 -11 -1 -15 -20 -15 -14 0 -26 -5 -26
-11 0 -6 6 -9 14 -6 8 3 20 -1 27 -9 10 -12 9 -13 -4 -9 -8 4 -18 2 -22 -4 -3
-6 2 -11 13 -11 22 0 36 -37 25 -67 -9 -23 -33 -42 -54 -43 -10 0 -20 -11 -23
-25 -4 -14 -12 -25 -19 -24 -22 2 -57 -13 -57 -26 0 -14 -28 -29 -48 -26 -7 1
-12 -2 -11 -6 3 -20 -2 -33 -13 -33 -7 0 -25 -6 -40 -14 -14 -8 -49 -17 -76
-21 -66 -9 -92 5 -92 48 0 49 -30 68 -132 83 -86 13 -116 11 -130 -10 -4 -5
-29 -9 -57 -9 -40 2 -49 -1 -44 -13 3 -8 1 -14 -3 -14 -15 1 -44 26 -44 39 0
14 -15 14 -40 1 -13 -7 -21 -7 -25 0 -3 5 3 10 14 10 12 0 21 5 21 10 0 6 -11
10 -24 10 -21 0 -24 -4 -21 -27 2 -16 -1 -36 -6 -45 -6 -12 -6 -18 1 -18 5 0
10 7 10 15 0 8 5 15 11 15 6 0 9 -7 5 -15 -3 -8 -1 -15 4 -15 5 0 6 -7 3 -17
-4 -11 -3 -14 5 -9 7 4 12 2 12 -3 0 -6 -4 -11 -10 -11 -5 0 -10 -9 -10 -19 0
-25 -24 -33 -79 -25 -44 7 -76 27 -76 47 0 6 -12 11 -27 11 -32 2 -66 30 -70
60 -2 15 -11 22 -33 24 -16 2 -40 13 -52 24 -24 22 -43 17 -43 -13 0 -10 -4
-19 -10 -19 -5 0 -10 -7 -10 -15 0 -8 5 -15 11 -15 5 0 7 -5 4 -10 -9 -14 52
-70 77 -70 11 0 16 -5 13 -11 -4 -5 7 -15 24 -22 17 -6 31 -14 31 -18 0 -13
72 -114 83 -118 7 -2 20 -11 30 -20 11 -9 24 -16 30 -16 25 -2 107 -46 107
-58 0 -7 10 -17 23 -22 24 -11 36 -60 18 -78 -5 -5 -7 -23 -4 -38 6 -30 6 -30
-52 -33 -20 -1 -25 -6 -25 -27 0 -5 4 -7 10 -4 10 6 15 -8 11 -30 -1 -5 6 -2
16 8 16 15 16 19 3 27 -8 5 -10 10 -5 10 6 0 16 -5 23 -12 9 -9 16 -7 33 8 22
19 74 23 146 9 26 -5 33 -11 33 -30 0 -20 4 -23 27 -21 15 2 29 8 31 15 5 14
39 15 47 1 4 -6 11 -8 16 -4 5 3 24 -8 41 -25 18 -17 26 -31 20 -31 -17 0 -15
-36 3 -54 8 -8 15 -19 15 -25 0 -22 90 -28 117 -8 8 6 31 -6 68 -36 30 -25 64
-49 75 -52 11 -4 20 -10 20 -15 0 -4 11 -11 25 -14 14 -4 25 -11 25 -17 0 -21
59 -63 90 -64 8 0 14 -8 14 -17 -1 -10 5 -18 13 -18 8 0 19 -14 24 -30 6 -17
15 -30 21 -30 5 0 23 -9 40 -21 16 -12 32 -19 35 -15 3 3 11 -1 17 -10 6 -8
18 -17 26 -18 37 -8 80 -29 80 -39 0 -18 59 -82 72 -79 6 2 15 -3 19 -10 5 -7
14 -13 21 -14 30 -2 34 -5 36 -24 1 -11 3 -28 4 -38 2 -12 10 -18 23 -17 22 2
44 -21 45 -47 0 -23 -14 -23 -35 -1 -14 13 -21 14 -36 5 -11 -7 -20 -8 -24 -2
-3 6 -17 10 -30 10 -12 0 -26 8 -29 17 -6 14 -9 15 -15 4 -9 -14 -62 -8 -60 7
4 21 -3 23 -21 7 -13 -11 -20 -14 -20 -6 0 21 -27 41 -55 41 -23 0 -26 3 -22
21 4 17 3 19 -6 10 -14 -14 -38 -14 -34 0 1 6 -4 14 -12 17 -8 3 -11 0 -7 -7
4 -6 1 -11 -8 -11 -9 0 -13 6 -10 14 3 8 0 17 -6 21 -8 5 -11 -3 -8 -26 2 -26
-2 -35 -20 -45 -17 -8 -20 -13 -10 -17 7 -3 -1 -6 -19 -6 -18 -1 -48 8 -67 18
-19 11 -37 17 -40 14 -3 -3 -13 -3 -22 1 -13 5 -15 9 -6 18 17 17 15 33 -3 18
-10 -9 -15 -9 -15 -1 0 6 -7 11 -15 11 -7 0 -18 7 -23 16 -5 8 -28 20 -53 25
-52 11 -89 28 -106 49 -11 13 -12 13 -13 0 0 -12 -2 -12 -9 -2 -4 8 -14 12
-22 11 -18 -3 -65 17 -74 31 -4 6 -15 8 -25 5 -12 -4 -25 1 -36 14 -16 18 -50
19 -39 1 3 -5 1 -11 -5 -15 -17 -10 -11 -28 7 -21 15 6 14 4 -2 -14 -14 -16
-16 -23 -7 -32 9 -9 15 -7 26 7 13 18 14 18 20 -3 4 -12 4 -26 1 -32 -8 -13 8
-13 21 0 7 7 20 6 40 -5 16 -8 34 -15 39 -15 6 0 15 -8 22 -19 16 -25 91 -68
136 -76 20 -4 37 -11 37 -15 0 -5 23 -11 50 -15 32 -4 50 -12 50 -20 0 -9 8
-12 24 -9 14 2 26 -1 29 -9 3 -8 18 -13 36 -12 29 2 37 -8 32 -38 -1 -4 8 -3
19 3 17 9 28 7 56 -9 19 -12 42 -21 50 -21 8 0 12 -4 9 -10 -4 -6 9 -10 33
-10 41 0 89 -31 84 -55 -1 -8 6 -11 21 -8 14 3 29 -2 36 -11 8 -9 21 -16 30
-16 9 0 22 -5 29 -12 7 -7 12 -9 12 -5 0 8 14 -2 51 -35 10 -10 19 -13 19 -8
0 16 18 12 40 -10 11 -11 30 -20 42 -20 12 0 32 -10 45 -22 18 -17 26 -19 32
-10 5 9 13 7 28 -8 12 -10 33 -22 47 -26 14 -3 26 -11 26 -18 0 -7 3 -7 8 2 6
9 16 5 39 -17 19 -18 46 -31 74 -36 24 -4 58 -16 75 -26 17 -10 37 -19 44 -19
7 0 21 -11 32 -25 11 -14 28 -25 38 -25 10 0 25 -8 32 -17 7 -10 20 -19 28
-21 8 -2 26 -11 40 -20 14 -9 28 -15 33 -14 4 1 7 -9 7 -22 0 -28 35 -42 48
-19 8 13 13 12 43 -4 43 -23 129 -106 129 -124 1 -9 4 -8 11 4 8 14 14 16 25
6 8 -6 14 -18 14 -25 0 -8 9 -14 21 -14 11 0 18 -4 15 -9 -3 -4 5 -13 17 -18
12 -6 31 -29 42 -52 11 -22 27 -43 36 -46 9 -3 21 -16 28 -28 7 -13 33 -34 57
-48 28 -14 51 -37 61 -56 8 -18 21 -33 29 -33 16 0 74 -55 74 -70 0 -5 6 -10
14 -10 8 0 17 -11 20 -25 4 -16 13 -25 25 -25 25 0 54 -29 47 -46 -3 -8 -2
-13 2 -12 16 5 72 -12 72 -22 0 -5 -5 -10 -11 -10 -8 0 -8 -5 1 -15 7 -8 27
-15 45 -15 24 0 34 -5 38 -20 3 -11 12 -20 21 -20 9 0 34 -18 56 -40 22 -22
44 -40 50 -40 5 0 10 -9 10 -20 0 -13 7 -20 20 -20 23 0 60 -29 60 -47 0 -7 9
-22 20 -33 12 -12 18 -25 15 -29 -2 -5 1 -9 8 -8 37 1 47 -4 47 -25 0 -21 43
-68 62 -68 4 0 8 -6 8 -14 0 -7 12 -26 27 -42 67 -71 123 -142 123 -158 0 -9
7 -16 15 -16 8 0 20 -9 27 -20 7 -11 21 -20 31 -20 13 0 17 -5 13 -16 -5 -12
-1 -14 17 -9 16 4 18 4 8 -3 -11 -8 -1 -22 43 -66 33 -34 63 -56 74 -54 12 2
16 -3 14 -18 -2 -15 4 -24 20 -29 13 -4 26 -7 30 -6 4 0 15 -14 24 -31 19 -36
57 -70 88 -78 13 -4 23 -17 26 -35 3 -16 10 -28 15 -27 20 4 45 -10 45 -24 0
-8 5 -14 10 -14 6 0 10 -5 10 -11 0 -16 32 -83 43 -90 6 -4 7 -16 4 -28 -3
-12 -2 -23 3 -26 4 -3 11 -26 15 -52 3 -27 13 -58 21 -71 8 -12 12 -27 9 -32
-4 -6 7 -10 24 -10 16 0 36 -7 45 -15 18 -18 30 -20 20 -2 -5 7 -1 7 10 -2 28
-23 96 -20 125 7 13 12 34 21 45 21 40 -4 55 1 59 19 4 13 5 12 6 -5 0 -12 10
-27 20 -32 15 -9 20 -7 24 9 5 21 29 29 24 8 -1 -6 6 -13 15 -16 12 -2 19 6
23 32 7 36 37 76 58 76 20 0 47 36 35 48 -5 5 -11 24 -13 42 -3 19 -10 38 -17
43 -10 6 -10 10 -1 13 7 3 10 18 6 39 -6 38 21 84 50 85 10 0 15 5 12 10 -4 6
6 10 23 10 32 0 42 -14 42 -57 0 -14 8 -32 18 -39 10 -8 12 -13 5 -14 -14 0
-18 -30 -4 -30 5 0 14 7 21 15 7 8 21 15 31 15 12 0 19 7 19 18 0 10 9 35 20
57 11 21 18 41 15 43 -2 3 5 17 16 33 10 15 19 31 18 36 -1 4 0 13 1 18 1 6 3
15 5 20 1 6 3 24 3 41 1 16 10 39 19 50 33 37 43 60 31 72 -8 8 -4 14 16 22
37 14 83 13 89 -2 9 -25 30 10 29 47 -1 24 -9 43 -24 55 -13 11 -19 19 -14 20
5 0 3 7 -4 15 -15 18 -15 204 0 219 5 5 10 18 10 28 0 10 5 18 11 18 8 0 10
13 6 36 -4 20 -2 45 3 55 7 12 6 20 0 24 -8 5 -8 11 -1 19 6 7 12 39 13 72 2
32 6 61 10 65 5 3 10 26 13 52 3 37 1 48 -13 56 -10 6 -12 11 -4 11 6 0 12 11
12 25 0 14 3 25 8 25 4 0 8 10 8 23 1 12 8 45 15 72 10 33 14 107 14 222 0 95
3 173 8 173 4 0 7 6 7 14 0 21 26 67 33 59 4 -3 7 -1 7 5 0 15 59 72 74 72 24
0 39 46 33 97 -4 26 -3 53 1 59 11 16 42 26 90 30 39 3 42 1 42 -22 0 -13 -6
-24 -12 -24 -9 0 -9 -3 -2 -8 17 -11 27 -45 11 -39 -8 3 -13 -3 -14 -14 -1
-10 2 -19 8 -19 5 0 9 6 9 13 0 8 3 8 8 2 4 -6 16 -10 27 -8 40 4 120 26 131
34 6 5 16 3 23 -4 11 -9 15 -9 18 1 3 7 16 18 30 23 15 5 23 15 20 23 -8 21
13 36 49 36 18 0 36 5 39 10 4 6 11 8 16 5 5 -4 9 -2 9 3 0 11 114 72 145 78
11 2 21 8 23 14 2 5 13 10 23 10 13 0 18 4 13 12 -4 7 -3 8 5 4 12 -8 90 33
126 65 30 27 70 40 84 26 8 -8 11 -8 11 2 0 8 6 11 16 7 11 -4 15 -2 11 8 -6
16 11 36 31 36 7 0 28 11 46 25 18 14 38 25 44 25 6 0 12 5 14 11 2 5 12 12
23 14 11 2 22 4 25 6 3 1 12 3 20 3 33 3 120 42 120 53 0 7 18 31 40 53 22 22
40 47 40 55 0 8 5 15 10 15 6 0 10 -5 10 -11 0 -6 8 -1 18 10 9 12 25 23 35
25 10 1 24 13 30 27 10 18 21 24 48 25 26 1 45 11 71 36 19 19 46 38 61 42 15
3 27 13 27 20 0 8 9 16 20 19 11 3 20 12 20 21 0 15 17 22 68 29 13 2 27 9 31
16 4 7 15 9 26 5 13 -5 16 -4 11 4 -4 7 -1 12 8 12 9 0 16 4 16 9 0 5 13 11
29 14 16 4 38 15 48 26 10 11 30 20 43 20 14 1 36 1 49 1 24 0 24 1 6 14 -17
12 -15 14 26 21 24 4 53 12 64 18 34 19 88 36 97 31 4 -3 8 -1 8 4 0 13 93 60
108 55 7 -3 21 2 30 10 9 9 29 18 44 22 15 4 29 13 32 22 3 8 10 11 16 8 5 -3
7 0 4 8 -4 10 5 17 31 21 20 4 39 14 42 22 3 8 13 12 22 9 10 -3 27 4 39 16
15 13 29 18 42 14 13 -4 30 1 46 14 15 12 31 21 37 21 5 0 20 11 33 25 14 15
29 22 38 19 11 -4 16 0 16 10 0 9 6 16 14 14 7 -2 23 8 35 22 21 24 22 24 16
3 -8 -29 10 -30 25 -3 15 28 79 54 96 39 10 -8 14 -8 14 0 0 6 -4 11 -10 11
-5 0 -10 5 -10 11 0 6 9 9 19 6 12 -3 27 3 36 12 16 19 95 28 95 11 0 -6 7
-10 15 -10 8 0 15 7 15 15 0 8 5 15 11 15 5 0 8 4 4 9 -3 5 0 13 6 17 9 5 10
-1 5 -20 -4 -16 -2 -26 4 -26 6 0 8 5 5 10 -4 6 5 10 19 10 14 0 26 5 26 10 0
6 6 10 13 10 19 0 57 43 57 63 0 20 4 21 32 6 15 -8 19 -8 14 0 -4 7 1 11 13
11 12 0 21 4 21 10 0 15 58 70 74 70 8 0 18 9 21 20 4 12 15 20 29 20 12 0 26
3 30 8 13 12 54 9 49 -4 -2 -7 0 -15 6 -19 6 -3 11 1 11 9 0 9 9 16 20 16 11
0 20 -4 20 -10 0 -5 5 -10 11 -10 6 0 9 9 6 20 -3 12 0 20 8 20 7 0 13 6 12
13 -1 45 3 59 16 48 17 -14 27 -4 27 26 0 13 4 22 9 19 8 -5 37 30 53 64 4 10
7 10 7 3 2 -23 29 -13 35 12 4 14 17 31 30 36 13 6 30 22 36 35 10 18 19 22
36 18 22 -6 64 24 64 46 0 5 9 14 20 20 11 6 20 8 20 5 0 -8 63 27 72 40 4 6
8 27 8 48 0 20 5 37 11 37 6 0 8 -9 4 -20 -7 -22 20 -29 28 -7 4 9 8 8 17 -3
9 -12 10 -9 5 13 -5 25 -3 28 14 22 11 -3 22 -1 26 5 4 7 -1 14 -13 16 -15 4
-19 14 -18 40 0 19 8 39 16 44 10 7 11 10 3 10 -7 0 -13 5 -13 10 0 6 9 10 19
10 13 0 21 8 23 23 2 13 10 22 21 22 10 0 21 5 25 11 4 6 18 15 32 19 32 9 60
34 60 52 0 7 8 16 18 20 9 3 26 14 37 24 11 10 33 30 48 43 18 15 26 30 21 37
-5 9 -2 10 9 6 11 -4 17 -1 17 9 0 8 5 12 10 9 6 -3 10 -1 10 4 0 6 7 11 16
11 8 0 12 5 9 10 -3 6 2 10 12 10 20 0 49 37 44 58 -1 8 6 13 16 12 30 -4 43
0 43 10 0 6 9 21 21 33 19 21 21 21 33 5 7 -10 21 -18 30 -18 9 0 16 -8 16
-20 0 -13 -7 -20 -20 -20 -11 0 -20 -7 -20 -16 0 -8 5 -12 10 -9 6 3 10 1 10
-4 0 -6 -7 -11 -16 -11 -9 0 -25 -11 -36 -25 -19 -24 -21 -25 -34 -8 -12 16
-13 14 -14 -19 0 -32 -3 -38 -21 -38 -16 0 -20 -5 -16 -20 3 -13 -2 -25 -13
-33 -11 -7 -24 -26 -30 -42 -6 -16 -14 -25 -18 -20 -12 17 -47 41 -38 27 13
-22 -16 -72 -43 -72 -28 0 -111 -64 -111 -86 0 -8 -4 -13 -9 -10 -9 6 -34 -46
-35 -72 -1 -8 -10 -20 -20 -27 -16 -12 -21 -12 -33 1 -17 16 -29 18 -38 4 -3
-5 2 -10 12 -10 12 0 14 -3 6 -8 -7 -4 -9 -13 -4 -21 7 -10 13 -10 29 -2 26
14 32 14 32 1 0 -5 -7 -10 -15 -10 -8 0 -15 -5 -15 -11 0 -6 7 -8 16 -5 9 3
20 6 24 6 5 0 12 16 16 35 3 20 12 35 20 35 8 0 23 9 34 20 12 12 24 19 29 16
9 -6 41 29 41 44 0 6 8 10 19 10 14 0 17 6 13 27 -4 22 -2 25 12 20 18 -7 66
32 66 53 0 6 3 9 8 7 4 -3 16 -1 27 4 17 6 17 8 3 8 -13 1 -9 9 18 36 19 19
40 35 48 35 7 0 19 15 27 33 8 17 26 38 41 45 16 7 33 22 38 33 6 10 20 19 30
19 11 0 20 5 20 10 0 13 75 86 96 94 12 5 14 13 10 32 -6 24 -6 25 9 10 9 -9
21 -16 26 -16 6 0 3 7 -5 16 -9 8 -16 19 -16 24 0 14 32 21 45 10 9 -8 14 -6
19 5 3 8 1 15 -4 15 -6 0 -10 10 -10 23 0 38 12 67 26 67 8 0 14 10 14 25 0
15 6 25 15 25 8 0 25 11 38 24 21 21 22 25 8 34 -14 9 -12 11 8 11 34 1 121
77 121 107 0 15 6 24 15 24 8 0 15 6 15 13 0 8 19 34 42 58 23 24 41 49 40 56
-2 6 2 14 8 18 5 3 10 15 10 25 0 11 8 20 22 22 14 2 22 11 23 27 1 13 9 29
18 36 10 7 17 17 17 24 0 6 7 11 15 11 8 0 15 6 15 14 0 8 11 23 25 34 14 11
25 25 25 31 0 6 4 11 10 11 5 0 20 19 34 43 14 23 34 49 46 57 11 8 20 20 20
27 0 7 5 13 10 13 6 0 10 11 10 24 0 17 7 26 24 30 14 3 27 14 30 24 3 9 24
35 45 57 23 23 45 58 53 82 7 24 29 61 50 84 21 23 38 46 38 52 0 5 11 25 25
43 14 18 25 39 25 46 0 21 21 37 39 30 13 -5 14 -3 4 9 -10 13 -7 21 17 48 17
18 30 38 30 46 0 7 8 12 18 11 12 -1 18 7 20 27 2 15 8 27 13 27 5 0 9 6 9 14
0 8 11 23 25 34 14 11 25 30 25 42 0 14 4 19 12 14 8 -5 9 -2 5 9 -3 10 -2 17
3 17 6 0 10 7 10 15 0 20 39 44 79 47 27 2 40 11 65 45 17 23 39 45 49 48 10
4 17 16 17 31 0 19 5 24 25 24 17 0 23 4 19 14 -3 8 -1 17 5 20 6 4 8 12 5 19
-2 7 9 20 25 30 16 9 29 22 28 29 -2 57 4 80 23 85 11 3 17 9 15 14 -3 4 3 13
14 19 14 7 22 25 27 59 5 36 10 48 20 44 9 -3 14 2 14 16 0 12 7 24 15 27 8 4
12 10 9 15 -3 5 0 9 5 9 6 0 11 5 11 11 0 6 14 28 30 49 17 21 30 48 30 61 0
19 2 21 10 9 5 -8 10 -13 11 -10 0 3 2 16 5 30 2 14 11 30 19 36 20 15 19 24
-2 25 -15 0 -14 2 4 11 12 6 25 23 28 38 3 15 19 42 36 61 16 18 29 38 29 45
0 6 7 14 15 18 8 3 15 12 15 21 0 8 6 15 13 15 8 0 20 18 27 39 8 24 20 41 32
45 11 2 17 9 13 15 -10 18 5 53 21 47 8 -3 15 0 15 7 6 64 12 82 29 94 23 16
27 38 5 30 -8 -4 -17 -2 -20 3 -4 6 2 10 12 10 29 0 67 30 54 43 -16 16 -13
27 8 27 12 0 23 11 29 28 5 15 20 39 33 53 13 14 25 38 27 54 4 37 19 65 35
65 12 0 37 65 37 98 0 10 9 24 20 32 11 8 20 24 20 36 0 11 9 31 20 44 11 13
20 31 20 41 0 24 21 69 32 69 4 0 8 9 8 20 0 22 15 27 24 8 3 -7 3 -3 0 10 -3
12 -1 22 5 22 6 0 11 8 11 18 0 10 9 37 20 60 11 22 20 48 20 57 0 9 7 18 15
21 8 4 15 15 15 25 0 10 5 19 10 19 6 0 10 11 10 24 0 13 7 29 15 36 8 6 17
22 20 33 17 60 38 106 46 101 5 -3 9 1 9 9 0 7 9 23 20 35 11 12 20 29 20 39
0 10 13 27 29 38 17 11 28 21 26 23 -3 3 27 97 44 137 34 79 43 95 51 95 6 0
10 17 10 38 0 21 7 48 16 60 9 13 13 31 9 42 -4 11 -2 20 4 20 11 0 26 39 22
58 -1 8 4 21 12 30 8 10 17 26 19 37 2 13 10 19 22 17 11 -2 15 1 11 7 -7 13
42 34 57 25 5 -3 12 3 15 14 3 13 11 18 19 15 9 -3 14 2 14 14 0 11 9 28 20
38 11 10 20 29 20 42 0 15 6 23 18 24 10 0 12 3 5 6 -7 2 -13 11 -13 19 0 9 4
13 9 10 5 -3 11 12 15 35 3 22 13 42 21 46 9 3 14 10 13 17 -8 41 38 157 69
175 10 6 14 11 9 11 -5 0 -4 6 2 13 6 7 13 30 15 50 2 20 9 42 15 50 11 13 14
23 31 107 5 25 10 47 11 50 19 41 25 50 38 50 10 0 12 7 8 26 -4 16 -3 23 3
19 6 -3 13 5 17 19 3 13 14 32 24 41 10 9 16 24 13 34 -2 10 2 25 11 33 8 9
13 18 10 21 -8 7 38 137 48 137 5 0 6 5 3 10 -3 6 -1 10 4 10 16 0 13 23 -9
71 -21 48 -26 99 -11 127 17 29 46 131 58 197 3 17 14 37 24 46 13 11 19 30
19 57 0 22 5 44 10 47 6 3 10 17 10 31 0 13 5 24 11 24 5 0 9 8 8 18 -3 31 1
55 8 49 8 -9 33 40 33 65 0 10 11 36 25 56 14 20 25 46 25 57 0 11 9 44 20 73
11 29 18 57 15 62 -3 5 -1 11 5 15 5 3 10 19 10 36 0 16 4 29 9 29 13 0 21 39
9 47 -7 4 -5 11 6 18 12 9 17 30 19 74 2 54 7 65 28 63 4 -1 9 10 12 23 5 28
0 30 -27 10 -10 -8 -23 -12 -27 -9 -8 5 -13 -9 -10 -28 0 -3 -13 -12 -29 -20
-17 -7 -30 -20 -30 -29 0 -9 -6 -19 -14 -22 -7 -3 -16 -24 -20 -46 -4 -28 -11
-41 -22 -41 -9 0 -29 -14 -46 -32 -23 -25 -31 -44 -37 -96 -4 -36 -14 -70 -22
-76 -8 -6 -19 -20 -25 -31 -6 -10 -15 -20 -20 -22 -14 -5 -47 54 -34 62 5 3
10 15 10 26 0 11 12 31 26 44 15 14 23 25 17 25 -5 0 -10 7 -10 15 0 9 6 14
12 11 20 -7 35 15 35 50 0 18 5 36 10 39 6 3 10 16 10 28 0 12 7 30 15 40 7
10 19 42 25 70 6 29 27 84 45 122 18 39 36 88 40 110 8 47 26 105 37 121 4 6
8 48 9 94 1 71 -2 86 -17 97 -22 16 -50 12 -46 -6 2 -8 -4 -10 -17 -6 -20 6
-31 -16 -31 -68 0 -16 -7 -30 -16 -34 -16 -6 -16 -9 0 -88 5 -24 -10 -47 -41
-63 -25 -14 -34 0 -40 62 -1 22 -8 43 -15 47 -6 4 -13 16 -15 26 -6 29 -4 154
3 164 3 5 1 9 -4 9 -5 0 -8 23 -8 50 1 28 -2 50 -6 50 -4 0 -5 15 -4 33 2 17
1 24 -1 15 -5 -19 -28 -24 -38 -8 -10 16 -35 -1 -52 -37 -13 -27 -14 -39 -5
-53 9 -14 8 -19 -3 -24 -9 -3 -15 -18 -15 -36 0 -23 4 -30 20 -30 18 0 20 -4
14 -42 -8 -50 -20 -69 -40 -61 -8 3 -21 -1 -30 -8 -9 -7 -18 -9 -22 -3 -4 5
-16 14 -27 20 -11 6 -24 28 -30 49 -8 34 -7 40 17 60 18 16 29 37 33 69 4 25
11 49 17 52 5 3 6 14 3 25 -4 11 -2 19 5 19 8 0 10 8 7 21 -7 27 1 49 19 49 8
0 14 8 15 18 0 9 2 37 4 62 2 25 -1 50 -6 56 -12 14 -1 44 16 44 12 0 25 21
25 39 0 5 -18 8 -41 8 -34 0 -42 -4 -50 -24z m-115 -805 c24 -50 11 -295 -18
-343 -7 -11 -18 -39 -24 -62 -7 -24 -17 -43 -22 -43 -6 0 -10 -9 -10 -20 0
-11 -7 -23 -15 -26 -8 -4 -15 -15 -15 -25 0 -10 -5 -19 -10 -19 -6 0 -15 -12
-20 -26 -6 -14 -14 -23 -18 -20 -9 6 -42 -29 -42 -44 0 -15 -16 -12 -30 5 -13
16 -6 100 9 110 5 2 14 26 21 52 7 27 19 57 27 68 7 11 13 32 13 47 0 15 5 30
10 33 6 3 10 20 10 36 0 17 7 37 15 45 8 9 15 32 15 52 0 20 12 60 25 87 14
28 25 58 25 68 0 19 21 57 32 57 4 0 14 -15 22 -32z m-224 -643 c0 -8 -4 -15
-10 -15 -5 0 -10 7 -10 15 0 8 5 15 10 15 6 0 10 -7 10 -15z m-136 -352 c-4
-27 -11 -52 -15 -57 -5 -6 -9 -18 -9 -28 0 -20 -28 -37 -50 -31 -13 4 -13 3 0
-6 12 -9 13 -14 3 -31 -7 -11 -13 -24 -13 -30 0 -6 -12 -23 -27 -38 -31 -30
-83 -123 -83 -147 0 -8 -14 -24 -30 -37 -17 -12 -28 -28 -26 -35 3 -7 -5 -29
-19 -48 -13 -20 -25 -39 -27 -44 -2 -5 -12 -11 -23 -15 -16 -4 -25 1 -38 23
-12 20 -14 32 -6 36 5 4 8 13 5 21 -3 8 -1 14 4 14 6 0 10 6 10 14 0 8 10 16
22 18 17 2 25 14 34 43 6 22 18 41 27 43 9 2 19 16 22 32 3 16 12 28 18 26 7
-1 9 -1 5 1 -16 9 -7 33 12 33 14 0 20 7 20 24 0 13 8 34 19 47 10 13 24 41
30 62 7 20 19 37 27 37 9 0 13 4 10 8 -7 12 28 49 54 57 13 4 20 15 20 31 0
14 6 24 15 24 12 0 13 -9 9 -47z m234 -440 c2 -62 0 -73 -13 -73 -9 0 -13 -5
-10 -10 4 -6 2 -17 -5 -25 -6 -7 -13 -24 -14 -37 -7 -53 -19 -98 -26 -98 -4 0
-7 -6 -7 -12 2 -21 -26 -102 -38 -110 -6 -5 -5 -11 4 -17 11 -7 6 -13 -23 -25
-21 -9 -35 -20 -32 -24 6 -9 -52 -104 -66 -110 -5 -2 -8 -10 -8 -18 0 -8 -4
-22 -9 -32 -5 -9 -18 -36 -30 -58 -11 -23 -21 -48 -21 -55 0 -7 -8 -21 -17
-31 -15 -17 -15 -19 2 -32 13 -9 16 -20 11 -39 -3 -14 -2 -28 3 -31 10 -6 -22
-81 -39 -91 -5 -3 -10 -13 -10 -21 0 -9 -7 -22 -15 -30 -8 -9 -18 -27 -21 -42
-9 -40 -28 -82 -36 -82 -5 0 -8 -7 -8 -16 0 -8 -7 -22 -15 -31 -8 -8 -13 -19
-9 -24 3 -5 -1 -12 -10 -15 -8 -3 -13 -11 -10 -18 3 -7 -4 -23 -16 -36 -11
-13 -20 -29 -20 -37 0 -7 -5 -13 -11 -13 -6 0 -8 -9 -4 -20 4 -11 2 -20 -4
-20 -6 0 -11 -7 -11 -15 0 -9 -7 -18 -15 -21 -9 -4 -15 -19 -15 -35 0 -19 -5
-29 -15 -29 -9 0 -15 -9 -15 -23 0 -28 -27 -87 -40 -87 -5 0 -11 6 -13 13 -3
6 -6 -5 -6 -25 -1 -21 -5 -38 -11 -38 -5 0 -12 -17 -16 -37 -4 -21 -17 -46
-31 -56 -12 -10 -23 -25 -23 -33 0 -8 -4 -14 -10 -14 -5 0 -10 -7 -10 -15 0
-8 -7 -15 -15 -15 -8 0 -15 -9 -15 -20 0 -11 -4 -20 -10 -20 -5 0 -10 -10 -10
-22 0 -28 -10 -42 -32 -51 -25 -9 -23 -26 2 -20 14 4 20 0 20 -12 0 -13 -6
-16 -25 -11 -18 5 -25 2 -25 -9 0 -8 -6 -15 -14 -15 -10 0 -13 -9 -11 -30 2
-16 0 -30 -5 -30 -6 0 -10 -7 -10 -15 0 -8 -7 -15 -15 -15 -9 0 -12 -6 -8 -16
7 -18 -13 -61 -39 -85 -10 -9 -18 -21 -18 -28 0 -6 -9 -11 -20 -11 -13 0 -18
-5 -14 -15 4 -8 2 -21 -4 -28 -5 -6 -13 -28 -17 -47 -4 -19 -18 -42 -31 -53
-13 -10 -24 -24 -24 -30 -1 -17 -36 -57 -50 -57 -6 0 -10 -6 -9 -12 2 -14 -14
-61 -31 -90 -6 -10 -10 -25 -10 -33 0 -8 -6 -15 -13 -15 -18 0 -69 -82 -63
-102 2 -11 -1 -18 -10 -18 -8 0 -14 -4 -14 -9 0 -5 -8 -12 -18 -15 -10 -3 -22
-21 -28 -39 -5 -18 -15 -31 -22 -29 -8 1 -11 -2 -8 -7 4 -5 2 -12 -4 -16 -6
-4 -8 -10 -5 -15 7 -11 -5 -40 -17 -40 -15 0 -38 -27 -35 -42 2 -7 2 -10 0 -6
-6 10 -33 -18 -71 -71 -18 -24 -29 -48 -26 -53 3 -5 -2 -18 -12 -29 -9 -10
-13 -19 -8 -19 5 0 -2 -7 -14 -16 -12 -8 -22 -20 -22 -25 0 -5 -9 -19 -20 -31
-11 -12 -20 -28 -20 -36 0 -8 -6 -12 -14 -9 -11 4 -13 1 -9 -10 4 -9 -1 -19
-10 -25 -10 -5 -17 -15 -17 -22 0 -8 -9 -16 -21 -19 -12 -3 -18 -10 -14 -16 3
-6 -3 -21 -14 -33 -12 -12 -26 -34 -33 -49 -7 -15 -15 -26 -18 -24 -3 2 -7 -6
-7 -18 -1 -12 -11 -28 -23 -36 -11 -7 -20 -22 -20 -33 0 -10 -7 -21 -16 -25
-13 -5 -13 -8 -2 -15 10 -7 10 -11 1 -15 -7 -2 -13 -11 -13 -19 0 -8 -4 -14
-10 -14 -5 0 -12 -11 -16 -25 -3 -14 -10 -25 -15 -25 -5 0 -9 -7 -9 -16 0 -9
-5 -14 -12 -12 -18 6 -54 -35 -49 -56 3 -13 0 -17 -7 -12 -8 4 -12 0 -12 -11
0 -10 -13 -27 -30 -38 -24 -16 -26 -21 -14 -28 22 -12 -1 -36 -28 -29 -15 3
-19 2 -14 -7 4 -6 -5 -24 -20 -41 -16 -16 -30 -43 -32 -62 -3 -36 -33 -68 -63
-68 -24 0 -25 -15 -1 -30 16 -11 16 -11 -1 -6 -13 4 -21 -2 -28 -23 -7 -20
-15 -28 -25 -24 -8 3 -17 -3 -21 -13 -8 -24 -41 -57 -70 -73 -25 -13 -32 -37
-8 -27 8 3 15 1 15 -4 0 -6 -9 -10 -20 -10 -12 0 -20 -7 -20 -16 0 -9 -9 -18
-20 -21 -11 -3 -20 -14 -20 -24 0 -11 -7 -19 -15 -19 -8 0 -16 -10 -17 -22 -1
-13 -2 -30 -3 -38 0 -8 -23 -39 -50 -68 -27 -29 -55 -62 -64 -74 -28 -40 -91
-98 -107 -98 -8 0 -12 -5 -9 -11 7 -11 -35 -109 -46 -109 -3 0 -19 -18 -34
-41 -16 -22 -41 -47 -57 -55 -25 -13 -29 -13 -48 6 -11 11 -22 31 -26 45 -7
26 -24 35 -24 11 0 -7 -6 -19 -14 -25 -11 -9 -15 -7 -19 11 -4 15 1 29 18 46
13 13 34 43 45 67 12 24 27 45 34 48 7 3 23 33 36 67 16 43 30 64 47 71 12 4
23 15 23 23 0 9 9 20 20 26 12 7 17 16 13 27 -5 12 -3 14 7 8 8 -5 11 -4 6 3
-7 12 35 62 53 62 6 0 11 10 11 23 1 21 21 57 33 57 3 0 8 -10 10 -22 2 -13 5
-4 6 18 0 26 6 44 15 47 8 3 17 19 21 36 5 23 12 31 28 32 21 0 21 1 2 9 -17
7 -17 9 -2 9 9 1 17 7 17 15 0 8 11 23 25 34 14 11 25 25 25 31 0 6 4 11 10
11 5 0 7 6 4 13 -3 8 2 19 10 26 12 10 13 18 5 32 -7 15 -6 19 6 19 8 0 15 5
15 11 0 5 5 7 12 3 7 -4 8 -3 4 5 -4 6 1 19 13 29 19 16 20 19 7 44 -14 26
-13 28 14 40 15 6 36 25 45 41 16 27 16 29 -1 41 -17 13 -16 14 5 25 13 7 25
10 29 7 3 -3 0 -6 -6 -6 -7 0 -12 -4 -12 -10 0 -14 27 -13 36 1 4 7 7 25 6 40
0 23 4 29 20 29 14 0 18 5 14 15 -3 8 0 15 7 15 7 0 13 11 13 25 1 14 13 43
27 63 26 39 42 86 38 115 -1 9 2 17 8 17 13 0 62 105 92 197 13 37 31 79 40
93 9 14 19 35 23 47 4 11 13 24 21 27 9 3 15 19 15 41 0 19 3 35 8 35 4 0 13
15 21 33 8 17 27 50 43 71 15 22 28 44 28 49 0 4 7 15 15 23 8 9 15 24 15 34
0 11 8 24 18 29 9 5 23 30 30 56 7 25 16 44 21 41 5 -3 14 0 20 8 9 11 5 15
-24 20 -47 9 -44 23 5 31 33 6 40 11 40 30 0 13 10 32 23 42 15 12 23 27 22
43 -2 14 4 33 13 43 15 17 24 67 11 67 -4 0 -9 9 -12 21 -3 12 -10 18 -16 14
-7 -4 -11 9 -11 38 0 33 13 71 55 154 30 61 55 115 55 120 0 11 37 43 50 43 6
0 9 3 9 8 -4 23 4 32 26 32 23 0 24 -2 15 -20 -13 -25 -4 -60 16 -60 8 0 14
-7 14 -15 0 -15 20 -22 21 -7 4 68 10 97 18 100 6 2 11 12 11 23 0 10 5 19 11
19 6 0 9 9 6 20 -3 13 2 26 16 38 29 23 47 59 50 99 1 18 6 33 11 33 13 0 56
44 56 58 0 6 6 12 14 12 7 0 16 9 19 21 3 12 10 18 16 14 6 -3 11 0 11 7 0 7
10 18 23 23 14 7 23 20 25 40 3 31 44 61 65 48 6 -4 8 0 4 9 -3 9 -1 20 5 26
12 12 1 35 -12 27 -5 -3 -13 3 -19 12 -9 16 -10 14 -11 -10 0 -23 -3 -26 -16
-19 -9 5 -25 7 -35 5 -11 -3 -19 0 -19 6 0 6 6 11 14 11 8 0 16 7 20 15 3 8 9
15 13 14 22 -4 33 3 33 19 1 19 30 63 30 44 0 -7 4 -12 10 -12 15 0 50 42 50
62 0 10 7 18 15 18 8 0 12 6 9 14 -3 8 -1 17 5 21 6 3 11 22 11 41 0 20 5 34
13 35 9 0 9 2 0 6 -9 3 -7 11 7 26 11 11 20 28 20 36 1 13 4 12 15 -3 14 -19
15 -19 15 7 0 15 5 27 10 27 6 0 10 7 10 15 0 8 8 15 17 15 13 0 14 3 5 12
-13 13 -16 32 -4 24 8 -4 40 25 136 127 19 20 40 37 47 37 6 0 8 7 5 16 -3 8
1 22 9 30 8 9 15 30 15 47 0 24 3 28 12 19 18 -18 28 -14 28 11 0 22 40 67 59
67 5 0 11 9 14 20 3 11 14 20 24 20 13 0 19 8 21 25 1 15 17 38 37 56 34 30
65 80 65 106 0 7 6 13 14 13 8 0 17 13 21 29 4 21 11 28 21 24 10 -4 17 2 21
16 5 18 13 21 63 21 61 0 69 8 70 63 0 11 10 32 21 49 18 25 19 32 8 39 -12 7
-12 9 1 9 11 0 11 3 2 12 -16 16 -15 28 3 28 8 0 15 5 15 11 0 6 11 20 25 31
14 11 25 28 25 39 0 15 6 20 23 17 20 -3 22 -9 25 -75z m-687 -265 c-1 -5 -1
-21 -1 -37 0 -16 -6 -36 -13 -43 -7 -7 -16 -22 -20 -32 -4 -10 -10 -16 -13
-13 -9 9 -64 -55 -64 -75 0 -13 -8 -18 -25 -18 -22 0 -25 4 -25 35 0 24 4 33
13 29 14 -5 37 34 37 62 0 8 5 12 10 9 6 -3 10 0 10 8 0 20 62 88 78 85 7 -2
13 -6 13 -10z m-231 -79 c0 -5 -4 -9 -10 -9 -5 0 -10 7 -10 16 0 8 5 12 10 9
6 -3 10 -10 10 -16z m-164 -1040 c3 -6 0 -15 -7 -20 -8 -5 -15 -4 -17 1 -2 6
-8 8 -13 4 -5 -3 -9 -1 -9 4 0 22 34 30 46 11z m-336 -524 c0 -12 -19 -12 -23
0 -4 9 -1 12 9 8 7 -3 14 -7 14 -8z m-1017 -210 c-3 -8 -14 -15 -24 -15 -18 0
-18 1 -1 18 19 21 34 19 25 -3z m1497 -55 c0 -5 -4 -10 -10 -10 -5 0 -10 5
-10 10 0 6 5 10 10 10 6 0 10 -4 10 -10z m-1006 -101 c5 -31 2 -42 -19 -67
-14 -16 -25 -37 -25 -46 0 -9 -7 -19 -15 -22 -8 -4 -12 -10 -9 -15 3 -5 0 -9
-5 -9 -20 0 -51 -35 -51 -57 0 -15 -12 -31 -35 -45 -22 -15 -37 -34 -41 -53
-3 -16 -21 -50 -39 -75 -22 -30 -32 -54 -30 -72 2 -16 -3 -29 -12 -32 -8 -3
-11 -12 -8 -18 4 -7 -1 -4 -9 6 -21 26 -20 7 1 -24 9 -14 13 -22 8 -18 -11 11
-38 -20 -31 -37 3 -9 0 -15 -8 -15 -16 0 -60 -55 -71 -88 -5 -18 -13 -23 -30
-19 -13 2 -30 0 -37 -5 -10 -7 -8 -8 5 -4 20 6 23 -14 5 -47 -15 -26 -29 -37
-39 -31 -7 4 -59 -59 -59 -73 0 -5 -10 -13 -22 -18 -13 -6 -25 -21 -26 -35 -2
-14 -10 -29 -18 -33 -8 -4 -14 -17 -14 -27 0 -13 -7 -20 -19 -20 -15 0 -18 -5
-13 -22 5 -20 3 -21 -10 -10 -14 11 -17 10 -23 -7 -3 -12 -3 -25 0 -31 3 -5 1
-10 -5 -10 -7 0 -10 -7 -6 -15 7 -19 1 -19 -19 2 -16 15 -17 15 -13 -8 2 -18
9 -24 28 -24 15 0 25 6 26 15 4 54 3 53 21 39 13 -12 17 -12 21 -1 2 8 17 28
33 45 33 35 32 34 83 83 20 18 36 40 36 48 0 7 11 17 25 20 15 4 25 14 25 24
0 9 14 28 30 42 18 15 30 34 30 48 0 13 4 20 10 17 21 -13 68 28 80 69 15 50
27 66 44 60 10 -4 12 2 9 20 -3 16 -1 26 6 26 6 0 11 -6 12 -12 0 -9 2 -9 6 1
3 8 16 30 30 49 13 20 22 41 19 48 -3 8 1 11 9 8 8 -3 19 4 26 18 6 13 18 26
25 31 7 4 15 20 19 36 3 16 13 32 21 35 8 3 20 19 25 35 6 16 22 37 35 46 14
9 23 19 20 23 -2 4 2 13 10 20 8 7 14 10 14 5 0 -4 6 2 14 13 8 10 18 16 22
12 11 -11 12 -68 2 -68 -5 0 -7 -4 -4 -9 4 -5 2 -21 -3 -34 -7 -18 -7 -27 2
-31 8 -3 6 -9 -7 -20 -10 -8 -15 -19 -12 -24 3 -5 -3 -18 -14 -29 -11 -13 -20
-40 -23 -70 -4 -54 -12 -73 -30 -73 -7 0 -6 4 3 10 8 5 11 10 5 10 -5 0 -16
-4 -24 -9 -12 -8 -13 -12 -1 -26 11 -13 10 -18 -5 -29 -11 -8 -16 -20 -12 -30
4 -9 2 -16 -3 -16 -5 0 -17 -17 -27 -37 -21 -46 -29 -56 -70 -99 -22 -21 -28
-34 -20 -37 9 -4 9 -8 1 -14 -6 -4 -14 -18 -18 -30 -4 -13 -14 -23 -22 -23 -8
0 -15 -6 -15 -12 -6 -62 -11 -83 -24 -90 -8 -5 -12 -15 -9 -23 4 -8 1 -15 -5
-15 -6 0 -11 -7 -11 -15 0 -8 -5 -15 -11 -15 -5 0 -15 -14 -21 -30 -5 -17 -18
-35 -28 -40 -14 -8 -17 -18 -13 -49 7 -49 -3 -83 -17 -61 -7 11 -10 8 -10 -13
0 -21 -4 -27 -17 -25 -12 2 -17 -3 -15 -15 2 -9 -2 -25 -7 -35 -10 -16 -10
-16 -11 1 0 9 -4 17 -10 17 -5 0 -9 -3 -9 -7 3 -21 -3 -33 -17 -33 -8 0 -12
-4 -9 -10 3 -5 1 -10 -4 -10 -6 0 -11 -7 -11 -15 0 -8 -5 -15 -10 -15 -7 0 -9
-16 -6 -39 2 -21 -1 -57 -7 -80 -9 -34 -15 -41 -35 -41 -17 0 -23 -4 -18 -15
4 -10 -5 -20 -29 -29 -19 -8 -35 -22 -35 -30 0 -9 -3 -16 -7 -16 -5 0 -15 -13
-24 -28 -14 -25 -14 -32 -3 -55 13 -24 12 -26 -9 -33 -12 -4 -27 -7 -34 -6
-13 3 -53 -45 -53 -63 0 -7 -13 -27 -29 -45 -16 -19 -27 -40 -24 -47 3 -8 -2
-13 -12 -13 -12 0 -16 -6 -12 -20 5 -20 -2 -24 -35 -21 -10 1 -18 -3 -18 -8 0
-6 5 -11 10 -11 17 0 11 -25 -10 -40 -11 -8 -20 -24 -20 -37 0 -12 -4 -25 -10
-28 -5 -3 -10 -1 -10 4 0 6 -4 11 -10 11 -5 0 -7 -7 -4 -15 4 -10 0 -15 -12
-16 -18 0 -17 -1 1 -9 17 -7 17 -9 3 -9 -13 -1 -18 -9 -18 -31 0 -21 -5 -30
-16 -30 -17 0 -44 -23 -44 -38 0 -6 -7 -13 -16 -16 -8 -3 -12 -11 -9 -16 4 -6
4 -18 1 -27 -5 -13 -9 -13 -22 -2 -13 11 -14 9 -9 -14 6 -21 4 -27 -10 -27 -9
0 -13 -4 -10 -10 3 -5 1 -10 -4 -10 -6 0 -11 -6 -11 -13 0 -7 -9 -18 -19 -24
-11 -7 -22 -26 -26 -44 -5 -20 -10 -27 -15 -19 -9 14 -40 -42 -40 -73 0 -11
-10 -29 -23 -41 -13 -12 -26 -29 -30 -39 -3 -9 -13 -17 -22 -17 -8 0 -15 -5
-15 -11 0 -6 -11 -25 -24 -42 -13 -18 -26 -43 -28 -57 -2 -19 -8 -24 -26 -22
-18 3 -24 -3 -29 -30 -4 -18 -6 -37 -5 -41 1 -5 -2 -6 -8 -2 -5 3 -10 -1 -10
-9 0 -9 -4 -16 -9 -16 -5 0 -11 -9 -14 -20 -3 -11 -12 -20 -20 -20 -17 0 -30
-37 -16 -46 5 -3 7 -10 4 -15 -4 -5 2 -9 13 -9 10 0 24 11 30 25 6 14 19 25
28 25 10 0 14 3 11 6 -3 4 5 15 18 26 14 11 25 30 25 44 0 17 7 25 24 30 43
10 61 1 64 -34 2 -17 8 -32 13 -32 5 0 1 -10 -11 -22 -11 -12 -19 -29 -18 -37
2 -10 -6 -17 -20 -19 -12 -2 -20 -8 -17 -13 4 -5 -1 -12 -9 -15 -9 -3 -16 -15
-16 -25 0 -10 -4 -19 -9 -19 -18 0 -61 -47 -61 -67 0 -16 -9 -22 -42 -27 -23
-4 -45 -12 -49 -18 -9 -15 -32 1 -25 18 3 8 2 14 -2 14 -4 0 -9 11 -10 25 -2
26 13 34 21 13 3 -8 6 -7 6 4 1 9 -3 20 -9 23 -5 3 -10 11 -10 16 0 6 4 8 9 5
11 -7 19 35 11 59 -5 15 -11 7 -25 -32 -13 -37 -22 -49 -34 -46 -11 3 -17 -3
-18 -16 -1 -12 3 -21 9 -21 7 0 6 -5 -2 -14 -6 -8 -18 -12 -27 -9 -9 4 -20 -1
-26 -13 -11 -18 -12 -23 -15 -53 -1 -7 -8 -11 -16 -8 -13 5 -32 -34 -28 -56 1
-4 -10 -12 -24 -17 -15 -6 -24 -13 -21 -17 4 -3 -5 -17 -20 -31 -15 -14 -28
-31 -29 -39 -5 -29 -14 -43 -29 -43 -8 0 -15 -5 -15 -10 0 -6 -21 -33 -47 -61
-27 -27 -48 -55 -48 -62 0 -7 -4 -12 -10 -13 -25 -2 -47 -19 -72 -58 -16 -23
-34 -41 -41 -38 -6 2 -12 -1 -12 -7 0 -6 -7 -11 -15 -11 -9 0 -12 -6 -9 -15 4
-8 10 -12 15 -9 5 3 9 1 9 -5 0 -5 -5 -11 -12 -13 -7 -3 -8 -9 -3 -19 17 -27
-11 -139 -35 -139 -6 0 -10 -11 -10 -25 0 -14 -8 -29 -21 -35 -36 -20 -59 -44
-59 -62 0 -10 -10 -20 -25 -24 -14 -3 -25 -10 -25 -15 0 -5 -6 -9 -14 -9 -15
0 -39 -54 -29 -64 4 -3 -7 -7 -23 -7 -16 -1 -21 -3 -12 -6 14 -3 9 -15 -28
-64 -25 -32 -52 -59 -60 -59 -8 0 -20 -13 -25 -30 -8 -22 -17 -30 -35 -30 -17
0 -25 -7 -30 -25 -3 -14 -9 -25 -14 -25 -4 0 -20 -11 -35 -24 -16 -14 -32 -24
-36 -23 -4 1 -15 -7 -24 -18 -9 -11 -14 -14 -10 -7 8 15 -7 16 -23 0 -9 -9
-12 -9 -12 1 0 7 -4 10 -10 6 -5 -3 -7 -12 -4 -20 4 -9 -3 -16 -19 -20 -14 -4
-28 -13 -31 -22 -3 -8 -10 -11 -16 -8 -5 3 -20 -1 -32 -9 -12 -9 -32 -16 -43
-16 -15 0 -24 -9 -30 -32 -7 -23 -15 -32 -27 -30 -10 2 -18 -1 -18 -7 0 -5
-14 -12 -31 -16 -17 -4 -42 -13 -57 -21 -15 -8 -35 -14 -45 -14 -35 0 -55 -18
-49 -45 4 -24 3 -25 -22 -15 -19 7 -26 6 -26 -2 0 -6 -3 -8 -7 -5 -3 4 -12 2
-20 -4 -7 -6 -13 -9 -13 -6 0 3 -13 -6 -30 -21 -31 -27 -47 -33 -93 -36 -17
-1 -25 -6 -22 -13 2 -7 0 -13 -6 -13 -6 0 -8 -9 -4 -20 6 -18 2 -20 -33 -20
-23 0 -45 -6 -52 -15 -9 -11 -9 -15 -1 -15 8 0 11 -12 9 -32 -2 -25 -8 -33
-21 -31 -11 0 -27 -7 -38 -18 -11 -11 -33 -19 -54 -19 -19 0 -35 -4 -35 -10 0
-5 -7 -10 -16 -10 -8 0 -12 5 -8 11 4 8 -1 9 -17 4 -32 -10 -34 -12 -19 -30
10 -12 10 -15 -4 -15 -9 0 -16 6 -16 14 0 8 -6 16 -12 19 -20 6 -37 -3 -32
-17 3 -9 -5 -12 -28 -11 -46 3 -81 -12 -74 -30 3 -8 1 -15 -5 -15 -6 0 -20
-11 -31 -25 -17 -22 -25 -25 -56 -19 -21 4 -43 12 -51 18 -11 9 -13 7 -8 -9 5
-16 -1 -24 -29 -37 -19 -10 -41 -18 -48 -18 -8 0 -17 -7 -20 -16 -3 -8 -10
-13 -15 -9 -16 9 -61 -6 -61 -21 0 -8 -7 -14 -15 -14 -8 0 -15 -5 -15 -11 0
-6 -9 -8 -22 -4 -23 7 -23 7 -3 -8 19 -15 19 -16 -7 -13 -19 2 -28 -1 -28 -11
0 -9 -9 -12 -30 -8 -16 3 -30 1 -30 -4 0 -13 -48 -61 -60 -61 -6 0 -10 5 -10
10 0 6 5 10 12 10 6 0 9 3 6 6 -7 6 -78 -22 -78 -31 0 -3 5 -3 12 1 7 4 8 3 4
-4 -9 -15 -36 -16 -36 -2 0 6 -10 9 -22 9 -17 -1 -19 -2 -5 -6 23 -6 22 -15
-4 -31 -12 -8 -18 -9 -14 -3 3 6 1 11 -5 11 -7 0 -14 -9 -17 -20 -4 -13 -17
-22 -42 -26 -20 -3 -51 -15 -68 -25 -18 -10 -52 -23 -75 -30 -24 -6 -46 -16
-50 -22 -9 -15 -90 -9 -103 7 -13 16 -35 9 -35 -12 0 -14 -1 -14 -12 0 -7 8
-20 18 -29 21 -21 7 -99 -31 -99 -48 0 -15 -44 -29 -48 -15 -6 17 -19 11 -25
-11 -4 -16 -11 -19 -27 -14 -14 4 -28 1 -41 -11 -18 -16 -19 -16 -13 -1 4 12
1 17 -11 17 -9 0 -15 -5 -13 -12 7 -19 -31 -50 -65 -53 -47 -4 -88 -16 -125
-37 -18 -10 -48 -18 -66 -18 -18 0 -39 -6 -45 -14 -8 -10 -28 -14 -57 -12 -35
2 -50 -2 -70 -21 -14 -13 -33 -23 -42 -23 -9 0 -26 -7 -36 -15 -25 -19 -40
-19 -32 0 4 10 -1 15 -14 15 -11 0 -20 -4 -20 -10 0 -5 -6 -7 -14 -4 -8 3 -17
1 -21 -5 -3 -6 -21 -11 -40 -11 -20 0 -41 -8 -52 -19 -43 -45 -123 -63 -123
-27 0 7 -8 21 -18 32 -16 16 -33 57 -36 86 -1 3 -4 10 -8 14 -4 4 -5 17 -2 29
4 15 -1 29 -14 41 -10 11 -22 32 -26 47 -6 26 -10 28 -39 21 -18 -3 -34 -10
-37 -14 -3 -4 -18 -9 -34 -12 -25 -5 -30 -1 -42 29 -8 18 -12 38 -9 43 10 16
-34 22 -50 6 -13 -13 -13 -16 1 -30 8 -9 11 -16 5 -16 -12 0 -15 -39 -3 -56 4
-6 16 -14 26 -17 21 -8 17 -17 -10 -21 -23 -3 -31 -26 -10 -26 20 0 21 -14 1
-30 -18 -15 -10 -31 12 -23 18 7 16 2 -12 -44 -11 -18 -26 -33 -32 -33 -7 0
-13 -4 -13 -9 0 -5 6 -11 13 -14 20 -7 -1 -20 -33 -19 -16 0 -32 -4 -35 -9 -4
-5 -26 -9 -51 -9 -25 0 -44 -5 -44 -11 0 -6 -7 -9 -14 -6 -10 4 -13 1 -10 -8
4 -9 -1 -13 -13 -11 -10 2 -12 1 -5 -1 7 -3 10 -12 7 -23 -4 -12 2 -25 17 -37
49 -40 67 -78 62 -128 -2 -26 -10 -57 -16 -69 -7 -11 -13 -25 -14 -31 0 -5 -2
-14 -4 -20 -2 -5 -4 -17 -5 -25 -1 -8 -11 -35 -22 -60 -12 -25 -23 -51 -25
-59 -7 -31 -37 -51 -68 -45 -16 4 -30 13 -30 20 0 8 -8 14 -17 14 -10 0 -27 3
-39 6 -15 4 -23 -1 -32 -21 -9 -20 -18 -25 -41 -23 -19 1 -27 7 -24 15 3 7 0
13 -6 13 -6 0 -11 -4 -11 -10 0 -5 -7 -10 -15 -10 -9 0 -12 6 -9 15 9 21 -23
19 -34 -2 -9 -18 -11 -53 -17 -243 -2 -52 -4 -106 -5 -120 -4 -33 18 -248 25
-261 4 -5 2 -9 -3 -9 -5 0 -9 -12 -9 -26 0 -15 -6 -30 -13 -34 -11 -7 -11 -14
-1 -37 7 -16 14 -64 16 -106 4 -64 2 -77 -11 -77 -14 0 -14 -2 -1 -15 18 -17
24 -209 7 -220 -6 -3 -8 -11 -5 -16 3 -5 -8 -17 -24 -27 -37 -22 -87 -18 -102
9 -5 11 -14 17 -20 14 -5 -4 -9 6 -9 21 0 22 -2 25 -15 14 -9 -7 -22 -9 -32
-4 -10 4 -20 8 -23 8 -3 1 -12 6 -20 11 -8 6 -24 15 -35 21 -11 6 -19 16 -18
22 2 6 -3 9 -11 6 -14 -5 -46 20 -46 38 0 5 -12 7 -29 3 -26 -6 -29 -4 -24 14
4 15 1 21 -11 21 -9 0 -16 5 -16 11 0 8 -4 8 -14 0 -18 -15 -59 7 -51 26 2 8
-4 13 -15 13 -10 0 -22 5 -25 10 -3 6 -16 10 -27 10 -25 0 -58 27 -58 47 0 8
-4 12 -8 9 -5 -3 -28 1 -53 8 -32 10 -44 18 -44 32 0 25 -17 42 -41 41 -41 0
-55 3 -49 13 3 5 -1 10 -10 10 -9 0 -19 9 -22 21 -5 16 -11 19 -34 14 -16 -4
-29 -2 -29 3 0 5 -18 14 -40 21 -22 6 -40 16 -40 21 0 6 -7 10 -16 10 -9 0
-27 11 -40 26 -13 14 -24 20 -24 15 0 -6 -7 -11 -16 -11 -8 0 -13 4 -10 9 3 5
-1 14 -9 21 -8 7 -15 9 -15 4 0 -4 -9 1 -20 12 -31 31 -49 44 -59 44 -5 0 -11
12 -13 28 -2 19 -8 26 -20 24 -10 -2 -18 1 -18 7 0 15 -79 91 -95 91 -8 0 -15
7 -15 15 0 8 -5 15 -10 15 -6 0 -9 6 -8 13 2 6 -3 11 -10 9 -6 -1 -12 3 -12 8
0 6 -12 15 -26 20 -14 6 -23 14 -19 20 3 5 -3 18 -13 28 -10 10 -17 23 -15 29
4 12 -31 36 -39 27 -8 -7 -68 55 -68 71 0 7 -9 15 -20 18 -11 3 -25 19 -31 36
-9 25 -14 29 -24 21 -10 -9 -16 -6 -25 9 -6 12 -15 21 -21 21 -5 0 -26 16 -45
35 -25 26 -33 41 -29 55 4 11 2 20 -3 20 -6 0 -12 -5 -14 -11 -4 -13 -22 2
-48 40 -8 11 -20 21 -27 21 -7 0 -13 9 -13 20 0 11 -7 20 -15 20 -7 0 -18 6
-22 13 -4 8 -16 17 -26 20 -10 4 -16 11 -13 16 10 16 -34 61 -61 61 -18 0 -24
4 -19 15 3 10 -1 15 -12 15 -9 0 -23 9 -30 20 -7 12 -24 25 -37 30 -14 5 -25
17 -25 26 0 11 -6 15 -19 11 -15 -3 -23 3 -32 27 -16 41 -48 76 -70 76 -9 0
-22 7 -29 15 -7 8 -19 15 -26 15 -8 0 -14 7 -14 15 0 8 -7 15 -17 15 -9 0 -13
3 -10 6 4 4 -2 15 -14 25 -14 12 -16 18 -7 22 7 3 -1 6 -17 6 -26 1 -33 7 -43
34 -13 35 -64 72 -88 63 -8 -3 -14 0 -14 8 0 8 -7 16 -15 20 -8 3 -15 12 -15
19 0 7 -11 20 -25 27 -14 7 -25 22 -25 31 0 12 -10 21 -27 25 -26 7 -77 54
-113 104 -8 12 -24 22 -34 24 -12 2 -25 19 -36 46 -15 38 -18 41 -27 25 -12
-21 -37 -11 -29 12 4 10 -4 18 -24 26 -16 6 -30 15 -30 19 0 4 -9 8 -20 8 -11
0 -25 9 -32 20 -7 11 -18 20 -25 20 -7 0 -22 20 -34 45 -12 25 -27 45 -35 45
-8 0 -14 4 -14 9 0 5 -20 18 -45 30 -25 12 -45 25 -45 30 0 13 -36 51 -50 51
-7 0 -27 9 -45 20 -26 16 -31 25 -27 46 3 19 1 25 -7 20 -6 -4 -11 -13 -11
-21 0 -8 -7 -18 -15 -23 -29 -16 3 -97 34 -87 12 3 21 0 25 -10 3 -8 12 -15
20 -15 8 0 17 -13 21 -29 6 -28 59 -91 76 -91 5 0 18 -9 29 -20 11 -11 27 -20
36 -20 9 0 25 -11 36 -25 11 -14 28 -25 38 -25 11 0 26 -13 35 -30 9 -17 22
-30 30 -30 20 0 39 -37 22 -43 -8 -4 -7 -6 3 -6 14 -1 59 -41 124 -110 16 -17
35 -31 42 -31 8 0 11 -6 8 -15 -4 -8 -1 -15 5 -15 6 0 11 5 11 11 0 6 9 1 20
-12 12 -15 19 -19 20 -10 0 20 60 -48 60 -69 0 -11 12 -22 30 -29 17 -5 30
-15 30 -20 0 -6 8 -11 18 -11 14 0 15 -2 2 -10 -13 -8 -12 -10 3 -10 9 0 17
-6 17 -14 0 -7 15 -21 33 -29 17 -9 40 -29 50 -46 10 -17 22 -31 27 -31 5 0
17 -15 26 -33 10 -17 19 -27 21 -20 7 20 34 2 28 -18 -4 -11 -2 -19 4 -19 6 0
11 -6 11 -14 0 -8 14 -18 31 -21 23 -5 28 -10 18 -16 -10 -6 -6 -11 15 -19 38
-14 75 -51 69 -67 -3 -7 1 -13 9 -13 8 0 20 -11 27 -24 13 -24 50 -46 76 -46
7 0 21 -18 31 -40 11 -25 24 -40 36 -40 11 0 23 -13 32 -35 10 -22 22 -35 33
-35 10 0 25 -9 33 -19 7 -11 17 -18 22 -15 4 3 8 -2 8 -11 0 -8 7 -18 15 -21
8 -4 15 -12 15 -20 0 -8 7 -14 15 -14 18 0 19 -11 3 -29 -11 -11 -10 -13 2 -9
13 4 60 -33 60 -47 0 -3 -10 -19 -22 -35 -15 -21 -25 -27 -37 -20 -9 4 -29 6
-44 3 -20 -4 -27 -1 -27 10 0 15 -56 47 -84 47 -9 0 -16 8 -16 18 0 26 -9 33
-29 20 -14 -9 -24 -5 -50 21 -18 17 -36 29 -42 26 -5 -4 -9 -1 -9 4 0 6 -7 11
-16 11 -9 0 -18 9 -21 20 -3 11 -10 20 -17 19 -27 -5 -98 32 -104 53 -2 10 -8
15 -13 13 -4 -3 -17 3 -29 15 -11 11 -27 20 -36 20 -10 0 -14 6 -10 15 3 10
-3 17 -19 21 -14 3 -23 9 -20 14 5 7 -26 25 -62 35 -13 4 -23 13 -23 21 0 8
-7 14 -15 14 -8 0 -19 9 -25 20 -6 11 -16 19 -23 18 -19 -4 -125 84 -144 119
-13 24 -25 33 -43 33 -20 0 -22 2 -10 10 9 6 10 10 3 10 -6 0 -15 9 -18 21 -4
11 -20 25 -36 31 -16 5 -26 14 -23 20 4 6 -1 8 -15 3 -16 -5 -20 -3 -15 8 3 8
-2 17 -10 20 -9 4 -16 14 -16 22 0 9 -4 14 -8 11 -5 -3 -19 6 -30 19 -12 14
-28 25 -35 25 -6 0 -18 9 -25 20 -7 11 -19 20 -27 20 -8 0 -15 7 -15 16 0 10
-6 14 -15 10 -8 -3 -14 -2 -14 2 5 28 -5 44 -36 57 -44 18 -56 30 -78 78 -10
20 -24 37 -31 37 -8 0 -16 7 -20 15 -3 8 -12 15 -20 15 -9 0 -13 6 -11 13 7
18 -15 39 -65 64 -34 17 -49 31 -58 57 -7 20 -22 38 -34 42 -21 6 -21 7 3 20
l24 13 -23 1 c-38 0 -76 29 -101 76 -13 24 -33 46 -45 50 -11 4 -34 16 -51 28
-16 11 -31 20 -32 18 -11 -10 -48 3 -68 24 -26 28 -34 84 -12 84 9 0 8 3 -2 9
-17 11 -5 32 14 24 8 -3 15 -1 15 5 0 15 64 35 150 46 7 1 57 37 95 69 18 15
37 27 41 27 5 0 20 14 33 30 15 19 33 30 50 31 14 0 40 9 56 19 17 11 45 26
63 35 19 8 36 24 39 35 3 11 14 20 24 20 33 0 89 28 89 44 0 9 11 18 24 22 13
3 27 15 30 27 5 19 8 20 16 7 8 -12 10 -11 10 6 0 16 7 21 29 22 16 0 51 16
79 36 51 37 72 44 72 25 0 -8 5 -8 15 1 8 7 15 18 15 25 0 7 12 16 26 19 15 4
33 13 40 21 8 7 23 11 34 8 13 -3 22 1 26 12 5 11 14 15 30 11 16 -4 31 1 50
19 15 14 35 25 44 25 10 0 21 10 25 23 4 13 8 17 12 10 10 -25 48 -14 61 17 8
16 19 30 26 30 7 0 21 9 31 20 10 11 26 20 37 20 10 0 18 7 18 15 0 8 6 15 13
15 13 0 30 12 77 52 19 17 60 38 73 38 5 0 23 14 39 30 16 17 39 30 52 30 16
0 27 7 31 20 5 15 12 19 25 15 13 -4 20 0 25 15 4 12 9 19 12 17 2 -3 13 3 24
14 10 10 28 19 40 19 11 0 29 10 40 23 11 13 18 17 19 9 0 -9 8 -7 26 7 15 11
30 18 35 15 13 -8 56 29 51 44 -2 8 7 12 28 12 23 0 33 5 37 19 3 11 17 21 34
25 17 3 29 12 29 21 0 8 7 15 15 15 7 0 19 8 24 18 10 16 10 16 11 0 0 -24 16
-23 42 2 12 11 27 19 32 18 22 -3 67 23 101 57 19 20 39 34 45 30 5 -3 10 -2
10 4 0 5 19 12 41 16 29 5 38 10 28 16 -12 7 -11 9 1 10 8 1 18 1 23 0 4 0 7
5 7 13 0 9 7 12 18 9 13 -3 22 4 30 22 7 14 17 23 22 20 6 -3 10 -3 10 2 0 10
57 43 74 43 7 0 21 9 31 20 10 11 24 20 31 20 7 0 17 8 23 17 7 14 12 15 24 5
17 -15 24 -8 37 36 l8 27 10 -25 11 -25 7 23 c3 12 10 22 16 22 5 0 18 9 30
20 12 11 27 20 34 20 7 0 16 9 19 20 10 31 44 58 66 53 10 -3 19 -1 19 4 0 5
11 15 25 21 14 7 30 23 37 37 6 14 20 25 30 25 22 0 41 16 51 44 4 11 13 16
22 12 10 -4 15 1 15 15 0 15 5 19 16 15 18 -7 87 41 78 55 -3 5 13 17 36 26
22 10 43 25 45 34 3 10 17 20 31 23 16 4 24 13 22 24 -2 12 5 18 25 20 18 2
32 12 39 28 11 24 58 54 85 54 7 0 13 6 13 13 0 16 33 49 46 46 17 -4 69 25
96 53 15 15 31 28 35 28 14 0 111 99 118 120 4 12 12 17 22 13 13 -5 15 0 11
24 -4 30 -3 31 44 35 27 3 57 13 68 23 14 13 28 16 50 11 17 -3 29 -2 26 3 -6
9 33 44 55 49 7 2 17 9 21 15 15 24 20 -4 8 -45 -7 -24 -14 -62 -17 -85 -3
-24 -9 -43 -14 -43 -5 0 -9 -15 -9 -34 0 -19 -4 -37 -9 -41 -11 -6 -7 -147 4
-166 5 -8 4 -10 -3 -5 -7 4 -12 0 -13 -11 0 -10 -3 -34 -5 -53 -2 -19 -6 -148
-8 -285 -2 -172 -7 -258 -15 -273 -10 -19 -10 -26 0 -38 9 -11 9 -18 2 -22
-15 -10 -27 -92 -38 -247 -3 -49 -10 -115 -16 -145 -6 -30 -14 -71 -18 -90 -8
-45 -36 -96 -57 -104 -9 -4 -14 -9 -11 -12 3 -3 -5 -16 -17 -28 -41 -38 -41
-61 -1 -85 20 -11 47 -24 60 -27 14 -3 25 -10 25 -15 0 -5 11 -4 25 3 18 8 32
8 55 -2 20 -8 34 -9 43 -3 19 15 56 22 63 12 8 -14 24 -11 24 6 0 9 6 12 15 9
9 -4 15 0 15 10 0 9 5 16 11 16 6 0 8 -7 5 -15 -5 -13 0 -15 32 -9 39 7 55 21
47 41 -4 13 37 27 118 38 26 3 45 10 42 16 -3 5 1 6 9 3 10 -4 16 -1 16 9 0
20 38 29 179 43 36 4 71 13 79 20 7 8 20 14 27 14 8 0 21 10 29 22 14 20 20
18 18 -4 -2 -11 83 4 99 19 9 7 23 11 31 8 18 -7 94 31 108 54 8 14 9 14 10 0
0 -14 7 -15 64 -4 71 14 86 20 86 40 0 17 31 28 43 16 7 -7 19 0 36 20 26 29
43 34 129 38 13 1 22 7 22 17 0 8 5 12 10 9 6 -3 10 -2 10 4 0 5 17 15 38 22
20 6 43 16 49 21 7 6 19 8 28 5 8 -4 17 -2 20 4 4 5 10 7 15 4 5 -3 15 4 23
16 17 24 61 49 87 49 10 0 23 7 30 15 7 8 26 15 42 15 22 0 29 4 25 14 -8 20
3 27 24 15 12 -6 19 -6 19 0 0 14 86 59 126 67 20 4 38 13 41 20 3 8 13 14 24
14 27 0 72 22 87 43 7 9 18 15 23 11 5 -3 24 5 42 19 18 13 42 27 55 31 12 4
22 12 22 17 0 5 4 9 9 9 5 0 26 8 47 17 45 19 47 20 74 22 11 0 20 7 20 15 0
8 6 16 13 20 6 3 30 17 52 31 48 30 48 30 109 46 30 7 50 19 53 29 3 9 20 23
39 30 19 8 34 16 34 19 0 16 71 52 89 46 14 -4 24 0 33 14 7 12 17 21 23 21 5
0 19 14 30 30 11 17 27 29 35 28 26 -3 64 13 82 36 14 16 20 18 27 8 6 -11 10
-9 14 7 3 12 13 21 24 21 10 1 34 9 53 20 19 10 45 24 58 29 13 6 20 15 17 21
-3 6 1 7 9 4 11 -4 16 0 16 11 0 14 3 15 14 6 11 -9 17 -8 28 7 7 10 31 27 52
38 32 15 51 34 62 62 1 1 10 4 20 6 38 8 75 34 104 75 17 22 37 41 45 41 22 0
97 49 90 60 -9 14 16 23 28 10 9 -10 9 -11 0 -6 -7 4 -13 2 -13 -3 0 -22 28
-10 34 14 6 24 19 30 58 27 11 -1 15 3 12 12 -6 16 31 40 46 31 6 -4 17 1 26
9 9 9 20 14 25 10 5 -3 17 8 26 24 18 31 92 82 121 82 13 0 14 2 4 9 -18 11
10 34 32 25 12 -4 15 -2 10 9 -4 10 0 15 12 14 11 -1 24 10 32 26 8 16 21 31
30 35 10 3 23 12 31 19 7 8 21 11 31 8 15 -5 17 -1 13 17 -3 16 -2 19 5 10 7
-11 10 -11 15 2 4 9 13 16 22 16 8 0 15 7 15 15 0 8 21 27 48 42 58 34 60 36
129 101 31 28 58 52 62 52 3 0 19 14 35 30 16 17 35 30 43 30 7 0 13 5 13 10
0 6 6 9 13 8 6 -2 11 2 10 9 -2 10 27 34 47 38 18 4 60 30 60 37 0 4 18 27 40
50 22 24 40 46 40 50 0 4 9 10 21 13 12 4 29 14 38 23 35 33 59 50 79 56 12 4
27 20 34 36 9 21 20 30 35 30 13 0 22 3 21 8 -4 14 27 52 43 52 9 0 20 7 23
16 3 8 10 13 14 10 5 -3 15 6 22 19 7 14 18 25 24 25 20 1 66 49 66 70 0 11 4
20 9 20 11 0 53 34 84 68 11 12 29 22 39 22 10 0 18 5 18 10 0 6 7 10 16 10
10 0 14 6 10 15 -5 15 11 36 50 62 13 8 24 22 24 29 0 8 6 14 14 14 7 0 16 9
19 20 3 12 14 20 27 20 12 0 24 8 26 18 3 9 19 25 36 35 19 11 28 23 25 32 -4
9 5 18 28 26 21 8 38 23 46 41 6 15 18 28 27 28 18 0 121 109 122 129 0 7 6
11 14 8 9 -4 17 2 21 13 3 10 15 22 26 25 10 4 19 11 19 16 0 5 9 9 21 9 15 0
19 5 15 18 -5 17 45 83 61 81 30 -5 41 4 47 35 7 37 26 58 47 53 8 -2 11 -2 7
0 -15 9 -7 26 25 57 19 17 42 44 51 59 10 15 23 27 28 27 6 0 27 16 47 35 20
19 38 34 41 33 12 -4 50 24 50 38 0 8 9 25 21 37 11 12 27 37 34 55 8 17 20
32 27 33 7 0 29 11 48 23 19 13 36 23 36 22 1 0 4 -17 8 -37z m-624 7 c0 -3
-4 -8 -10 -11 -5 -3 -10 -1 -10 4 0 6 5 11 10 11 6 0 10 -2 10 -4z m-10 -36
c0 -5 -7 -10 -15 -10 -8 0 -15 5 -15 10 0 6 7 10 15 10 8 0 15 -4 15 -10z
m910 0 c0 -5 -5 -10 -11 -10 -5 0 -7 5 -4 10 3 6 8 10 11 10 2 0 4 -4 4 -10z
m10 -62 c0 -4 -7 -8 -15 -8 -8 0 -15 4 -15 8 0 5 7 9 15 9 8 0 15 -4 15 -9z
m-50 -18 c0 -5 -4 -10 -10 -10 -5 0 -10 5 -10 10 0 6 5 10 10 10 6 0 10 -4 10
-10z m-420 -30 c0 -5 -5 -10 -11 -10 -5 0 -7 5 -4 10 3 6 8 10 11 10 2 0 4 -4
4 -10z m450 -10 c0 -5 -5 -10 -11 -10 -5 0 -7 5 -4 10 3 6 8 10 11 10 2 0 4
-4 4 -10z m-1286 -189 c-20 -22 -27 -7 -19 36 l7 38 13 -30 c10 -25 10 -33 -1
-44z m54 51 c3 -9 -3 -13 -19 -10 -12 1 -24 9 -27 16 -3 9 3 13 19 10 12 -1
24 -9 27 -16z m40 -17 c-3 -3 -9 2 -12 12 -6 14 -5 15 5 6 7 -7 10 -15 7 -18z
m-128 -65 c0 -5 -4 -10 -10 -10 -5 0 -10 5 -10 10 0 6 5 10 10 10 6 0 10 -4
10 -10z m40 -20 c11 -11 17 -20 13 -20 -11 1 -43 26 -43 34 0 11 9 7 30 -14z
m20 -50 c0 -5 -4 -10 -10 -10 -5 0 -10 5 -10 10 0 6 5 10 10 10 6 0 10 -4 10
-10z m-260 -19 c0 -6 -4 -12 -8 -15 -5 -3 -9 1 -9 9 0 8 4 15 9 15 4 0 8 -4 8
-9z m-240 -91 c0 -5 -5 -10 -11 -10 -5 0 -7 5 -4 10 3 6 8 10 11 10 2 0 4 -4
4 -10z m1020 -280 c0 -5 -4 -10 -10 -10 -5 0 -10 5 -10 10 0 6 5 10 10 10 6 0
10 -4 10 -10z m980 -40 c0 -5 6 -9 13 -7 6 1 12 -4 11 -10 -3 -38 -5 -42 -19
-37 -9 4 -16 -3 -21 -20 -3 -14 -11 -26 -16 -26 -6 0 -8 -7 -5 -15 4 -8 1 -17
-4 -21 -6 -3 -9 -17 -6 -30 2 -14 0 -21 -6 -17 -6 3 -15 0 -21 -8 -6 -8 -23
-20 -39 -28 -20 -11 -24 -17 -15 -23 10 -6 10 -8 1 -8 -7 0 -22 -9 -33 -20
-11 -11 -27 -20 -35 -20 -13 0 -13 3 -3 20 7 11 16 20 21 20 4 0 5 4 2 10 -3
5 6 25 20 44 15 19 26 36 25 38 -6 13 24 61 41 65 13 4 18 11 14 21 -3 8 3 20
12 27 17 13 17 14 -1 34 -19 21 -19 21 22 21 23 0 42 -4 42 -10z m-160 -300
c0 -5 -5 -10 -11 -10 -5 0 -7 5 -4 10 3 6 8 10 11 10 2 0 4 -4 4 -10z m-760
-220 c0 -5 -10 -10 -22 -9 -22 0 -22 1 -3 9 11 5 21 9 23 9 1 1 2 -3 2 -9z
m350 -100 c0 -5 -5 -10 -11 -10 -5 0 -7 5 -4 10 3 6 8 10 11 10 2 0 4 -4 4
-10z m10 -46 c0 -8 -5 -12 -10 -9 -6 4 -8 11 -5 16 9 14 15 11 15 -7z m57
-156 c-3 -8 -6 -5 -6 6 -1 11 2 17 5 13 3 -3 4 -12 1 -19z m-277 -134 c0 -2
-7 -4 -15 -4 -8 0 -15 4 -15 10 0 5 7 7 15 4 8 -4 15 -8 15 -10z m-6074 -158
c8 -8 14 -26 14 -40 0 -14 5 -27 10 -27 6 -1 15 -3 20 -4 6 -1 13 -3 17 -4 4
0 -5 -12 -20 -26 -18 -17 -27 -36 -27 -55 0 -30 -15 -41 -22 -18 -3 9 -9 8
-22 -4 -9 -10 -24 -14 -32 -11 -9 3 -20 0 -26 -8 -7 -10 -8 -9 -3 6 4 11 7 29
7 40 -1 10 3 24 9 31 5 6 10 31 12 55 2 36 5 43 20 41 11 -2 17 4 17 18 0 24
6 25 26 6z m6089 -16 c3 -5 1 -10 -4 -10 -6 0 -11 5 -11 10 0 6 2 10 4 10 3 0
8 -4 11 -10z m-2923 -118 c-7 -2 -18 -10 -26 -17 -7 -8 -16 -12 -19 -9 -2 3
-17 -9 -33 -26 -21 -21 -38 -30 -61 -30 -18 0 -33 -4 -33 -10 0 -5 -7 -10 -15
-10 -27 0 -16 35 15 48 17 8 28 17 25 22 -7 12 25 36 83 61 28 12 52 28 53 33
1 6 6 -4 12 -23 8 -26 8 -36 -1 -39z m2888 44 c0 -3 -4 -8 -10 -11 -5 -3 -10
-1 -10 4 0 6 5 11 10 11 6 0 10 -2 10 -4z m-6255 -106 c13 10 19 10 33 -3 29
-27 21 -65 -19 -85 -19 -9 -34 -22 -34 -29 0 -20 -14 -26 -29 -14 -12 10 -17
8 -26 -9 -8 -15 -18 -20 -31 -17 -14 4 -19 0 -19 -14 0 -16 -5 -18 -37 -13
-21 3 -41 8 -45 11 -5 2 -8 -1 -8 -6 0 -6 -7 -11 -15 -11 -19 0 -20 26 0 33 8
4 21 21 29 40 7 19 24 42 37 51 13 9 18 16 10 16 -7 0 6 16 29 35 45 38 56 42
64 23 3 -9 9 -7 17 6 12 19 12 19 21 -3 7 -19 11 -21 23 -11z m6150 -39 c3 -5
1 -12 -5 -16 -5 -3 -10 1 -10 9 0 18 6 21 15 7z m-3025 -39 c0 -10 -38 -42
-50 -42 -13 0 -13 17 0 25 6 4 8 11 5 16 -4 5 5 9 19 9 14 0 26 -3 26 -8z
m-3290 -132 c0 -5 -7 -7 -15 -4 -8 4 -15 8 -15 10 0 2 7 4 15 4 8 0 15 -4 15
-10z m5697 -126 c-9 -9 -28 6 -21 18 4 6 10 6 17 -1 6 -6 8 -13 4 -17z m-39
-42 c2 -7 -4 -15 -13 -18 -20 -8 -27 -1 -19 20 7 18 25 17 32 -2z m-28 -57 c0
-8 -4 -15 -10 -15 -5 0 -7 7 -4 15 4 8 8 15 10 15 2 0 4 -7 4 -15z m-2320
-126 c0 -5 -9 -9 -20 -9 -22 0 -27 16 -7 23 15 5 27 -1 27 -14z m-155 -67 c0
-18 -20 -15 -23 4 -3 10 1 15 10 12 7 -3 13 -10 13 -16z m2468 -84 c5 -14 -18
-65 -39 -86 -8 -7 -14 -20 -14 -27 0 -8 -9 -17 -20 -20 -11 -3 -20 -10 -20
-15 0 -5 -11 -20 -24 -35 -17 -18 -31 -24 -52 -21 -16 2 -22 1 -12 -1 27 -7
30 -33 5 -43 -12 -6 -33 -18 -47 -29 -14 -10 -38 -22 -55 -25 -26 -6 -28 -5
-13 7 9 7 19 24 23 38 3 14 22 42 41 63 19 20 34 44 34 52 0 8 11 20 25 26 23
10 29 20 23 33 -2 2 7 12 20 20 12 9 22 24 22 33 0 15 2 15 10 2 5 -8 10 -10
10 -4 0 6 15 18 33 27 40 20 44 20 50 5z m-363 -28 c0 -5 -4 -10 -10 -10 -5 0
-10 5 -10 10 0 6 5 10 10 10 6 0 10 -4 10 -10z m-6730 -220 c0 -5 -4 -10 -10
-10 -5 0 -10 5 -10 10 0 6 5 10 10 10 6 0 10 -4 10 -10z m7237 -30 c-1 -16 -6
-30 -10 -30 -12 0 -37 -27 -37 -39 0 -6 -5 -11 -11 -11 -16 0 -38 -31 -39 -52
0 -9 -10 -18 -22 -20 -13 -2 -27 -13 -33 -25 -5 -12 -19 -26 -31 -32 -12 -5
-28 -26 -35 -45 -7 -20 -18 -37 -24 -37 -5 -1 -18 -2 -29 -3 -13 -1 -23 -16
-36 -56 -13 -42 -19 -51 -25 -37 -7 16 -10 15 -31 -9 -28 -29 -94 -44 -94 -20
0 8 -6 17 -12 20 -9 3 -8 8 5 16 9 6 17 16 17 22 0 6 8 17 18 24 10 8 12 13 5
14 -23 0 -13 15 17 27 22 8 32 20 37 43 3 17 13 34 22 38 19 7 71 59 71 71 0
5 10 11 23 15 12 3 38 21 58 41 20 19 58 44 83 56 25 11 46 25 46 31 0 6 9 8
20 5 13 -3 20 0 20 9 0 8 7 14 15 14 10 0 14 -9 12 -30z m-7427 -200 c0 -5 -4
-10 -10 -10 -5 0 -10 5 -10 10 0 6 5 10 10 10 6 0 10 -4 10 -10z m7307 4 c-3
-3 -12 -4 -19 -1 -8 3 -5 6 6 6 11 1 17 -2 13 -5z m-7392 -44 c3 -5 2 -10 -4
-10 -5 0 -13 5 -16 10 -3 6 -2 10 4 10 5 0 13 -4 16 -10z m-5 -24 c0 -3 -4 -8
-10 -11 -5 -3 -10 -1 -10 4 0 6 5 11 10 11 6 0 10 -2 10 -4z m-97 -51 c1 -5
-7 -11 -18 -14 -11 -2 -25 -11 -32 -20 -12 -14 -12 -14 -6 4 3 11 11 26 16 33
11 14 37 12 40 -3z m-83 -56 c0 -6 -7 -8 -15 -5 -9 3 -18 -1 -21 -9 -8 -19
-34 -20 -34 -1 0 13 17 20 58 25 6 0 12 -4 12 -10z m-90 -59 c0 -5 -4 -10 -9
-10 -6 0 -13 5 -16 10 -3 6 1 10 9 10 9 0 16 -4 16 -10z m7294 -25 c5 -25 3
-40 -8 -50 -19 -19 -50 -19 -66 0 -7 8 -8 15 -3 15 6 0 21 16 34 35 13 19 27
35 30 35 4 0 10 -16 13 -35z m16 -249 c0 -3 -4 -8 -10 -11 -5 -3 -10 -1 -10 4
0 6 5 11 10 11 6 0 10 -2 10 -4z m-8480 -313 c0 -20 -16 -8 -23 17 -4 17 -3
19 9 9 8 -6 14 -18 14 -26z m237 -18 c2 -6 -3 -19 -11 -30 -12 -16 -16 -17
-29 -6 -9 7 -22 9 -28 5 -8 -4 -9 -3 -5 4 4 7 16 12 28 12 14 0 18 5 14 16 -4
11 -1 14 11 12 9 -2 18 -8 20 -13z m-207 -20 c0 -16 -41 -46 -66 -48 -20 -2
-29 -8 -28 -20 1 -9 -2 -17 -7 -17 -5 0 -9 -7 -9 -15 0 -8 -4 -15 -10 -15 -5
0 -10 6 -10 14 0 7 -10 13 -22 12 -17 -1 -25 -10 -33 -40 -7 -22 -18 -42 -26
-44 -8 -3 -20 -13 -27 -24 -7 -10 -20 -18 -28 -18 -8 0 -14 -4 -14 -10 0 -5
-11 -10 -24 -10 -25 0 -51 -22 -39 -34 4 -4 -13 -5 -37 -2 -29 3 -40 2 -31 -4
23 -14 -27 -22 -64 -11 -16 5 -22 10 -13 10 9 1 18 11 20 24 2 14 15 27 36 36
17 8 32 19 32 24 0 12 26 37 39 37 6 0 13 11 17 25 4 14 9 24 12 21 3 -3 11
-1 18 5 7 6 26 11 43 11 28 1 46 18 19 18 -6 0 -9 2 -7 4 2 2 23 1 46 -3 37
-7 43 -6 54 16 12 22 38 29 92 25 9 -1 17 5 17 12 0 14 14 24 38 25 6 1 12 -1
12 -4z m125 -35 c3 -5 -3 -10 -15 -10 -12 0 -18 5 -15 10 3 6 10 10 15 10 5 0
12 -4 15 -10z m-497 -61 c-2 -6 -8 -10 -13 -10 -5 0 -11 4 -13 10 -2 6 4 11
13 11 9 0 15 -5 13 -11z m-968 -379 c-8 -16 -8 -22 3 -26 8 -3 23 -26 32 -52
10 -26 21 -51 26 -56 5 -5 -3 -20 -17 -33 -25 -23 -27 -23 -53 -7 -42 27 -59
49 -71 93 -8 32 -16 41 -33 42 -15 1 -10 5 18 14 22 8 36 14 32 14 -21 2 22
30 46 31 25 0 27 -2 17 -20z m8480 -130 c0 -5 -2 -10 -4 -10 -3 0 -8 5 -11 10
-3 6 -1 10 4 10 6 0 11 -4 11 -10z m-7923 -147 c-3 -10 -5 -4 -5 12 0 17 2 24
5 18 2 -7 2 -21 0 -30z m770 -249 c-3 -3 -12 -4 -19 -1 -8 3 -5 6 6 6 11 1 17
-2 13 -5z m3651 -315 c-2 -6 -8 -10 -13 -10 -5 0 -11 4 -13 10 -2 6 4 11 13
11 9 0 15 -5 13 -11z m-4188 -129 c0 -5 -4 -10 -10 -10 -5 0 -10 5 -10 10 0 6
5 10 10 10 6 0 10 -4 10 -10z m4340 -50 c0 -5 -7 -10 -15 -10 -8 0 -15 5 -15
10 0 6 7 10 15 10 8 0 15 -4 15 -10z m-80 -20 c0 -5 -4 -10 -10 -10 -5 0 -10
5 -10 10 0 6 5 10 10 10 6 0 10 -4 10 -10z m-3090 -34 c0 -3 -4 -8 -10 -11 -5
-3 -10 -1 -10 4 0 6 5 11 10 11 6 0 10 -2 10 -4z m4141 -34 c16 10 23 10 26 1
2 -7 10 -10 18 -7 7 3 16 0 20 -5 3 -6 10 -9 15 -6 5 3 12 0 16 -6 4 -8 3 -9
-4 -5 -8 5 -13 -4 -14 -26 0 -18 -2 -46 -2 -61 -2 -29 -19 -47 -47 -47 -9 0
-19 -6 -22 -14 -5 -11 -18 -16 -82 -31 -28 -6 -55 -18 -55 -24 0 -4 -18 -7
-40 -8 -21 -1 -50 -9 -64 -19 -16 -10 -35 -14 -49 -10 -14 3 -32 -1 -43 -9
-38 -29 -63 -5 -29 29 8 8 15 19 15 25 0 5 10 11 22 13 13 2 22 11 24 25 3 19
0 21 -27 16 -24 -3 -29 -1 -23 9 14 24 49 43 73 39 17 -2 22 1 18 12 -3 7 -2
18 1 23 13 17 63 34 103 34 26 0 42 5 45 15 4 8 14 15 24 15 10 0 21 7 24 16
5 13 9 14 20 5 11 -9 20 -9 37 1z m-811 -22 c0 -5 -2 -10 -4 -10 -3 0 -8 5
-11 10 -3 6 -1 10 4 10 6 0 11 -4 11 -10z m-4520 -130 c0 -5 -7 -7 -15 -4 -8
4 -15 8 -15 10 0 2 7 4 15 4 8 0 15 -4 15 -10z m4917 -5 c2 -5 -5 -11 -15 -11
-9 -1 -24 -2 -32 -3 -13 -1 -13 -2 0 -12 12 -8 11 -9 -6 -4 -14 3 -24 0 -27
-8 -3 -9 -16 -12 -36 -9 -27 4 -30 2 -24 -14 5 -13 3 -16 -9 -11 -10 3 -18 -1
-21 -12 -5 -22 -84 -36 -105 -19 -10 9 -14 6 -19 -10 -6 -25 -18 -28 -27 -7
-3 9 0 15 10 15 10 0 14 6 11 14 -3 7 7 23 24 35 23 17 29 19 29 6 0 -13 4
-13 35 2 19 9 35 20 35 25 0 4 6 5 14 2 8 -3 17 -1 21 5 4 8 12 8 26 1 13 -8
19 -7 19 0 0 22 92 36 97 15z m-4522 -104 c-3 -6 -11 -8 -17 -5 -6 4 -5 9 3
15 16 10 23 4 14 -10z m4524 -22 c-15 -9 -32 -2 -24 11 3 5 13 6 21 3 12 -4
13 -8 3 -14z m-578 -81 c4 -45 -6 -56 -31 -33 -25 22 -25 32 -2 38 29 8 32 7
33 -5z m-78 -35 c-7 -2 -19 -2 -25 0 -7 3 -2 5 12 5 14 0 19 -2 13 -5z m-505
-302 c10 -17 10 -26 1 -37 -8 -10 -8 -14 0 -14 6 0 11 -13 11 -29 0 -17 4 -32
9 -35 17 -11 36 -186 20 -186 -5 0 -9 -9 -9 -21 0 -11 -4 -17 -10 -14 -5 3
-15 -5 -22 -19 -13 -30 -25 -32 -54 -8 -24 19 -38 75 -25 100 5 9 5 38 1 65
-4 26 -4 67 0 92 4 24 4 49 0 56 -8 12 9 78 24 95 11 11 31 -6 54 -45z m-1788
-29 c0 -4 12 -20 27 -37 15 -16 28 -35 29 -43 4 -21 14 -28 14 -9 0 9 5 17 11
17 5 0 9 -10 7 -22 -2 -14 2 -22 10 -20 18 3 15 -6 -12 -34 -15 -17 -26 -22
-30 -15 -4 6 -20 11 -36 11 -15 0 -30 7 -34 15 -3 8 -12 12 -21 9 -8 -4 -17 1
-21 10 -3 9 -12 16 -20 16 -15 0 -45 40 -38 51 2 4 0 10 -6 14 -16 10 -12 33
8 38 29 8 112 7 112 -1z m-154 -207 c4 -8 16 -15 29 -15 12 0 30 -9 40 -20 10
-12 25 -18 32 -16 7 3 13 1 13 -4 0 -18 33 -40 61 -40 16 0 38 -9 49 -20 11
-11 28 -20 38 -20 10 0 24 -6 30 -12 10 -10 15 -10 22 2 8 13 10 12 10 -2 0
-18 53 -52 63 -41 8 7 37 -22 37 -38 0 -10 3 -10 12 -1 16 16 29 15 27 0 -1
-7 -1 -25 0 -40 1 -21 5 -26 17 -21 9 3 12 8 5 12 -6 4 -6 12 -1 21 6 10 10 4
15 -23 8 -42 1 -57 -26 -57 -10 0 -19 -6 -19 -14 0 -12 7 -13 32 -5 24 6 36 5
48 -6 9 -8 23 -15 31 -15 8 0 26 -6 40 -14 16 -8 32 -10 40 -5 13 8 21 3 79
-53 15 -16 33 -28 39 -28 6 0 11 -7 11 -15 0 -8 9 -15 20 -15 11 0 19 -6 17
-12 -1 -7 3 -12 8 -11 6 1 11 -10 10 -25 0 -18 7 -30 21 -36 12 -5 30 -26 40
-45 10 -20 23 -39 27 -42 5 -3 8 -8 7 -10 -5 -14 16 -39 34 -39 19 -1 19 -2 4
-11 -26 -15 -22 -27 7 -21 20 3 25 0 25 -16 0 -12 8 -26 19 -31 10 -6 22 -22
25 -36 4 -14 14 -25 24 -26 9 0 28 -2 40 -3 29 -3 42 22 20 38 -9 6 -19 30
-23 54 -6 38 -5 43 16 51 26 9 59 3 59 -11 0 -5 5 -6 11 -3 6 4 13 -2 16 -14
3 -12 16 -24 29 -27 13 -3 24 -10 24 -15 0 -5 7 -9 15 -9 8 0 15 -5 15 -10 0
-17 37 -53 48 -46 11 7 52 -26 52 -43 0 -6 5 -11 10 -11 6 0 10 -9 10 -20 0
-16 7 -20 30 -20 17 0 30 -5 30 -11 0 -6 8 -8 18 -5 12 3 25 -7 45 -36 16 -22
37 -43 48 -45 10 -3 19 -9 19 -14 0 -5 7 -9 16 -9 16 0 44 -23 44 -37 0 -5 11
-25 25 -46 21 -30 25 -45 21 -87 -4 -47 -24 -94 -55 -133 -13 -16 -13 -19 -1
-27 8 -5 11 -12 7 -17 -5 -4 -11 -3 -15 3 -4 6 -17 16 -29 23 -18 9 -23 9 -23
-1 -1 -8 -8 -4 -18 8 -10 11 -30 24 -45 28 -18 4 -27 13 -27 26 0 10 -16 31
-35 46 -19 14 -35 33 -35 42 0 15 -45 62 -59 62 -11 0 -23 59 -14 73 4 6 0 8
-8 5 -8 -3 -23 -2 -34 3 -17 6 -17 8 -2 8 25 1 21 15 -8 31 -14 7 -25 18 -25
25 0 23 -26 65 -40 65 -9 0 -22 16 -29 36 -7 19 -20 38 -29 41 -10 4 -20 11
-24 17 -5 7 -8 7 -8 -1 0 -7 -7 -13 -15 -13 -22 0 -18 -26 5 -43 14 -10 22
-28 23 -53 2 -21 8 -39 15 -42 7 -2 12 -10 12 -18 0 -8 7 -14 15 -14 8 0 15
-6 15 -14 0 -8 13 -20 29 -27 20 -9 26 -16 18 -21 -9 -5 -7 -11 7 -21 11 -8
16 -19 12 -26 -5 -8 0 -14 13 -18 26 -7 26 -10 -1 -39 -28 -29 -48 -31 -48 -3
0 19 -2 20 -16 8 -14 -12 -16 -9 -13 26 2 26 -1 39 -8 38 -7 -2 -15 6 -18 17
-5 15 -13 18 -41 15 -32 -5 -34 -3 -34 25 0 23 -4 30 -20 30 -15 0 -22 9 -26
30 -4 16 -9 28 -13 26 -3 -2 -13 3 -21 12 -13 14 -12 15 2 9 12 -4 15 -2 11 9
-3 7 -16 14 -30 14 -16 0 -27 7 -30 20 -3 11 -8 20 -12 20 -17 0 -97 72 -136
123 -11 14 -25 26 -32 27 -7 0 -23 11 -37 25 -14 14 -30 25 -36 25 -5 0 -10 7
-10 15 0 8 -6 15 -14 15 -8 0 -18 9 -21 20 -3 11 -13 20 -22 20 -8 0 -17 9
-20 21 -4 15 -8 17 -14 8 -11 -18 -21 -5 -21 25 0 16 -5 23 -13 19 -8 -2 -18
4 -23 14 -6 10 -26 25 -46 33 -20 7 -38 21 -41 29 -3 9 -15 21 -27 26 -17 7
-24 20 -26 49 -3 38 -21 66 -41 66 -6 0 -11 8 -11 18 -1 26 -48 55 -87 54 -21
-1 -41 6 -53 18 -11 11 -26 20 -33 20 -7 0 -33 20 -59 45 -26 25 -50 45 -53
45 -3 0 -16 11 -29 25 -13 14 -27 25 -32 25 -17 1 -54 38 -54 54 0 9 -7 16
-15 16 -18 0 -20 35 -2 55 16 19 26 19 33 0z m164 -69 c0 -3 -4 -8 -10 -11 -5
-3 -10 -1 -10 4 0 6 5 11 10 11 6 0 10 -2 10 -4z m1749 -100 c10 -12 9 -14 -6
-11 -10 2 -24 4 -30 4 -7 1 -13 6 -13 11 0 15 36 12 49 -4z m-1379 -126 c0 -5
-4 -10 -10 -10 -5 0 -10 5 -10 10 0 6 5 10 10 10 6 0 10 -4 10 -10z m-170
-336 c0 -8 -4 -12 -10 -9 -5 3 -10 10 -10 16 0 5 5 9 10 9 6 0 10 -7 10 -16z
m1075 -294 c-3 -5 -12 -10 -18 -10 -7 0 -6 4 3 10 19 12 23 12 15 0z m-120
-240 c3 -5 1 -10 -4 -10 -6 0 -11 5 -11 10 0 6 2 10 4 10 3 0 8 -4 11 -10z
m-395 -44 c0 -2 -7 -6 -15 -10 -8 -3 -15 -1 -15 4 0 6 7 10 15 10 8 0 15 -2
15 -4z m40 -4 c0 -13 -12 -22 -22 -16 -10 6 -1 24 13 24 5 0 9 -4 9 -8z"/>
<path d="M13020 10060 c0 -5 5 -10 11 -10 5 0 7 5 4 10 -3 6 -8 10 -11 10 -2
0 -4 -4 -4 -10z"/>
<path d="M12802 9770 c0 -14 2 -19 5 -12 2 6 2 18 0 25 -3 6 -5 1 -5 -13z"/>
<path d="M12765 9770 c-8 -13 -1 -24 14 -19 6 3 7 10 2 18 -6 10 -10 10 -16 1z"/>
<path d="M12267 9059 c-12 -7 -15 -17 -11 -36 6 -20 4 -24 -7 -18 -8 5 -11 4
-6 0 4 -5 1 -18 -6 -29 -24 -37 -29 -76 -11 -83 8 -3 23 1 31 10 13 13 14 19
4 31 -10 12 -9 19 8 37 23 25 37 77 25 89 -5 5 -17 4 -27 -1z"/>
<path d="M12188 8933 c7 -3 16 -2 19 1 4 3 -2 6 -13 5 -11 0 -14 -3 -6 -6z"/>
<path d="M12147 8864 c-7 -8 17 -34 32 -34 17 0 13 27 -5 34 -19 7 -19 7 -27
0z"/>
<path d="M12164 8793 c-3 -10 -10 -29 -15 -42 -7 -16 -6 -28 1 -35 8 -8 9 -6
4 7 -4 12 -2 16 8 12 11 -5 15 4 16 35 2 42 -5 52 -14 23z"/>
<path d="M11205 6620 c-3 -5 -2 -10 4 -10 5 0 13 5 16 10 3 6 2 10 -4 10 -5 0
-13 -4 -16 -10z"/>
<path d="M10890 6740 c0 -5 5 -10 10 -10 6 0 10 5 10 10 0 6 -4 10 -10 10 -5
0 -10 -4 -10 -10z"/>
<path d="M10285 5765 c-3 -8 -7 -22 -10 -31 -3 -9 0 -14 6 -12 6 2 9 7 7 10
-2 4 6 13 16 21 17 13 17 14 2 20 -10 4 -19 1 -21 -8z"/>
<path d="M9570 4980 c0 -19 3 -21 12 -12 9 9 9 15 0 24 -9 9 -12 7 -12 -12z"/>
<path d="M9485 4959 c-4 -6 -1 -15 6 -20 10 -7 7 -9 -11 -8 -44 3 -60 -1 -60
-15 0 -7 8 -20 18 -27 9 -7 14 -9 10 -5 -9 11 10 36 26 36 6 0 4 -4 -4 -10 -8
-5 -11 -12 -7 -16 4 -4 18 4 31 17 21 21 22 27 11 42 -9 13 -15 15 -20 6z"/>
<path d="M9410 4870 c0 -5 5 -10 10 -10 6 0 10 5 10 10 0 6 -4 10 -10 10 -5 0
-10 -4 -10 -10z"/>
<path d="M9315 4809 c-4 -6 -5 -13 -2 -16 7 -7 27 6 27 18 0 12 -17 12 -25 -2z"/>
<path d="M9150 4725 c-7 -8 -19 -15 -26 -15 -8 0 -14 -4 -14 -10 0 -5 4 -10
10 -10 5 0 7 -7 4 -15 -7 -17 -25 -21 -21 -4 1 6 -4 14 -12 17 -10 3 -12 -2
-8 -20 5 -17 1 -27 -15 -37 -15 -10 -18 -15 -9 -24 9 -9 16 -6 30 12 13 16 20
20 23 11 3 -9 11 -6 26 11 13 13 18 25 12 27 -5 2 -10 12 -10 22 0 13 5 17 20
13 14 -4 20 0 20 10 0 23 -16 29 -30 12z"/>
<path d="M9218 4713 c7 -3 16 -2 19 1 4 3 -2 6 -13 5 -11 0 -14 -3 -6 -6z"/>
<path d="M8976 4582 c-9 -26 -1 -41 13 -26 5 5 5 18 1 29 -7 19 -7 19 -14 -3z"/>
<path d="M8920 4580 c-16 -11 -15 -11 18 -15 13 -1 22 3 22 11 0 16 -18 18
-40 4z"/>
<path d="M8870 4490 c0 -5 5 -10 10 -10 6 0 10 5 10 10 0 6 -4 10 -10 10 -5 0
-10 -4 -10 -10z"/>
<path d="M8750 4440 c0 -5 7 -10 16 -10 8 0 12 5 9 10 -3 6 -10 10 -16 10 -5
0 -9 -4 -9 -10z"/>
<path d="M8650 4364 c0 -8 5 -12 10 -9 6 4 8 11 5 16 -9 14 -15 11 -15 -7z"/>
<path d="M8410 4239 c0 -5 5 -7 10 -4 6 3 10 8 10 11 0 2 -4 4 -10 4 -5 0 -10
-5 -10 -11z"/>
<path d="M8445 4230 c-3 -5 1 -10 9 -10 9 0 16 5 16 10 0 6 -4 10 -9 10 -6 0
-13 -4 -16 -10z"/>
<path d="M2000 4220 c0 -5 7 -10 16 -10 8 0 12 5 9 10 -3 6 -10 10 -16 10 -5
0 -9 -4 -9 -10z"/>
<path d="M8440 4184 c0 -8 5 -12 10 -9 6 4 8 11 5 16 -9 14 -15 11 -15 -7z"/>
<path d="M1955 4150 c-3 -5 1 -10 10 -10 9 0 13 5 10 10 -3 6 -8 10 -10 10 -2
0 -7 -4 -10 -10z"/>
<path d="M7901 3926 c-15 -18 -3 -26 32 -19 25 5 39 23 18 23 -5 0 -16 2 -24
5 -7 3 -19 -1 -26 -9z"/>
<path d="M8200 3854 c0 -8 5 -12 10 -9 6 4 8 11 5 16 -9 14 -15 11 -15 -7z"/>
<path d="M8270 3860 c-12 -8 -10 -10 8 -10 13 0 20 4 17 10 -7 12 -6 12 -25 0z"/>
<path d="M7358 3583 c7 -3 16 -2 19 1 4 3 -2 6 -13 5 -11 0 -14 -3 -6 -6z"/>
<path d="M5524 3521 c-8 -17 -6 -115 2 -143 3 -11 0 -18 -9 -18 -8 0 -17 -6
-20 -14 -5 -12 7 -14 46 -7 4 0 7 10 7 21 0 24 13 26 34 5 8 -8 23 -15 33 -15
14 0 15 2 4 9 -7 5 -10 14 -6 20 5 9 10 9 21 0 8 -6 18 -9 21 -5 11 10 -16
100 -33 113 -9 6 -13 16 -9 22 3 6 -1 11 -9 11 -9 0 -16 4 -16 8 0 16 -59 9
-66 -7z"/>
<path d="M6425 2779 c-9 -14 -2 -20 14 -10 8 6 9 11 3 15 -6 3 -14 1 -17 -5z"/>
<path d="M14370 12850 c0 -5 5 -10 11 -10 5 0 7 5 4 10 -3 6 -8 10 -11 10 -2
0 -4 -4 -4 -10z"/>
<path d="M12830 10869 c0 -5 5 -7 10 -4 6 3 10 8 10 11 0 2 -4 4 -10 4 -5 0
-10 -5 -10 -11z"/>
<path d="M12772 10813 c-2 -20 -5 -41 -8 -47 -3 -6 2 -2 10 8 17 21 21 61 8
70 -4 2 -9 -11 -10 -31z"/>
<path d="M12400 10400 c0 -5 7 -10 15 -10 8 0 15 5 15 10 0 6 -7 10 -15 10 -8
0 -15 -4 -15 -10z"/>
<path d="M12340 10340 c0 -5 5 -10 10 -10 6 0 10 5 10 10 0 6 -4 10 -10 10 -5
0 -10 -4 -10 -10z"/>
<path d="M12190 10210 c-9 -6 -10 -10 -3 -10 6 0 15 5 18 10 8 12 4 12 -15 0z"/>
<path d="M12150 10180 c19 -13 30 -13 30 0 0 6 -10 10 -22 10 -19 0 -20 -2 -8
-10z"/>
<path d="M12111 10114 c0 -11 3 -14 6 -6 3 7 2 16 -1 19 -3 4 -6 -2 -5 -13z"/>
<path d="M12111 10054 c0 -11 3 -14 6 -6 3 7 2 16 -1 19 -3 4 -6 -2 -5 -13z"/>
<path d="M12055 10030 c-4 -6 -3 -16 3 -22 13 -13 23 4 13 21 -7 10 -10 10
-16 1z"/>
<path d="M11990 10000 c0 -5 5 -10 10 -10 6 0 10 5 10 10 0 6 -4 10 -10 10 -5
0 -10 -4 -10 -10z"/>
<path d="M11925 9910 c3 -5 8 -10 11 -10 2 0 4 5 4 10 0 6 -5 10 -11 10 -5 0
-7 -4 -4 -10z"/>
<path d="M11810 9810 c0 -5 5 -10 11 -10 5 0 7 5 4 10 -3 6 -8 10 -11 10 -2 0
-4 -4 -4 -10z"/>
<path d="M11813 9774 c-3 -8 -1 -20 6 -27 8 -8 11 -4 11 16 0 30 -7 35 -17 11z"/>
<path d="M11780 9740 c0 -5 5 -10 10 -10 6 0 10 5 10 10 0 6 -4 10 -10 10 -5
0 -10 -4 -10 -10z"/>
<path d="M11647 9670 c-16 -19 -16 -20 6 -16 12 1 23 10 25 19 5 23 -10 21
-31 -3z"/>
<path d="M11585 9619 c-5 -5 -18 -15 -28 -22 -12 -9 -20 -31 -24 -70 -3 -32
-10 -60 -14 -63 -12 -7 -11 -24 1 -24 6 0 10 6 10 14 0 7 7 19 15 26 9 7 13
21 10 31 -4 13 -1 19 8 19 9 0 17 -6 19 -12 3 -7 17 9 32 35 16 26 25 54 22
62 -6 17 -36 19 -51 4z"/>
<path d="M11490 9496 c0 -9 5 -16 10 -16 6 0 10 4 10 9 0 6 -4 13 -10 16 -5 3
-10 -1 -10 -9z"/>
<path d="M11464 9459 c-3 -6 -1 -16 5 -22 8 -8 11 -5 11 11 0 24 -5 28 -16 11z"/>
<path d="M11364 9398 c-14 -21 -12 -88 2 -88 7 0 16 5 19 10 3 6 1 10 -4 10
-6 0 -11 5 -11 10 0 6 11 10 25 10 20 0 25 5 25 25 0 14 -4 25 -9 25 -5 0 -16
3 -24 6 -8 3 -19 -1 -23 -8z"/>
<path d="M11280 9292 c0 -12 -6 -22 -14 -22 -16 0 -25 -19 -18 -37 8 -23 23
-14 38 23 11 26 12 40 5 47 -8 8 -11 5 -11 -11z"/>
<path d="M11310 9285 c0 -9 5 -15 11 -13 6 2 11 8 11 13 0 5 -5 11 -11 13 -6
2 -11 -4 -11 -13z"/>
<path d="M11212 9233 c-10 -4 -10 -8 -1 -19 15 -18 29 -18 29 0 0 18 -11 25
-28 19z"/>
<path d="M11160 9210 c0 -5 7 -7 15 -4 8 4 15 8 15 10 0 2 -7 4 -15 4 -8 0
-15 -4 -15 -10z"/>
<path d="M11137 9145 c-37 -26 -51 -53 -21 -41 9 3 19 6 24 6 5 0 11 8 13 18
4 16 5 16 6 0 0 -10 5 -18 11 -18 6 0 11 59 5 60 0 0 -17 -11 -38 -25z"/>
<path d="M11075 9100 c-3 -5 -1 -10 4 -10 6 0 11 5 11 10 0 6 -2 10 -4 10 -3
0 -8 -4 -11 -10z"/>
<path d="M11060 9050 c0 -5 7 -10 15 -10 8 0 15 5 15 10 0 6 -7 10 -15 10 -8
0 -15 -4 -15 -10z"/>
<path d="M10992 8973 c-6 -2 -10 -9 -6 -14 8 -14 21 -11 28 6 6 15 1 17 -22 8z"/>
<path d="M10949 8943 c-9 -2 -19 -15 -22 -29 -5 -29 8 -32 23 -4 6 11 18 20
26 20 8 0 12 5 9 10 -6 10 -9 11 -36 3z"/>
<path d="M10886 8925 c-4 -12 -1 -16 11 -13 18 3 21 20 5 26 -5 1 -12 -4 -16
-13z"/>
<path d="M10854 8866 c-18 -21 -18 -25 -5 -33 21 -12 51 -5 51 12 0 7 3 20 6
29 10 25 -28 19 -52 -8z"/>
<path d="M10803 8820 c4 -17 0 -22 -23 -27 -19 -3 -30 -13 -34 -29 -4 -13 -13
-24 -22 -24 -8 0 -13 -4 -9 -9 3 -5 -4 -12 -15 -16 -21 -7 -24 -14 -14 -39 10
-25 24 -19 24 11 0 25 0 26 20 8 15 -14 20 -15 20 -4 1 19 30 53 54 62 10 4
16 13 13 21 -3 8 2 16 14 19 20 5 20 6 0 26 -26 26 -35 27 -28 1z"/>
<path d="M10852 8770 c0 -14 2 -19 5 -12 2 6 2 18 0 25 -3 6 -5 1 -5 -13z"/>
<path d="M10630 8644 c0 -27 -5 -37 -20 -41 -23 -6 -27 -23 -5 -23 8 0 15 4
15 10 0 5 7 7 15 4 11 -5 13 -2 9 10 -3 8 1 23 10 31 9 9 16 22 16 28 0 7 -4
6 -10 -3 -8 -13 -10 -12 -10 3 0 9 -4 17 -10 17 -5 0 -10 -16 -10 -36z"/>
<path d="M10538 8533 c-10 -2 -18 -9 -18 -14 0 -5 -7 -9 -16 -9 -22 0 -71 -43
-66 -58 2 -7 -2 -11 -9 -10 -8 2 -13 -9 -15 -29 -2 -37 13 -45 18 -10 2 12 9
23 16 23 6 1 17 2 22 3 6 0 10 10 10 22 0 11 4 17 10 14 15 -9 40 14 40 36 0
11 6 19 14 19 8 0 18 5 21 10 6 10 2 11 -27 3z"/>
<path d="M10360 8411 l-25 -7 22 -12 c28 -16 29 -15 29 8 0 11 0 20 -1 19 0
-1 -11 -4 -25 -8z"/>
<path d="M10642 8318 c-19 -19 -15 -50 6 -46 9 2 16 10 14 16 -1 7 5 15 13 18
8 4 15 10 15 15 0 13 -34 11 -48 -3z"/>
<path d="M10230 8015 c12 -15 30 -12 30 6 0 5 -10 9 -21 9 -18 0 -19 -2 -9
-15z"/>
<path d="M12681 7954 c0 -11 3 -14 6 -6 3 7 2 16 -1 19 -3 4 -6 -2 -5 -13z"/>
<path d="M9985 7880 c-3 -5 -1 -10 4 -10 6 0 11 5 11 10 0 6 -2 10 -4 10 -3 0
-8 -4 -11 -10z"/>
<path d="M10019 7873 c-13 -17 -13 -17 6 -3 11 8 22 16 24 17 2 2 0 3 -6 3 -6
0 -17 -8 -24 -17z"/>
<path d="M9855 7770 c-3 -5 -1 -10 4 -10 6 0 11 5 11 10 0 6 -2 10 -4 10 -3 0
-8 -4 -11 -10z"/>
<path d="M9480 7609 c0 -5 5 -7 10 -4 6 3 10 8 10 11 0 2 -4 4 -10 4 -5 0 -10
-5 -10 -11z"/>
<path d="M9329 7414 c-12 -14 -11 -16 5 -13 11 2 21 10 24 17 5 17 -13 15 -29
-4z"/>
<path d="M9284 7385 c-7 -17 4 -37 17 -30 12 8 12 45 -1 45 -6 0 -13 -7 -16
-15z"/>
<path d="M9247 7360 c-3 -11 -1 -20 4 -20 5 0 9 9 9 20 0 11 -2 20 -4 20 -2 0
-6 -9 -9 -20z"/>
<path d="M9156 7284 c-3 -8 -13 -14 -22 -14 -12 0 -15 -6 -10 -22 3 -13 6 -26
6 -30 0 -5 5 -8 11 -8 6 0 9 6 6 14 -3 8 0 20 8 26 11 9 12 7 7 -12 -5 -22 -5
-22 11 -6 9 9 17 25 17 36 0 24 -26 36 -34 16z"/>
<path d="M9130 7190 c0 -5 5 -10 10 -10 6 0 10 5 10 10 0 6 -4 10 -10 10 -5 0
-10 -4 -10 -10z"/>
<path d="M9016 7146 c3 -9 -6 -18 -25 -24 -38 -13 -45 -54 -8 -45 12 3 27 11
32 17 6 7 18 15 28 19 23 9 18 28 -11 38 -15 6 -20 5 -16 -5z"/>
<path d="M8915 7040 c-3 -6 1 -7 9 -4 18 7 21 14 7 14 -6 0 -13 -4 -16 -10z"/>
<path d="M7438 6283 c7 -3 16 -2 19 1 4 3 -2 6 -13 5 -11 0 -14 -3 -6 -6z"/>
<path d="M7375 6220 c3 -5 8 -10 11 -10 2 0 4 5 4 10 0 6 -5 10 -11 10 -5 0
-7 -4 -4 -10z"/>
<path d="M7438 6223 c7 -3 16 -2 19 1 4 3 -2 6 -13 5 -11 0 -14 -3 -6 -6z"/>
<path d="M4058 5963 c7 -3 16 -2 19 1 4 3 -2 6 -13 5 -11 0 -14 -3 -6 -6z"/>
<path d="M6681 5874 c0 -11 3 -14 6 -6 3 7 2 16 -1 19 -3 4 -6 -2 -5 -13z"/>
<path d="M6564 5416 c6 -16 4 -17 -10 -5 -14 11 -16 10 -12 -11 4 -29 16 -32
32 -8 8 13 7 21 -3 30 -12 11 -13 10 -7 -6z"/>
<path d="M2303 4912 c-24 -2 -43 -7 -43 -12 0 -4 9 -6 20 -3 11 3 20 0 20 -6
0 -15 11 -13 34 4 25 19 21 21 -31 17z"/>
<path d="M2190 4865 c0 -8 5 -15 10 -15 6 0 10 7 10 15 0 8 -4 15 -10 15 -5 0
-10 -7 -10 -15z"/>
<path d="M2125 4840 c-21 -9 -21 -9 13 -16 15 -3 22 1 22 11 0 17 -6 18 -35 5z"/>
<path d="M2277 4763 c-4 -3 -7 -17 -7 -30 0 -14 -4 -21 -10 -18 -5 3 -10 -1
-10 -9 0 -19 49 -22 52 -3 5 47 4 67 -7 67 -6 0 -15 -3 -18 -7z"/>
<path d="M2360 4670 c0 -5 5 -10 10 -10 6 0 10 5 10 10 0 6 -4 10 -10 10 -5 0
-10 -4 -10 -10z"/>
<path d="M9825 4471 c-3 -5 -1 -12 5 -16 5 -3 10 1 10 9 0 18 -6 21 -15 7z"/>
<path d="M8810 3745 c12 -15 30 -12 30 6 0 5 -10 9 -21 9 -18 0 -19 -2 -9 -15z"/>
<path d="M8542 3548 c5 -15 28 -18 29 -3 0 6 -7 12 -17 13 -10 3 -15 -1 -12
-10z"/>
<path d="M310 3511 c-18 -20 -25 -71 -11 -71 6 0 7 7 4 17 -4 11 -3 14 6 9 6
-4 19 -2 28 6 9 7 17 11 17 9 1 -3 10 1 21 7 20 12 20 12 1 27 -25 19 -47 18
-66 -4z"/>
<path d="M8235 3520 c4 -6 11 -8 16 -5 14 9 11 15 -7 15 -8 0 -12 -5 -9 -10z"/>
<path d="M8430 3500 c0 -5 5 -10 10 -10 6 0 10 5 10 10 0 6 -4 10 -10 10 -5 0
-10 -4 -10 -10z"/>
<path d="M8473 3489 c14 -8 22 -8 30 0 8 8 3 11 -18 11 -26 -1 -28 -2 -12 -11z"/>
<path d="M235 3479 c-10 -15 3 -25 16 -12 7 7 7 13 1 17 -6 3 -14 1 -17 -5z"/>
<path d="M260 3439 c0 -5 5 -7 10 -4 6 3 10 8 10 11 0 2 -4 4 -10 4 -5 0 -10
-5 -10 -11z"/>
<path d="M168 3393 c7 -3 16 -2 19 1 4 3 -2 6 -13 5 -11 0 -14 -3 -6 -6z"/>
<path d="M797 3384 c-9 -10 2 -24 19 -24 8 0 14 7 14 15 0 15 -21 21 -33 9z"/>
<path d="M696 3061 c-3 -4 -10 -20 -16 -35 l-10 -28 30 30 c16 17 30 33 30 36
0 9 -28 7 -34 -3z"/>
<path d="M650 3050 c0 -5 7 -10 15 -10 8 0 15 5 15 10 0 6 -7 10 -15 10 -8 0
-15 -4 -15 -10z"/>
<path d="M615 3031 c-6 -11 9 -23 19 -14 9 9 7 23 -3 23 -6 0 -12 -4 -16 -9z"/>
<path d="M1130 2960 c0 -5 7 -10 15 -10 8 0 15 -5 15 -12 0 -6 3 -8 6 -5 8 8
-14 37 -27 37 -5 0 -9 -4 -9 -10z"/>
<path d="M1206 2923 c-12 -12 -6 -33 9 -33 8 0 15 6 15 14 0 17 -14 28 -24 19z"/>
<path d="M1251 2883 c-1 -20 1 -22 24 -11 14 6 25 15 25 20 0 5 -9 4 -19 -2
-14 -7 -21 -6 -24 3 -3 6 -6 2 -6 -10z"/>
<path d="M1430 2850 c0 -5 5 -10 10 -10 6 0 10 5 10 10 0 6 -4 10 -10 10 -5 0
-10 -4 -10 -10z"/>
<path d="M3725 700 c-3 -5 -1 -10 4 -10 6 0 11 5 11 10 0 6 -2 10 -4 10 -3 0
-8 -4 -11 -10z"/>
<path d="M5360 706 c0 -2 7 -7 16 -10 8 -3 12 -2 9 4 -6 10 -25 14 -25 6z"/>
<path d="M3880 444 c0 -19 4 -33 8 -30 8 5 4 66 -4 66 -2 0 -4 -16 -4 -36z"/>
<path d="M3964 386 c-8 -22 3 -33 18 -18 9 9 9 15 0 24 -9 9 -13 7 -18 -6z"/>
<path d="M5052 179 c-13 -5 -20 -13 -17 -19 3 -5 -1 -10 -9 -10 -11 0 -15 -10
-13 -39 1 -35 3 -38 19 -30 12 6 18 6 18 -1 0 -5 10 -11 23 -11 16 -1 18 -2 5
-6 -24 -6 -23 -20 2 -33 16 -9 20 -8 20 5 0 8 5 15 10 15 6 0 10 14 10 31 0
17 5 39 10 50 24 44 -21 71 -78 48z"/>
</g>
</svg>
