<?xml version="1.0" standalone="no"?>
<!DOCTYPE svg PUBLIC "-//W3C//DTD SVG 20010904//EN"
 "http://www.w3.org/TR/2001/REC-SVG-20010904/DTD/svg10.dtd">
<svg version="1.0" xmlns="http://www.w3.org/2000/svg"
 width="1093.000000pt" height="825.000000pt" viewBox="0 0 1093.000000 825.000000"
 preserveAspectRatio="xMidYMid meet">

<g transform="translate(0.000000,825.000000) scale(0.100000,-0.100000)"
fill="#000000" stroke="none">
<path d="M550 8130 c-14 -10 -22 -22 -18 -25 3 -4 -1 -15 -10 -26 -14 -16 -31
-19 -117 -20 -55 -1 -89 -4 -76 -8 28 -8 40 -31 17 -32 -91 -4 -110 -1 -118
17 -5 11 -6 -44 -4 -124 4 -141 4 -143 -19 -154 -13 -6 -21 -17 -19 -27 1 -9
5 -42 8 -74 3 -42 2 -55 -7 -50 -7 4 -6 0 2 -10 7 -9 17 -15 21 -12 11 7 19
-108 9 -119 -14 -15 -11 -170 4 -185 9 -9 13 -82 16 -274 7 -442 12 -5408 6
-5472 -5 -50 -10 -63 -28 -70 -12 -6 -23 -20 -25 -31 -2 -16 -14 -25 -46 -33
-86 -21 -137 -76 -123 -132 4 -13 33 -53 65 -89 69 -77 75 -89 56 -125 -19
-37 -18 -41 5 -21 26 23 34 61 20 89 -7 12 -32 41 -56 64 -36 35 -43 48 -43
81 0 45 22 72 80 102 l40 20 0 -254 c0 -175 3 -257 11 -262 11 -7 6 -324 -7
-473 -6 -63 -5 -68 24 -103 16 -21 35 -51 42 -67 6 -16 29 -41 49 -56 l38 -26
4139 -3 c2276 -2 4542 -7 5034 -11 492 -3 927 -6 965 -5 39 0 86 -5 106 -13
22 -7 59 -10 95 -7 l59 5 -2 90 c-1 50 -4 196 -8 325 -6 241 0 314 25 316 32
1 101 28 116 45 39 44 -1 163 -87 254 l-47 50 -2 2645 c-1 1455 -3 2785 -3
2956 -1 249 1 315 12 328 10 12 32 16 93 16 l79 0 -3 33 c-2 17 -7 31 -13 31
-5 -1 -31 -5 -57 -8 -39 -6 -47 -5 -42 7 3 8 -2 21 -10 30 -14 13 -16 50 -16
241 0 216 1 225 20 231 15 5 20 15 20 45 0 47 -7 52 -59 44 -31 -5 -41 -12
-45 -30 -5 -17 -13 -24 -31 -24 -24 0 -25 2 -25 73 0 104 -36 173 -120 234 -8
6 -31 14 -50 18 l-35 8 25 -21 25 -20 -67 1 c-48 2 -68 6 -68 15 0 9 10 11 35
6 23 -4 35 -2 35 5 0 7 -23 11 -61 11 -37 0 -58 -4 -54 -10 3 -6 13 -10 21
-10 8 0 13 -4 10 -8 -9 -14 -66 -1 -66 15 0 11 -16 14 -67 15 -38 0 -2172 4
-4743 7 -2571 3 -4681 10 -4687 14 -7 5 -13 15 -13 22 0 36 -101 44 -114 10
-5 -13 -9 -12 -26 5 -25 25 -58 25 -90 0z m92 -57 c20 -42 16 -53 -18 -53 -26
0 -31 9 -12 28 9 9 7 12 -10 12 -12 0 -22 5 -22 11 0 6 8 8 19 4 11 -3 22 -1
26 5 3 5 1 10 -4 10 -6 0 -11 5 -11 10 0 22 17 8 32 -27z m51 11 c-5 -13 -2
-15 15 -10 29 10 36 -10 12 -34 -31 -31 -46 -25 -47 20 -1 29 2 40 12 40 9 0
12 -6 8 -16z m-128 -14 c3 -5 -1 -10 -9 -10 -9 0 -16 5 -16 10 0 6 4 10 9 10
6 0 13 -4 16 -10z m205 -10 c0 -5 -2 -10 -4 -10 -3 0 -8 5 -11 10 -3 6 -1 10
4 10 6 0 11 -4 11 -10z m223 -6 c15 -3 27 -10 27 -15 0 -6 -5 -7 -10 -4 -6 3
-12 0 -15 -7 -4 -9 -21 -12 -55 -10 -40 3 -50 7 -50 22 0 14 8 18 38 19 20 0
49 -2 65 -5z m9029 -1 c70 -3 125 -10 122 -15 -3 -4 -9 -6 -14 -3 -5 3 -2013
6 -4462 6 -2452 0 -4462 4 -4473 9 -23 10 8634 13 8827 3z m-9532 -9 c22 -5
28 -9 18 -15 -18 -12 -115 -11 -122 0 -12 18 45 26 104 15z m74 0 c23 -9 20
-24 -4 -24 -11 0 -20 7 -20 15 0 17 2 18 24 9z m591 -4 c3 -5 -3 -10 -15 -10
-12 0 -18 5 -15 10 3 6 10 10 15 10 5 0 12 -4 15 -10z m9112 4 c-4 -4 -27 -7
-52 -7 -25 0 -48 3 -52 7 -3 3 20 6 52 6 32 0 55 -3 52 -6z m-9492 -14 c-3 -5
-13 -10 -21 -10 -8 0 -14 5 -14 10 0 6 9 10 21 10 11 0 17 -4 14 -10z m-338
-49 c11 -18 9 -19 -27 -17 -43 2 -55 9 -45 25 11 18 59 13 72 -8z m33 9 c0 -5
-2 -10 -4 -10 -3 0 -8 5 -11 10 -3 6 -1 10 4 10 6 0 11 -4 11 -10z m-180 -57
c0 -25 -2 -44 -4 -42 -8 10 -13 89 -5 89 5 0 9 -21 9 -47z m500 32 c0 -8 -4
-15 -9 -15 -13 0 -22 16 -14 24 11 11 23 6 23 -9z m206 0 c-7 -20 8 -19 25 1
12 15 14 13 21 -17 3 -18 2 -40 -2 -49 -8 -13 -9 -13 -10 2 0 15 -14 18 -112
20 -78 2 -113 7 -116 16 -3 9 19 12 85 13 77 1 83 2 49 10 -59 14 -56 19 8 19
48 0 57 -3 52 -15z m284 -50 c-43 -44 -88 -64 -101 -44 -7 11 -9 11 -9 0 0
-16 -48 -7 -69 14 -22 22 -3 39 25 21 13 -9 29 -16 36 -16 7 1 1 8 -14 16 -36
19 -35 29 3 32 17 1 41 8 53 14 11 7 39 14 61 18 52 7 57 -11 15 -55z m5180
49 c179 -2 459 -7 622 -11 263 -5 307 -3 373 12 67 16 104 17 362 9 158 -4
392 -8 518 -8 127 -1 569 -2 983 -3 l752 -3 0 -24 c0 -45 13 -86 27 -86 7 0
25 -7 38 -16 25 -16 17 -16 285 2 87 5 97 4 113 -14 12 -13 17 -32 15 -54 -3
-33 -4 -33 -58 -36 -30 -2 -57 -6 -60 -9 -6 -5 -8 -1086 -2 -1119 3 -18 13
-22 54 -27 28 -4 53 -9 57 -12 13 -14 19 -864 20 -2917 l1 -2188 -50 0 c-48 0
-49 -1 -55 -33 -4 -19 -5 -230 -2 -469 2 -240 1 -442 -4 -449 -5 -9 -9 -9 -9
-3 0 8 -75 12 -267 13 -148 0 -302 3 -343 6 -41 3 -97 2 -125 -2 l-50 -8 -1
-65 -1 -65 -4135 -3 -4134 -2 10 65 c6 40 6 69 0 75 -5 5 -189 10 -416 12
-254 2 -411 7 -417 13 -5 6 -12 35 -14 65 -4 44 0 60 17 83 15 21 21 43 20 83
0 45 3 54 18 55 10 1 23 3 28 4 6 1 21 3 35 4 22 1 25 6 25 37 l0 37 -50 -5
-50 -5 35 39 c36 40 46 89 25 127 -7 15 -2 24 30 50 23 18 40 41 40 52 0 11
-23 44 -50 73 -54 57 -70 95 -70 163 l0 42 -80 7 -80 7 4 2216 c3 1219 8 2261
12 2316 9 114 8 392 -1 670 -6 176 0 383 12 371 3 -2 4 -116 4 -252 l-2 -248
21 27 c18 22 30 27 66 27 89 0 84 -17 84 304 0 237 3 288 16 314 8 18 13 41 9
52 -4 11 -2 20 4 20 12 0 16 182 5 193 -12 12 -9 108 3 119 8 6 13 35 13 74 0
61 1 65 28 75 15 6 95 13 177 15 183 6 191 8 199 37 5 21 10 23 74 23 75 -1
99 11 189 97 42 40 42 40 150 49 59 5 113 10 118 13 13 5 4424 -4 4835 -11z
m-6200 -39 c0 -19 -4 -35 -10 -35 -5 0 -10 16 -10 35 0 19 5 35 10 35 6 0 10
-16 10 -35z m245 25 c-3 -5 -12 -10 -20 -10 -8 0 -17 5 -20 10 -4 6 5 10 20
10 15 0 24 -4 20 -10z m100 0 c5 -8 11 -8 20 0 9 8 14 6 19 -5 4 -11 -2 -15
-25 -15 -27 0 -30 -3 -24 -22 6 -22 6 -22 -9 -4 -17 21 -20 38 -9 49 9 10 21
9 28 -3z m95 -55 c0 -8 -4 -15 -10 -15 -5 0 -10 7 -10 15 0 8 5 15 10 15 6 0
10 -7 10 -15z m240 0 c0 -8 -4 -15 -10 -15 -5 0 -10 7 -10 15 0 8 5 15 10 15
6 0 10 -7 10 -15z m70 5 c12 0 12 -2 2 -9 -17 -10 -62 -2 -62 11 0 6 10 8 23
4 12 -3 29 -6 37 -6z m9237 -17 c-11 -11 -157 -13 -157 -3 0 6 36 10 82 10 45
0 78 -3 75 -7z m-9747 -13 c0 -5 -10 -10 -22 -10 -19 0 -20 2 -8 10 19 13 30
13 30 0z m-92 -7 c-10 -2 -26 -2 -35 0 -10 3 -2 5 17 5 19 0 27 -2 18 -5z
m412 -8 c0 -10 -10 -14 -35 -13 -34 1 -42 7 -28 21 13 14 63 7 63 -8z m9927
-107 c-3 -8 -6 -5 -6 6 -1 11 2 17 5 13 3 -3 4 -12 1 -19z m61 10 c-3 -7 -13
-13 -23 -13 -10 0 -20 6 -22 13 -3 7 5 12 22 12 17 0 25 -5 23 -12z m-10540
-31 c2 -9 -3 -17 -10 -17 -8 0 -14 9 -14 20 0 24 20 21 24 -3z m232 4 c5 -11
10 -38 10 -60 0 -22 5 -41 13 -44 17 -7 -38 -27 -74 -27 -17 0 -37 -7 -45 -15
-35 -35 -54 -9 -54 75 0 86 4 90 76 90 52 0 65 -3 74 -19z m150 -67 c0 -37 -4
-63 -9 -59 -12 7 -13 125 0 125 5 0 9 -30 9 -66z m9970 56 c24 -8 24 -8 3 -9
-14 -1 -23 -7 -23 -16 0 -14 -3 -13 -25 2 -13 10 -25 21 -25 26 0 9 37 8 70
-3z m127 -387 c-1 -60 -3 -11 -3 107 0 118 2 167 3 108 2 -60 2 -156 0 -215z
m-10482 297 c-3 -5 -12 -7 -20 -3 -21 7 -19 13 6 13 11 0 18 -4 14 -10z m32
-32 c-3 -8 -6 -5 -6 6 -1 11 2 17 5 13 3 -3 4 -12 1 -19z m10313 -99 c0 -60 4
-109 9 -109 5 0 -2 -22 -15 -50 -26 -55 -26 -55 -55 -40 -16 9 -19 22 -19 71
0 52 3 62 20 66 18 5 20 14 20 87 0 87 3 98 26 89 11 -4 14 -30 14 -114z
m-10140 62 c0 -16 -70 -71 -91 -71 -18 0 -20 4 -14 27 4 16 7 28 8 29 39 24
97 33 97 15z m-143 -63 c-3 -7 -5 -2 -5 12 0 14 2 19 5 13 2 -7 2 -19 0 -25z
m173 -87 c0 -47 -4 -92 -9 -99 -5 -9 -26 -12 -67 -10 l-59 3 -3 54 c-4 65 4
101 21 101 6 0 30 16 52 35 36 30 41 32 53 18 7 -11 12 -49 12 -102z m10030
69 c0 -15 -6 -32 -12 -38 -10 -8 -13 0 -13 38 0 38 3 46 13 38 6 -6 12 -23 12
-38z m27 -22 c-3 -7 -5 -2 -5 12 0 14 2 19 5 13 2 -7 2 -19 0 -25z m-10230
-55 c-3 -10 -5 -2 -5 17 0 19 2 27 5 18 2 -10 2 -26 0 -35z m-58 -44 c0 -93
-23 -90 -27 4 -2 54 0 67 12 67 12 0 15 -15 15 -71z m372 -51 c-2 -10 -7 -18
-11 -18 -10 0 -11 110 -1 125 7 12 18 -81 12 -107z m-114 -43 c-12 -25 -14
-25 -101 -23 -66 2 -91 7 -94 17 -3 10 0 11 9 5 20 -12 114 -15 141 -5 21 8
19 9 -17 16 -65 11 -64 13 7 14 l66 1 -11 -25z m10063 -47 c11 -23 20 -54 20
-70 0 -23 -4 -28 -24 -28 -14 0 -28 5 -32 11 -14 23 -4 129 12 129 2 0 13 -19
24 -42z m-60 -29 c0 -17 -4 -28 -10 -24 -5 3 -10 17 -10 31 0 13 5 24 10 24 6
0 10 -14 10 -31z m-10190 -29 c0 -5 -4 -10 -10 -10 -5 0 -10 5 -10 10 0 6 5
10 10 10 6 0 10 -4 10 -10z m-1 -202 c1 -107 -7 -144 -26 -124 -10 9 -7 261 2
277 15 24 23 -26 24 -153z m86 -197 c-2 -14 -4 -66 -4 -116 -1 -62 -4 -85 -11
-75 -11 18 -13 347 -3 470 8 83 8 81 15 -84 3 -93 5 -180 3 -195z m175 99 c0
-203 -3 -250 -14 -250 -10 0 -11 11 -5 53 5 28 8 104 7 167 -2 157 1 280 7
280 3 0 5 -112 5 -250z m9857 148 c-2 -18 -4 -4 -4 32 0 36 2 50 4 33 2 -18 2
-48 0 -65z m-9956 -170 c4 -39 0 -161 -5 -166 -3 -3 -7 24 -8 59 0 35 -2 76
-2 92 -2 26 13 40 15 15z m-154 -24 c-3 -3 -12 -4 -19 -1 -8 3 -5 6 6 6 11 1
17 -2 13 -5z m10243 -35 c0 -17 -4 -28 -10 -24 -5 3 -10 17 -10 31 0 13 5 24
10 24 6 0 10 -14 10 -31z m39 -21 c-1 -48 -2 -50 -10 -23 -9 28 -5 75 6 75 3
0 5 -24 4 -52z m-10282 26 c-3 -3 -12 -4 -19 -1 -8 3 -5 6 6 6 11 1 17 -2 13
-5z m3 -34 c-19 -13 -30 -13 -30 0 0 6 10 10 23 10 18 0 19 -2 7 -10z m10237
-67 c-3 -10 -5 -4 -5 12 0 17 2 24 5 18 2 -7 2 -21 0 -30z m-10247 8 c0 -14
-18 -23 -30 -16 -6 4 -8 11 -5 16 8 12 35 12 35 0z m10307 -398 c-1 -43 -3
-10 -3 72 0 83 2 118 3 78 2 -40 2 -107 0 -150z m-10270 -1415 c-1 -271 -2
-52 -2 487 0 539 1 761 2 493 2 -267 2 -708 0 -980z m10288 -1317 c-1 -1288
-5 -2096 -11 -2098 -10 -3 -14 4137 -5 4497 l6 205 5 -255 c3 -140 5 -1197 5
-2349z m-64 -2143 c5 -45 0 -88 -12 -88 -5 0 -9 27 -9 60 0 63 15 83 21 28z
m59 22 c0 -5 -2 -10 -4 -10 -3 0 -8 5 -11 10 -3 6 -1 10 4 10 6 0 11 -4 11
-10z m-10090 -45 c0 -25 -4 -45 -10 -45 -5 0 -10 20 -10 45 0 25 5 45 10 45 6
0 10 -20 10 -45z m9990 -9 c0 -26 -15 -43 -24 -28 -7 12 4 52 15 52 5 0 9 -11
9 -24z m-10479 -43 c-16 -21 -31 -49 -33 -63 -4 -21 -6 -22 -12 -7 -13 28 2
64 36 86 18 11 34 21 36 21 2 0 -10 -17 -27 -37z m299 -116 c0 -67 4 -107 12
-115 8 -8 8 -12 1 -12 -6 0 -14 -12 -18 -27 -21 -86 -75 -58 -75 38 0 32 4 41
24 49 21 8 23 13 19 54 -7 60 4 116 22 116 12 0 15 -20 15 -103z m190 37 c0
-34 -4 -53 -10 -49 -5 3 -10 31 -10 61 0 34 4 53 10 49 6 -3 10 -31 10 -61z
m9987 -6 c-3 -7 -5 -2 -5 12 0 14 2 19 5 13 2 -7 2 -19 0 -25z m-9869 -47 c24
-28 14 -60 -23 -78 -19 -9 -37 -14 -41 -11 -3 3 -8 41 -11 85 l-6 78 34 -30
c19 -16 40 -36 47 -44z m9938 -79 c-7 -95 -23 -129 -49 -109 -11 7 -20 33 -24
64 -5 49 -4 53 21 64 23 11 26 18 26 68 l1 56 16 -29 c12 -24 14 -47 9 -114z
m-10326 73 c0 -19 -5 -37 -11 -41 -8 -5 -10 2 -6 22 3 16 1 37 -4 46 -7 14 -6
16 6 12 9 -4 15 -19 15 -39z m10260 -10 c0 -12 -6 -27 -13 -33 -10 -8 -12 -1
-12 33 0 33 3 41 13 33 6 -6 12 -21 12 -33z m-10053 -117 c-2 -29 -3 -8 -3 47
0 55 1 79 3 53 2 -26 2 -71 0 -100z m-180 110 c-3 -8 -6 -5 -6 6 -1 11 2 17 5
13 3 -3 4 -12 1 -19z m10256 7 c4 -8 2 -17 -3 -20 -6 -4 -10 3 -10 14 0 25 6
27 13 6z m-10013 -61 c0 -30 -4 -54 -10 -54 -6 0 -10 27 -10 61 0 37 4 58 10
54 6 -3 10 -31 10 -61z m10270 -118 c34 -66 37 -88 16 -109 -19 -19 -96 -31
-110 -17 -10 10 -10 188 0 223 5 17 9 16 35 -9 16 -16 43 -55 59 -88z m-10196
21 c7 -26 6 -40 -4 -51 -20 -26 -25 -19 -28 40 -3 65 17 72 32 11z m-73 0 c-1
-4 -1 -21 -1 -38 0 -17 -4 -28 -10 -24 -14 8 -13 78 1 73 6 -2 10 -7 10 -11z
m-212 -103 c36 -60 15 -124 -27 -82 -17 17 -14 118 3 118 2 0 13 -16 24 -36z
m10251 -8 c32 -52 10 -112 -28 -74 -18 18 -15 108 4 108 1 0 12 -15 24 -34z
m-10310 -11 c0 -14 -4 -25 -10 -25 -5 0 -10 11 -10 25 0 14 5 25 10 25 6 0 10
-11 10 -25z m10260 -5 c0 -29 -17 -33 -22 -5 -3 13 -3 27 0 29 9 10 22 -5 22
-24z m-10053 -2 c-3 -8 -6 -5 -6 6 -1 11 2 17 5 13 3 -3 4 -12 1 -19z m55
-147 c1 -18 -3 -36 -8 -41 -5 -5 -8 9 -5 36 4 50 12 53 13 5z m9915 -43 c-2
-13 -4 -5 -4 17 -1 22 1 32 4 23 2 -10 2 -28 0 -40z m-10250 5 c-3 -10 -5 -4
-5 12 0 17 2 24 5 18 2 -7 2 -21 0 -30z m10390 -230 c-2 -16 -4 -3 -4 27 0 30
2 43 4 28 2 -16 2 -40 0 -55z m-17 5 c0 -11 -7 -18 -18 -18 -13 0 -19 9 -20
35 -3 35 -2 35 18 18 11 -10 20 -25 20 -35z m-10240 11 c0 -16 -4 -28 -8 -25
-5 3 -8 15 -6 28 3 28 3 28 9 28 3 0 5 -14 5 -31z m146 11 c0 -11 -4 -20 -8
-20 -4 0 -8 9 -8 20 0 11 4 20 8 20 4 0 8 -9 8 -20z m-109 -67 c-2 -16 -4 -3
-4 27 0 30 2 43 4 28 2 -16 2 -40 0 -55z m442 51 c2 -2 -17 -4 -42 -4 -26 0
-47 4 -47 10 0 9 79 3 89 -6z m9808 -51 c-2 -16 -4 -5 -4 22 0 28 2 40 4 28 2
-13 2 -35 0 -50z m-9929 50 c-10 -2 -26 -2 -35 0 -10 3 -2 5 17 5 19 0 27 -2
18 -5z m215 0 c-13 -2 -35 -2 -50 0 -16 2 -5 4 22 4 28 0 40 -2 28 -4z m120 0
c-13 -2 -33 -2 -45 0 -13 2 -3 4 22 4 25 0 35 -2 23 -4z m327 -2 c0 -9 -279
-4 -289 5 -2 2 62 4 142 4 84 0 147 -4 147 -9z m8450 -3 c0 -5 -20 -8 -45 -8
-25 0 -45 5 -45 10 0 6 19 10 45 8 25 -2 45 -6 45 -10z m-105 -8 c-3 -5 -17
-10 -30 -10 -13 0 -27 5 -30 10 -4 6 8 10 30 10 22 0 34 -4 30 -10z m273 3
c-27 -2 -69 -2 -95 0 -27 2 -5 3 47 3 52 0 74 -1 48 -3z m105 0 c-7 -2 -19 -2
-25 0 -7 3 -2 5 12 5 14 0 19 -2 13 -5z m153 -2 c-3 -5 -15 -7 -26 -4 -28 7
-25 13 6 13 14 0 23 -4 20 -9z m144 -1 c0 -5 -18 -10 -39 -10 -22 0 -43 5 -46
10 -4 6 12 10 39 10 25 0 46 -4 46 -10z m-10043 -87 c-3 -10 -5 -4 -5 12 0 17
2 24 5 18 2 -7 2 -21 0 -30z m10263 -9 c0 -19 -4 -33 -8 -30 -8 5 -4 66 4 66
2 0 4 -16 4 -36z m-9410 -4 c0 -5 -10 -10 -22 -10 -19 0 -20 2 -8 10 19 13 30
13 30 0z m8785 0 c3 -6 -4 -10 -17 -10 -18 0 -20 2 -8 10 19 12 18 12 25 0z
m325 0 c0 -5 -4 -10 -10 -10 -5 0 -10 5 -10 10 0 6 5 10 10 10 6 0 10 -4 10
-10z m50 6 c0 -2 -7 -6 -15 -10 -8 -3 -15 -1 -15 4 0 6 7 10 15 10 8 0 15 -2
15 -4z m-9012 -13 c-10 -2 -28 -2 -40 0 -13 2 -5 4 17 4 22 1 32 -1 23 -4z
m-958 -48 c0 -8 -4 -15 -10 -15 -5 0 -7 7 -4 15 4 8 8 15 10 15 2 0 4 -7 4
-15z m390 5 c0 -5 -21 -10 -46 -10 -27 0 -43 4 -39 10 3 6 24 10 46 10 21 0
39 -4 39 -10z m275 0 c-3 -5 -42 -9 -86 -9 -45 0 -77 4 -74 10 4 5 42 9 86 9
50 0 78 -4 74 -10z m295 -6 c0 -2 -9 -4 -20 -4 -11 0 -20 4 -20 9 0 5 9 7 20
4 11 -3 20 -7 20 -9z m9287 -16 c-3 -7 -5 -2 -5 12 0 14 2 19 5 13 2 -7 2 -19
0 -25z m-2794 15 c-1183 -2 -3123 -2 -4310 0 -1187 1 -219 2 2152 2 2371 0
3342 -1 2158 -2z m2562 -3 c14 -6 1 -9 -43 -9 -40 -1 -61 3 -57 9 7 12 72 12
100 0z m-9435 -60 c0 -5 -5 -10 -11 -10 -5 0 -7 5 -4 10 3 6 8 10 11 10 2 0 4
-4 4 -10z m27 -12 c-3 -8 -6 -5 -6 6 -1 11 2 17 5 13 3 -3 4 -12 1 -19z m-457
2 c0 -5 -19 -10 -42 -9 -37 1 -39 2 -18 9 36 12 60 12 60 0z m30 -6 c0 -8 -5
-12 -10 -9 -6 4 -8 11 -5 16 9 14 15 11 15 -7z m340 6 c0 -5 -7 -10 -16 -10
-8 0 -12 5 -9 10 3 6 10 10 16 10 5 0 9 -4 9 -10z m349 -6 c2 -2 -11 -4 -30
-5 -19 0 -52 -2 -74 -4 -50 -5 -105 4 -105 17 0 9 200 2 209 -8z m8734 10 c43
-4 77 -11 77 -16 0 -11 -8737 -10 -8744 1 -3 4 -3 11 1 15 8 8 8567 8 8666 0z
m-9650 -11 c-7 -2 -19 -2 -25 0 -7 3 -2 5 12 5 14 0 19 -2 13 -5z m74 1 c-3
-3 -12 -4 -19 -1 -8 3 -5 6 6 6 11 1 17 -2 13 -5z m9698 -4 c3 -5 -1 -10 -9
-10 -9 0 -16 5 -16 10 0 6 4 10 9 10 6 0 13 -4 16 -10z m95 2 c0 -4 -17 -8
-37 -9 -29 0 -33 1 -18 7 26 11 55 12 55 2z m140 -2 c0 -6 -23 -9 -52 -8 l-53
1 50 7 c28 4 51 8 53 8 1 1 2 -2 2 -8z m120 -10 c0 -5 -13 -10 -30 -10 -16 0
-30 5 -30 10 0 6 14 10 30 10 17 0 30 -4 30 -10z m110 0 c0 -5 -18 -10 -39
-10 -22 0 -43 5 -46 10 -4 6 12 10 39 10 25 0 46 -4 46 -10z m110 0 c0 -5 -4
-10 -10 -10 -5 0 -10 5 -10 10 0 6 5 10 10 10 6 0 10 -4 10 -10z m30 0 c0 -5
-5 -10 -11 -10 -5 0 -7 5 -4 10 3 6 8 10 11 10 2 0 4 -4 4 -10z m-90 -90 c0
-5 -7 -10 -15 -10 -8 0 -15 5 -15 10 0 6 7 10 15 10 8 0 15 -4 15 -10z"/>
<path d="M248 8063 c12 -2 30 -2 40 0 9 3 -1 5 -23 4 -22 0 -30 -2 -17 -4z"/>
</g>
</svg>
