<?xml version="1.0" standalone="no"?>
<!DOCTYPE svg PUBLIC "-//W3C//DTD SVG 20010904//EN"
 "http://www.w3.org/TR/2001/REC-SVG-20010904/DTD/svg10.dtd">
<svg version="1.0" xmlns="http://www.w3.org/2000/svg"
 width="944.000000pt" height="1280.000000pt" viewBox="0 0 944.000000 1280.000000"
 preserveAspectRatio="xMidYMid meet">
<metadata>
Created by potrace 1.15, written by Peter Selinger 2001-2017
</metadata>
<g transform="translate(0.000000,1280.000000) scale(0.100000,-0.100000)"
fill="#ffd5af" stroke="none">
<path d="M9400 12787 c0 -10 -12 -30 -26 -45 -36 -39 -53 -75 -65 -138 -27
-144 -253 -415 -507 -607 -123 -94 -165 -115 -332 -167 -148 -46 -232 -84
-291 -131 -27 -21 -95 -49 -231 -93 -255 -83 -447 -179 -552 -276 -24 -22 -63
-54 -87 -71 -154 -107 -148 -104 -228 -110 -91 -6 -162 -36 -241 -100 -42 -35
-113 -69 -310 -152 -140 -59 -262 -107 -271 -107 -28 0 -182 -50 -244 -79 -33
-15 -88 -49 -122 -75 -71 -54 -219 -126 -257 -126 -69 0 -189 -57 -341 -163
-110 -76 -333 -191 -470 -242 -149 -56 -460 -215 -538 -277 -38 -29 -83 -63
-100 -76 -18 -13 -45 -36 -62 -52 -40 -37 -134 -94 -280 -167 -276 -139 -408
-226 -535 -351 -47 -46 -101 -96 -120 -110 -19 -14 -48 -38 -65 -53 -16 -15
-49 -34 -73 -42 -86 -30 -153 -81 -270 -207 -64 -69 -141 -147 -171 -175 -111
-102 -368 -361 -396 -400 -17 -22 -71 -92 -121 -155 -166 -208 -354 -491 -526
-792 -44 -79 -98 -169 -119 -200 -20 -32 -43 -74 -49 -93 -16 -49 -277 -555
-329 -639 -54 -86 -92 -171 -122 -267 -12 -41 -46 -130 -75 -199 -29 -69 -79
-192 -112 -275 -33 -82 -78 -188 -101 -235 -22 -47 -50 -125 -62 -175 -12 -49
-41 -155 -65 -235 -109 -368 -141 -484 -170 -620 -25 -117 -73 -412 -89 -545
-9 -71 -23 -173 -31 -226 -31 -207 -15 -754 32 -1098 26 -192 102 -523 124
-536 4 -3 -23 -96 -61 -207 -91 -269 -165 -524 -232 -798 -87 -353 -101 -433
-102 -600 0 -137 1 -148 27 -202 34 -72 70 -97 145 -97 48 0 59 5 92 35 47 42
91 130 126 249 28 97 86 435 105 610 6 61 16 126 20 145 16 62 83 162 160 241
122 125 260 205 632 368 189 84 319 154 437 239 80 57 218 188 256 243 23 32
52 52 144 99 199 102 375 229 536 387 74 72 99 105 137 178 25 50 62 117 82
149 20 33 36 65 36 72 0 7 30 36 68 65 161 126 314 312 414 505 50 96 55 103
124 148 150 98 296 235 404 376 19 25 55 68 80 95 62 67 97 124 126 204 13 36
24 66 24 67 0 0 44 38 99 82 159 132 287 304 346 466 25 70 31 77 106 136 93
74 157 147 247 285 66 100 111 206 112 259 0 15 16 71 35 123 20 51 33 99 29
104 -3 6 6 33 20 60 45 82 88 219 93 294 4 61 1 76 -20 117 l-25 46 62 41
c185 119 295 258 330 413 8 35 17 104 21 153 l7 91 46 24 c72 38 183 132 252
212 107 126 250 356 250 402 0 8 30 35 68 59 169 110 323 292 438 518 30 59
61 97 154 189 65 63 136 144 160 179 52 78 105 192 115 246 6 35 14 45 63 77
135 89 272 229 369 376 30 45 60 82 67 82 27 0 242 113 329 173 238 162 385
356 420 552 10 59 12 61 86 121 92 74 196 200 250 304 31 60 53 87 96 120 81
62 143 136 198 233 84 148 122 287 134 487 4 75 11 112 23 130 56 82 94 190
109 310 6 55 21 102 54 175 99 215 138 443 106 611 -12 58 -29 95 -29 61z
m-1960 -1760 c0 -2 -17 -19 -37 -38 l-38 -34 34 38 c33 34 41 42 41 34z m-80
-90 c0 -2 -10 -12 -22 -23 l-23 -19 19 23 c18 21 26 27 26 19z m-40 -51 c0 -2
-8 -10 -17 -17 -16 -13 -17 -12 -4 4 13 16 21 21 21 13z m240 -81 c-41 -41
-77 -75 -79 -75 -3 0 28 34 69 75 41 41 77 75 79 75 3 0 -28 -34 -69 -75z
m120 -228 c0 -2 -15 -16 -32 -33 l-33 -29 29 33 c28 30 36 37 36 29z m-411
-77 c-18 -22 -34 -40 -37 -40 -5 0 12 24 42 58 33 37 29 25 -5 -18z m-162
-332 c-3 -8 -6 -5 -6 6 -1 11 2 17 5 13 3 -3 4 -12 1 -19z m-1146 -665 c-12
-20 -14 -14 -5 12 4 9 9 14 11 11 3 -2 0 -13 -6 -23z m479 13 c0 -2 -8 -10
-17 -17 -16 -13 -17 -12 -4 4 13 16 21 21 21 13z m43 -103 c-13 -2 -33 -2 -45
0 -13 2 -3 4 22 4 25 0 35 -2 23 -4z m290 0 c-7 -2 -19 -2 -25 0 -7 3 -2 5 12
5 14 0 19 -2 13 -5z m92 -13 c27 -7 27 -8 5 -8 -14 0 -38 4 -55 8 -27 7 -27 8
-5 8 14 0 39 -4 55 -8z m83 -17 c-10 -2 -26 -2 -35 0 -10 3 -2 5 17 5 19 0 27
-2 18 -5z m85 -10 c-13 -2 -33 -2 -45 0 -13 2 -3 4 22 4 25 0 35 -2 23 -4z
m-3212 -150 c-12 -20 -14 -14 -5 12 4 9 9 14 11 11 3 -2 0 -13 -6 -23z m-35
-99 c-14 -38 -25 -64 -25 -58 -1 15 40 136 45 131 2 -2 -7 -35 -20 -73z m2861
60 c-3 -3 -12 -4 -19 -1 -8 3 -5 6 6 6 11 1 17 -2 13 -5z m-877 -8 c0 -2 -8
-10 -17 -17 -16 -13 -17 -12 -4 4 13 16 21 21 21 13z m-30 -40 c0 -2 -8 -10
-17 -17 -16 -13 -17 -12 -4 4 13 16 21 21 21 13z m-30 -40 c0 -2 -8 -10 -17
-17 -16 -13 -17 -12 -4 4 13 16 21 21 21 13z m40 -40 c0 -2 -8 -10 -17 -17
-16 -13 -17 -12 -4 4 13 16 21 21 21 13z m-80 -10 c0 -2 -8 -10 -17 -17 -16
-13 -17 -12 -4 4 13 16 21 21 21 13z m-1923 -48 c-3 -8 -6 -5 -6 6 -1 11 2 17
5 13 3 -3 4 -12 1 -19z m1973 18 c0 -2 -8 -10 -17 -17 -16 -13 -17 -12 -4 4
13 16 21 21 21 13z m-80 -10 c0 -2 -8 -10 -17 -17 -16 -13 -17 -12 -4 4 13 16
21 21 21 13z m-1903 -48 c-3 -8 -6 -5 -6 6 -1 11 2 17 5 13 3 -3 4 -12 1 -19z
m1863 -2 c0 -2 -8 -10 -17 -17 -16 -13 -17 -12 -4 4 13 16 21 21 21 13z
m-1873 -38 c-3 -8 -6 -5 -6 6 -1 11 2 17 5 13 3 -3 4 -12 1 -19z m3024 -6
c-13 -2 -27 0 -32 5 -6 6 3 7 23 4 28 -4 29 -6 9 -9z m-1181 4 c0 -2 -8 -10
-17 -17 -16 -13 -17 -12 -4 4 13 16 21 21 21 13z m527 -2 c-3 -3 -12 -4 -19
-1 -8 3 -5 6 6 6 11 1 17 -2 13 -5z m586 -1 c-13 -2 -33 -2 -45 0 -13 2 -3 4
22 4 25 0 35 -2 23 -4z m-110 -10 c-24 -2 -62 -2 -85 0 -24 2 -5 4 42 4 47 0
66 -2 43 -4z m-2856 -35 c-3 -7 -5 -2 -5 12 0 14 2 19 5 13 2 -7 2 -19 0 -25z
m1823 8 c0 -2 -8 -10 -17 -17 -16 -13 -17 -12 -4 4 13 16 21 21 21 13z m70 0
c0 -2 -8 -10 -17 -17 -16 -13 -17 -12 -4 4 13 16 21 21 21 13z m-1903 -58 c-3
-7 -5 -2 -5 12 0 14 2 19 5 13 2 -7 2 -19 0 -25z m1803 18 c0 -2 -8 -10 -17
-17 -16 -13 -17 -12 -4 4 13 16 21 21 21 13z m-1813 -68 c-3 -7 -5 -2 -5 12 0
14 2 19 5 13 2 -7 2 -19 0 -25z m2491 -29 c140 -17 208 -20 322 -15 80 3 159
8 175 11 27 5 28 5 7 -5 -13 -5 -73 -14 -133 -20 -112 -9 -194 -5 -449 25
-131 15 -176 13 -265 -11 -20 -5 -20 -5 0 7 53 33 118 35 343 8z m-2501 -31
c-3 -7 -5 -2 -5 12 0 14 2 19 5 13 2 -7 2 -19 0 -25z m-10 -65 c-3 -10 -5 -2
-5 17 0 19 2 27 5 18 2 -10 2 -26 0 -35z m-10 -70 c-3 -10 -5 -2 -5 17 0 19 2
27 5 18 2 -10 2 -26 0 -35z m1683 34 c0 -2 -10 -12 -22 -23 l-23 -19 19 23
c18 21 26 27 26 19z m-1693 -119 c-2 -13 -4 -5 -4 17 -1 22 1 32 4 23 2 -10 2
-28 0 -40z m-718 -78 c-8 -67 0 -186 17 -270 4 -20 3 -22 -5 -8 -28 42 -37
284 -14 345 10 25 10 9 2 -67z m708 -22 c-2 -13 -4 -3 -4 22 0 25 2 35 4 23 2
-13 2 -33 0 -45z m-10 -120 c-2 -18 -4 -6 -4 27 0 33 2 48 4 33 2 -15 2 -42 0
-60z m1433 79 c0 -1 -24 -25 -52 -52 l-53 -50 50 53 c46 48 55 57 55 49z
m1295 -87 c-3 -5 -12 -10 -18 -10 -7 0 -6 4 3 10 19 12 23 12 15 0z m-2738
-127 c-2 -21 -4 -6 -4 32 0 39 2 55 4 38 2 -18 2 -50 0 -70z m2583 70 c-118
-38 -192 -45 -505 -48 -305 -2 -437 -12 -545 -40 -56 -15 -81 -12 -39 4 68 25
241 43 494 51 149 5 305 14 348 20 44 6 81 9 84 7 2 -3 -33 -10 -79 -16 -133
-18 -139 -20 -38 -15 52 2 140 15 195 28 114 27 151 31 85 9z m-442 -60 c-32
-2 -84 -2 -115 0 -32 2 -6 3 57 3 63 0 89 -1 58 -3z m-270 -10 c-10 -2 -28 -2
-40 0 -13 2 -5 4 17 4 22 1 32 -1 23 -4z m-1881 -145 c-2 -18 -4 -4 -4 32 0
36 2 50 4 33 2 -18 2 -48 0 -65z m1063 -31 c0 -2 -19 -21 -42 -42 l-43 -40 40
43 c36 39 45 47 45 39z m-1073 -89 c-2 -18 -4 -6 -4 27 0 33 2 48 4 33 2 -15
2 -42 0 -60z m-10 -105 c-2 -16 -4 -5 -4 22 0 28 2 40 4 28 2 -13 2 -35 0 -50z
m-1212 -33 c3 -5 1 -10 -4 -10 -6 0 -11 5 -11 10 0 6 2 10 4 10 3 0 8 -4 11
-10z m792 -12 c-3 -8 -6 -5 -6 6 -1 11 2 17 5 13 3 -3 4 -12 1 -19z m410 -50
c-2 -13 -4 -3 -4 22 0 25 2 35 4 23 2 -13 2 -33 0 -45z m-400 -70 c-2 -18 -4
-4 -4 32 0 36 2 50 4 33 2 -18 2 -48 0 -65z m388 -28 c-4 -34 -9 -59 -12 -57
-2 3 -1 33 3 66 4 34 9 60 11 57 3 -3 2 -32 -2 -66z m-378 -382 c-1 -68 -3
-13 -3 122 0 135 2 190 3 123 2 -68 2 -178 0 -245z m348 196 c-10 -52 -19 -93
-22 -91 -2 3 4 50 14 106 10 57 19 98 21 92 2 -6 -4 -54 -13 -107z m475 6
c-12 -16 -24 -30 -26 -30 -3 0 4 14 16 30 12 17 24 30 26 30 3 0 -4 -13 -16
-30z m-90 -130 c-12 -16 -24 -30 -26 -30 -3 0 4 14 16 30 12 17 24 30 26 30 3
0 -4 -13 -16 -30z m-434 -97 c-41 -162 -140 -442 -152 -431 -1 2 15 48 37 103
40 100 96 280 120 389 7 33 14 55 16 49 2 -6 -7 -56 -21 -110z m-309 -185 c-2
-18 -4 -6 -4 27 0 33 2 48 4 33 2 -15 2 -42 0 -60z m-12 -113 c-4 -37 -9 -65
-11 -62 -3 2 -2 34 2 71 4 37 9 64 12 62 2 -3 1 -35 -3 -71z m-18 -112 c-3
-10 -5 -4 -5 12 0 17 2 24 5 18 2 -7 2 -21 0 -30z m-42 -200 c-20 -82 -43
-161 -51 -178 -8 -16 -12 -21 -8 -10 20 67 84 329 85 348 1 16 2 18 6 5 2 -10
-12 -84 -32 -165z m196 98 c-17 -34 -33 -61 -36 -61 -3 0 10 29 27 65 18 35
34 63 36 61 2 -2 -11 -31 -27 -65z m-1914 -293 c-3 -8 -6 -5 -6 6 -1 11 2 17
5 13 3 -3 4 -12 1 -19z m-100 -40 c-2 -13 -4 -5 -4 17 -1 22 1 32 4 23 2 -10
2 -28 0 -40z m-10 -225 c-2 -37 -3 -9 -3 62 0 72 1 102 3 68 2 -34 2 -93 0
-130z m149 -60 c-10 -10 -19 5 -10 18 6 11 8 11 12 0 2 -7 1 -15 -2 -18z
m-139 -90 c-2 -16 -4 -3 -4 27 0 30 2 43 4 28 2 -16 2 -40 0 -55z m10 -85 c-2
-13 -4 -5 -4 17 -1 22 1 32 4 23 2 -10 2 -28 0 -40z m21 -138 c0 -16 -3 -10
-9 15 -4 22 -8 54 -7 70 0 22 3 19 9 -15 4 -25 7 -56 7 -70z m9 -67 c-3 -10
-5 -4 -5 12 0 17 2 24 5 18 2 -7 2 -21 0 -30z m41 -218 c0 -11 -9 21 -19 70
-10 50 -18 99 -17 110 0 11 8 -20 19 -70 10 -49 18 -99 17 -110z m47 -239 c19
-109 35 -208 34 -220 -1 -20 -63 317 -74 399 -12 91 7 7 40 -179z m42 -298
c-2 -13 -4 -5 -4 17 -1 22 1 32 4 23 2 -10 2 -28 0 -40z m10 -90 c-2 -13 -4
-3 -4 22 0 25 2 35 4 23 2 -13 2 -33 0 -45z m2120 -4 c-3 -3 -12 -4 -19 -1 -8
3 -5 6 6 6 11 1 17 -2 13 -5z m-50 -10 c-3 -3 -12 -4 -19 -1 -8 3 -5 6 6 6 11
1 17 -2 13 -5z m-60 -10 c-3 -3 -12 -4 -19 -1 -8 3 -5 6 6 6 11 1 17 -2 13 -5z
m-2000 -96 c-2 -18 -4 -4 -4 32 0 36 2 50 4 33 2 -18 2 -48 0 -65z m1946 85
c-7 -2 -19 -2 -25 0 -7 3 -2 5 12 5 14 0 19 -2 13 -5z m-60 -10 c-7 -2 -19 -2
-25 0 -7 3 -2 5 12 5 14 0 19 -2 13 -5z m-116 -19 c-3 -3 -12 -4 -19 -1 -8 3
-5 6 6 6 11 1 17 -2 13 -5z m-320 -70 c-3 -3 -12 -4 -19 -1 -8 3 -5 6 6 6 11
1 17 -2 13 -5z m-1440 -196 c-2 -35 -3 -9 -3 57 0 66 1 94 3 63 2 -32 2 -86 0
-120z m-10 -155 c-2 -16 -4 -5 -4 22 0 28 2 40 4 28 2 -13 2 -35 0 -50z m-10
-80 c-3 -10 -5 -4 -5 12 0 17 2 24 5 18 2 -7 2 -21 0 -30z m-10 -65 c-3 -7 -5
-2 -5 12 0 14 2 19 5 13 2 -7 2 -19 0 -25z m581 -525 c-15 -2 -42 -2 -60 0
-18 2 -6 4 27 4 33 0 48 -2 33 -4z m-135 -10 c-13 -2 -35 -2 -50 0 -16 2 -5 4
22 4 28 0 40 -2 28 -4z m295 0 c-15 -2 -42 -2 -60 0 -18 2 -6 4 27 4 33 0 48
-2 33 -4z m-400 -10 c-10 -2 -28 -2 -40 0 -13 2 -5 4 17 4 22 1 32 -1 23 -4z
m500 0 c-10 -2 -28 -2 -40 0 -13 2 -5 4 17 4 22 1 32 -1 23 -4z m-590 -10
c-10 -2 -26 -2 -35 0 -10 3 -2 5 17 5 19 0 27 -2 18 -5z m700 0 c-10 -2 -28
-2 -40 0 -13 2 -5 4 17 4 22 1 32 -1 23 -4z m-765 -10 c-7 -2 -21 -2 -30 0
-10 3 -4 5 12 5 17 0 24 -2 18 -5z m855 0 c-10 -2 -26 -2 -35 0 -10 3 -2 5 17
5 19 0 27 -2 18 -5z m-915 -10 c-7 -2 -19 -2 -25 0 -7 3 -2 5 12 5 14 0 19 -2
13 -5z m-46 -9 c-3 -3 -12 -4 -19 -1 -8 3 -5 6 6 6 11 1 17 -2 13 -5z m-40
-10 c-3 -3 -12 -4 -19 -1 -8 3 -5 6 6 6 11 1 17 -2 13 -5z m1150 -104 c-16 -5
-66 -11 -110 -14 l-82 -5 90 13 c108 16 141 18 102 6z m-214 -27 c-13 -2 -33
-2 -45 0 -13 2 -3 4 22 4 25 0 35 -2 23 -4z m-115 -10 c-15 -2 -42 -2 -60 0
-18 2 -6 4 27 4 33 0 48 -2 33 -4z m-140 -10 c-21 -2 -55 -2 -75 0 -21 2 -4 4
37 4 41 0 58 -2 38 -4z m-140 -10 c-15 -2 -42 -2 -60 0 -18 2 -6 4 27 4 33 0
48 -2 33 -4z m-125 -10 c-13 -2 -33 -2 -45 0 -13 2 -3 4 22 4 25 0 35 -2 23
-4z m-177 -24 c-60 -10 -111 -17 -113 -15 -6 6 147 34 187 34 19 0 -14 -8 -74
-19z m-129 -25 c-3 -3 -12 -4 -19 -1 -8 3 -5 6 6 6 11 1 17 -2 13 -5z m-67
-19 c-19 -7 -42 -13 -50 -13 -8 0 1 6 20 13 19 7 42 13 50 13 8 0 -1 -6 -20
-13z m-80 -25 c-8 -5 -19 -10 -25 -10 -5 0 -3 5 5 10 8 5 20 10 25 10 6 0 3
-5 -5 -10z m-41 -14 c-10 -9 -89 -46 -89 -41 0 6 72 44 84 45 5 0 7 -2 5 -4z"/>
</g>
</svg>
