<svg xmlns="http://www.w3.org/2000/svg" style="background: none;" preserveAspectRatio="xMidYMid" viewBox="-67.61 28.1 671.2 220.2"><defs><filter id="editing-hover" x="-100%" y="-100%" width="300%" height="300%"><feFlood flood-color="#596886" result="flood"/><feComposite operator="in" in2="SourceAlpha" in="flood" result="shadow"/><feOffset dx="-4" dy="-4" in="SourceGraphic" result="offset-1"/><feOffset dx="4" dy="4" in="shadow" result="offset-2"/><feMerge><feMergeNode in="offset-2"/><feMergeNode in="offset-1"/></feMerge></filter></defs><g filter="url(#editing-hover)"><g transform="translate(-65.41457056999207, 185.10000228881836)"><path d="M28.40-3.80L28.40-3.80L28.40-3.80Q31-3.40 32-3.40L32-3.40L32-3.40Q40-3.40 47.80-12.80L47.80-12.80L47.80-12.80Q52-18 62.80-39L62.80-39L62.80-39Q63.20-40 64.20-40L64.20-40L64.20-40Q66-40.20 66-38.60L66-38.60L66-38.60Q66-38.20 65.10-36.30L65.10-36.30L65.10-36.30Q64.20-34.40 63.40-32.50L63.40-32.50L63.40-32.50Q62.60-30.60 60.80-27L60.80-27L60.80-27Q59-23.40 57.70-21.20L57.70-21.20L57.70-21.20Q56.40-19 54.40-15.80L54.40-15.80L54.40-15.80Q52.40-12.60 50.40-10.80L50.40-10.80L46.20-6.40L46.20-6.40Q42.80-3 38.20-1.60L38.20-1.60L38.20-1.60Q30.80 0.80 23.80-1.20L23.80-1.20L23.80-1.20Q19.20 0.80 15.60 0.80L15.60 0.80L15.60 0.80Q1.40 0.80-1.60-10.40L-1.60-10.40L-1.60-10.40Q-2.20-13-2.20-16.70L-2.20-16.70L-2.20-16.70Q-2.20-20.40 0.30-23.80L0.30-23.80L0.30-23.80Q2.80-27.20 5.60-27.40L5.60-27.40L5.60-27.40Q15.80-46.80 23-62.40L23-62.40L23-62.40Q31-79.40 41.60-79.40L41.60-79.40L41.60-79.40Q44.40-79.40 47.10-78.10L47.10-78.10L47.10-78.10Q49.80-76.80 49.10-75.20L49.10-75.20L49.10-75.20Q48.40-73.60 46.20-74.60L46.20-74.60L46.20-74.60Q44-75.60 42.40-75.60L42.40-75.60L42.40-75.60Q40.80-75.60 39.60-75L39.60-75L39.60-75Q32.80-71.80 32.80-61.20L32.80-61.20L32.80-61.20Q32.80-55.60 34.40-52L34.40-52L34.40-52Q36-48.40 38-44.20L38-44.20L38-44.20Q42.60-33.80 42.60-27.20L42.60-27.20L42.60-27.20Q42.60-20.60 38.40-14.20L38.40-14.20L38.40-14.20Q34.20-7.80 28.40-3.80ZM21.60-5.20L21.60-5.20L21.60-5.20Q30.40-12 30.40-27.20L30.40-27.20L30.40-27.20Q30.40-33.40 29-44.20L29-44.20L29-44.20Q27.60-55 27.60-58.80L27.60-58.80L27.60-58.80Q27.60-62.60 27.80-64L27.80-64L27.80-64Q12.60-33.60 9-27L9-27L9-27Q13.20-27 13.20-21L13.20-21L13.20-21Q13.20-9.20 21.60-5.20ZM6.60-10.60L6.60-10.60L6.60-10.60Q6.60-9.40 6.80-8L6.80-8L6.80-8Q8.40-2.60 14.20-2.60L14.20-2.60L14.20-2.60Q16.60-2.60 18.20-3.40L18.20-3.40L18.20-3.40Q10.80-8 10.20-18.40L10.20-18.40L10.20-18.40Q6.60-14.80 6.60-10.60ZM99-70L99-70L99-70Q113.60-70 113.60-51.60L113.60-51.60L113.60-51.60Q113.60-43.20 109.20-33.60L109.20-33.60L109.20-33.60Q103.60-20.60 92.40-10L92.40-10L92.40-10Q95-5 101.80-5L101.80-5L101.80-5Q107.20-5 112-10.40L112-10.40L112-10.40Q118-16.60 120.60-21.30L120.60-21.30L120.60-21.30Q123.20-26 124.40-28.20L124.40-28.20L124.40-28.20Q125.60-30.40 127.50-34.50L127.50-34.50L127.50-34.50Q129.40-38.60 129.80-39.50L129.80-39.50L129.80-39.50Q130.20-40.40 131.20-40.40L131.20-40.40L131.20-40.40Q133.20-40.60 133.20-39L133.20-39L133.20-39Q133.20-38.40 132.80-37.60L132.80-37.60L131.60-34.80L131.60-34.80Q130.40-32 129.80-30.80L129.80-30.80L129.80-30.80Q129.20-29.60 127.70-26.50L127.70-26.50L127.70-26.50Q126.20-23.40 125.10-21.60L125.10-21.60L125.10-21.60Q124-19.80 122.10-16.80L122.10-16.80L122.10-16.80Q120.20-13.80 118.70-12L118.70-12L118.70-12Q117.20-10.20 115-8L115-8L115-8Q112.80-5.80 110.80-4.60L110.80-4.60L110.80-4.60Q105.80-1.60 101.40-1.60L101.40-1.60L101.40-1.60Q93.20-1.60 88.60-6.80L88.60-6.80L88.60-6.80Q79.40 0 71.60 0L71.60 0L71.60 0Q57 0 57-18.40L57-18.40L57-18.40Q57-26.80 61.40-36.40L61.40-36.40L61.40-36.40Q67.40-50.40 78.30-60.20L78.30-60.20L78.30-60.20Q89.20-70 99-70ZM101.20-63.80L101.20-63.80L101.20-63.80Q95.80-63.80 88.40-56.60L88.40-56.60L88.40-56.60Q81-49.40 75.20-37L75.20-37L75.20-37Q68.20-22.60 68.20-13.40L68.20-13.40L68.20-13.40Q68.20-4.20 75.20-4.20L75.20-4.20L75.20-4.20Q80.20-4.20 86.40-9.60L86.40-9.60L86.40-9.60Q83.20-14.20 83.20-19.40L83.20-19.40L83.20-19.40Q83.60-28 90.20-28L90.20-28L90.20-28Q92.80-28 94.50-26.20L94.50-26.20L94.50-26.20Q96.20-24.40 96.20-22.90L96.20-22.90L96.20-22.90Q96.20-21.40 95.80-19.80L95.80-19.80L95.80-19.80Q99.20-24.80 103.60-34L103.60-34L103.60-34Q108.60-44.20 108.60-54L108.60-54L108.60-54Q108.60-63.80 101.20-63.80ZM190-65.60L190-65.60L190-65.60Q165.40-22.40 165.40-9.20L165.40-9.20L165.40-9.20Q165.40-4 169.20-4L169.20-4L169.20-4Q179.40-4 196.60-38.60L196.60-38.60L196.60-38.60Q197.80-41.40 199-40.80L199-40.80L199-40.80Q200.20-40.20 200.20-39.20L200.20-39.20L200.20-39.20Q200.20-38.20 199.40-36.80L199.40-36.80L199.40-36.80Q188.80-15.40 181.50-7.30L181.50-7.30L181.50-7.30Q174.20 0.80 166.90 0.80L166.90 0.80L166.90 0.80Q159.60 0.80 155.80-4.80L155.80-4.80L155.80-4.80Q153.80-7.40 153.80-11.90L153.80-11.90L153.80-11.90Q153.80-16.40 155.80-22.80L155.80-22.80L155.80-22.80Q157.80-29.20 166.80-43.60L166.80-43.60L166.80-43.60Q169-47.20 169-49.30L169-49.30L169-49.30Q169-51.40 165.60-51.40L165.60-51.40L165.60-51.40Q162.20-51.40 152.60-42.40L152.60-42.40L152.60-42.40Q138.20-29.20 124.80-2.80L124.80-2.80L124.80-2.80Q123.60-0.80 122.10-0.30L122.10-0.30L122.10-0.30Q120.60 0.20 116.20 0.40L116.20 0.40L116.20 0.40Q111.80 0.60 110.40 1.40L110.40 1.40L110.40 1.40Q113.60-5 123-24.80L123-24.80L123-24.80Q139.80-59.80 145-64.80L145-64.80L145-64.80Q147.40-67.20 151.60-67.20L151.60-67.20L151.60-67.20Q152.40-67.20 155.70-66.60L155.70-66.60L155.70-66.60Q159-66 160.60-66.40L160.60-66.40L160.60-66.40Q153.20-62.40 136.40-28.80L136.40-28.80L136.40-28.80Q145.80-40.40 153.50-47.30L153.50-47.30L153.50-47.30Q161.20-54.20 172-60.10L172-60.10L172-60.10Q182.80-66 187.80-66L187.80-66L187.80-66Q189-66 190-65.60ZM182.80 63.20L182.80 63.20L182.80 63.20Q164 63.20 164 47.80L164 47.80L164 47.80Q164 35 181.40 24.80L181.40 24.80L181.40 24.80Q196.20 16.20 219.20 8.60L219.20 8.60L219.20 8.60Q229.80 5.20 234.60 3.20L234.60 3.20L234.60 3.20Q239.80-12 239.80-30L239.80-30L239.80-30Q239.80-33.60 239.40-35.40L239.40-35.40L239.40-35.40Q233.80-24 224-12L224-12L224-12Q212.40 2.40 201-0.80L201-0.80L201-0.80Q190.60-5.20 190.60-18L190.60-18L190.60-18Q190.60-35.20 207.80-55.80L207.80-55.80L207.80-55.80Q217.20-67 229.80-70L229.80-70L229.80-70Q233.20-71 236.60-71L236.60-71L236.60-71Q245.60-71 254.20-65L254.20-65L254.20-65Q257.40-62.40 257.40-60.60L257.40-60.60L257.40-60.60Q257.40-58.80 256.20-57.10L256.20-57.10L256.20-57.10Q255-55.40 253.70-56.70L253.70-56.70L253.70-56.70Q252.40-58 252-59.20L252-59.20L252-59.20Q249.40-66.60 243.60-66.60L243.60-66.60L243.60-66.60Q233-66.60 219.80-51.80L219.80-51.80L219.80-51.80Q212.40-43.40 207-33.80L207-33.80L207-33.80Q200.40-21.80 200.40-15.30L200.40-15.30L200.40-15.30Q200.40-8.80 204.40-6.60L204.40-6.60L204.40-6.60Q205.80-6 207.20-6L207.20-6L207.20-6Q211.80-6 218.70-12.30L218.70-12.30L218.70-12.30Q225.60-18.60 231.50-28.30L231.50-28.30L231.50-28.30Q237.40-38 239-43.40L239-43.40L239-43.40Q240.60-48.80 242.90-50.20L242.90-50.20L242.90-50.20Q245.20-51.60 248-51.80L248-51.80L248-51.80Q250.80-52 251.80-52.80L251.80-52.80L251.80-52.80Q253.40-43.80 253.40-31.70L253.40-31.70L253.40-31.70Q253.40-19.60 249.20-4.20L249.20-4.20L249.20-4.20Q258.40-10.80 262.30-16L262.30-16L262.30-16Q266.20-21.20 268.50-25.40L268.50-25.40L268.50-25.40Q270.80-29.60 272.60-33.70L272.60-33.70L272.60-33.70Q274.40-37.80 275-39L275-39L275-39Q275.60-40.20 277-40.50L277-40.50L277-40.50Q278.40-40.80 278.40-39.20L278.40-39.20L278.40-39.20Q278.40-38.20 277.80-36.80L277.80-36.80L277.80-36.80Q269-18.60 263.10-10.50L263.10-10.50L263.10-10.50Q257.20-2.40 247 2.40L247 2.40L247 2.40Q242.20 16 233.10 29.40L233.10 29.40L233.10 29.40Q224 42.80 210.20 53L210.20 53L210.20 53Q196.40 63.20 182.80 63.20ZM168.20 51.60L168.20 51.60L168.20 51.60Q168.20 59.20 178 59.20L178 59.20L178 59.20Q183.80 59.20 191.10 55.80L191.10 55.80L191.10 55.80Q198.40 52.40 203.20 48.80L203.20 48.80L203.20 48.80Q211.40 42.20 221.20 29.20L221.20 29.20L221.20 29.20Q228.60 18.80 232.60 9L232.60 9L225.60 11.40L225.60 11.40Q194.40 22.20 181.60 30.60L181.60 30.60L181.60 30.60Q172.20 36.80 169.20 46.40L169.20 46.40L169.20 46.40Q168.20 49.40 168.20 51.60ZM471.20-38.40L471.20-38.40L471.20-38.40Q471.20-27 463-17.20L463-17.20L463-17.20Q451.40-3.20 432 3L432 3L432 3Q417.60 7.60 404 7.60L404 7.60L404 7.60Q399 7.60 394.20 7L394.20 7L394.20 7Q362.80 3 341-6.80L341-6.80L341-6.80Q321.20 7.80 299.20 7.80L299.20 7.80L299.20 7.80Q273.20 7.80 267-6.60L267-6.60L267-6.60Q265.60-10 265.60-14.60L265.60-14.60L265.60-14.60Q265.60-19.20 270.20-24.40L270.20-24.40L270.20-24.40Q277.40-32.40 290.20-32.40L290.20-32.40L290.20-32.40Q298.60-32.40 305.40-30L305.40-30L305.40-30Q312.20-27.60 322.20-22.20L322.20-22.20L322.20-22.20Q332.20-16.80 337-14.40L337-14.40L337-14.40Q345.80-23 355.20-38.30L355.20-38.30L355.20-38.30Q364.60-53.60 371.70-68.30L371.70-68.30L371.70-68.30Q378.80-83 389.80-101L389.80-101L389.80-101Q400.80-119 412.20-131.60L412.20-131.60L423.60-144.60L423.60-144.60Q407.80-147.40 388.80-147.40L388.80-147.40L388.80-147.40Q369.80-147.40 347-142.40L347-142.40L347-142.40Q315.80-135.80 299-115.60L299-115.60L299-115.60Q288.80-103.40 288.80-92.40L288.80-92.40L288.80-92.40Q288.80-77.80 303-73.40L303-73.40L303-73.40Q308-72 311.80-72L311.80-72L311.80-72Q315.60-72 320.60-73.40L320.60-73.40L320.60-73.40Q325.60-74.80 330.30-79.30L330.30-79.30L330.30-79.30Q335-83.80 337.10-88L337.10-88L337.10-88Q339.20-92.20 339.20-94.30L339.20-94.30L339.20-94.30Q339.20-96.40 341.20-96.40L341.20-96.40L341.20-96.40Q343.20-96.20 343.40-93.60L343.40-93.60L343.40-93.40L343.40-93.40Q341.20-78.80 327.80-71.20L327.80-71.20L327.80-71.20Q319.60-66.80 311.40-66.80L311.40-66.80L301-68.60L301-68.60Q279.80-76 279.80-96.20L279.80-96.20L279.80-96.20Q279.80-110 292-123.40L292-123.40L292-123.40Q311.60-145.40 349.60-150.80L349.60-150.80L349.60-150.80Q368-153.40 387.90-153.40L387.90-153.40L387.90-153.40Q407.80-153.40 428.40-149L428.40-149L428.40-149Q434-153.80 438.20-155.40L438.20-155.40L438.20-155.40Q442.40-157 443.10-157L443.10-157L443.10-157Q443.80-157 444-156.80L444-156.80L444-156.80Q445.20-156.80 444.50-155.50L444.50-155.50L444.50-155.50Q443.80-154.20 440.10-151.80L440.10-151.80L440.10-151.80Q436.40-149.40 435.60-147.40L435.60-147.40L435.60-147.40Q462.80-140.40 474.80-127.40L474.80-127.40L474.80-127.40Q481.20-120.20 481.20-112.70L481.20-112.70L481.20-112.70Q481.20-105.20 476.80-97.60L476.80-97.60L476.80-97.60Q471-87.60 458-82.50L458-82.50L458-82.50Q445-77.40 431.80-76.80L431.80-76.80L431.80-76.80Q444.60-72.80 455.60-65.60L455.60-65.60L455.60-65.60Q471.20-55.40 471.20-38.40ZM401.20 2L401.20 2L401.20 2Q423.60 2 439.20-10.80L439.20-10.80L439.20-10.80Q456.20-24.40 456.20-40.20L456.20-40.20L456.20-40.20Q456.20-56.60 438.80-65L438.80-65L438.80-65Q432.40-68 423.10-70.90L423.10-70.90L423.10-70.90Q413.80-73.80 408.10-75.80L408.10-75.80L408.10-75.80Q402.40-77.80 401.60-79.60L401.60-79.60L401.60-79.60Q401.60-83.40 407.40-83.60L407.40-83.60L407.40-83.60Q411.20-83.60 419-83L419-83L419-83Q426.80-82.40 432.40-82.50L432.40-82.50L432.40-82.50Q438-82.60 445.90-86.50L445.90-86.50L445.90-86.50Q453.80-90.40 459.40-96.60L459.40-96.60L459.40-96.60Q468.40-106.60 468.40-115.40L468.40-115.40L468.40-115.40Q468.40-134.20 433.20-142.40L433.20-142.40L433.20-142.40Q422.60-127.80 395.20-80.70L395.20-80.70L395.20-80.70Q367.80-33.60 353-17.60L353-17.60L345.40-10.40L345.40-10.40Q368-1 394 1.60L394 1.60L394 1.60Q397.80 2 401.20 2ZM332.60-10.60L332.60-10.60L332.60-10.60Q309.20-21.80 303-24L303-24L303-24Q296.80-26.20 290.70-26.20L290.70-26.20L290.70-26.20Q284.60-26.20 281-21.90L281-21.90L281-21.90Q277.40-17.60 277.40-14.10L277.40-14.10L277.40-14.10Q277.40-10.60 279-7.40L279-7.40L279-7.40Q283.40 1.60 297.40 1.60L297.40 1.60L297.40 1.60Q316.40 1.60 332.60-10.60ZM510.60-77.80L510.60-77.80L510.60-77.80Q507.80-75.40 504.40-75.40L504.40-75.40L504.40-75.40Q501.00-75.40 499.00-77.80L499.00-77.80L499.00-77.80Q497.00-80.20 497.40-83.60L497.40-83.60L497.40-83.60Q498.00-87 500.80-89.40L500.80-89.40L500.80-89.40Q503.60-91.80 507.00-91.80L507.00-91.80L507.00-91.80Q510.40-91.80 512.50-89.40L512.50-89.40L512.50-89.40Q514.60-87 514.00-83.60L514.00-83.60L514.00-83.60Q513.40-80.20 510.60-77.80ZM491.00-4.40L491.00-4.40L491.00-4.40Q494.80-4.40 499.00-8.20L499.00-8.20L499.00-8.20Q506.40-15.60 517.80-38.40L517.80-38.40L517.80-38.40Q519.20-41.40 520.60-40.20L520.60-40.20L520.60-40.20Q521.00-39.80 521.00-38.90L521.00-38.90L521.00-38.90Q521.00-38 519.40-34.50L519.40-34.50L519.40-34.50Q517.80-31 516.50-28.20L516.50-28.20L516.50-28.20Q515.20-25.40 511.50-19.10L511.50-19.10L511.50-19.10Q507.80-12.80 504.80-9.40L504.80-9.40L504.80-9.40Q496.60 0 489.30 0L489.30 0L489.30 0Q482.00 0 478.80-4.40L478.80-4.40L478.80-4.40Q475.60-8.80 475.60-14.20L475.60-14.20L475.60-14.20Q475.60-19.60 478.20-26L478.20-26L491.00-58.60L491.00-58.60Q491.40-59.80 491.40-61.80L491.40-61.80L491.40-61.80Q491.40-63.80 489.00-67L489.00-67L500.00-67.20L500.00-67.20Q504.60-67.20 505.40-65.50L505.40-65.50L505.40-65.50Q506.20-63.80 504.20-60.20L504.20-60.20L488.20-22.80L488.20-22.80Q484.80-15.40 484.80-10.20L484.80-10.20L484.80-10.20Q484.80-4.40 491.00-4.40ZM544.80-80.20L544.80-80.20L544.80-80.20Q544.80-71.20 533.40-63.20L533.40-63.20L533.40-63.20Q537.40-63 544.10-63L544.10-63L544.10-63Q550.80-63 561.00-64L561.00-64L561.00-64Q561.40-63.40 561.40-60.80L561.40-60.80L561.40-60.80Q561.40-58.20 559.00-53.10L559.00-53.10L559.00-53.10Q556.60-48 554.70-44.30L554.70-44.30L554.70-44.30Q552.80-40.60 551.10-37.30L551.10-37.30L551.10-37.30Q549.40-34 547.30-29.20L547.30-29.20L547.30-29.20Q545.20-24.40 543.80-20.40L543.80-20.40L543.80-20.40Q538.80-5.20 545.40-5.20L545.40-5.20L545.40-5.20Q553.80-5.20 570.20-38.60L570.20-38.60L570.20-38.60Q571.60-41.20 572.50-40.60L572.50-40.60L572.50-40.60Q573.40-40 573.40-39.10L573.40-39.10L573.40-39.10Q573.40-38.20 570.80-32.90L570.80-32.90L570.80-32.90Q568.20-27.60 565.20-22L565.20-22L565.20-22Q562.20-16.40 555.80-9L555.80-9L555.80-9Q548.20 0.20 541.20 0.20L541.20 0.20L541.20 0.20Q533.40 0.20 530.40-9.20L530.40-9.20L530.40-9.20Q529.80-11 529.80-14.60L529.80-14.60L529.80-14.60Q529.80-18.20 532.10-24.20L532.10-24.20L532.10-24.20Q534.40-30.20 539.40-38.80L539.40-38.80L539.40-38.80Q544.40-47.40 545.00-48.90L545.00-48.90L545.00-48.90Q545.60-50.40 545.60-51.80L545.60-51.80L545.60-51.80Q545.60-58 529.60-58.40L529.60-58.40L527.20-52L527.20-52Q514.60-19 503.00-7.80L503.00-7.80L503.00-7.80Q501.00-6 501.00-9L501.00-9L501.00-9Q501.00-9.60 501.40-10.40L501.40-10.40L501.40-10.40Q512.60-25.20 520.80-45.40L520.80-45.40L520.80-45.40Q529.00-65.60 532.20-83.80L532.20-83.80L532.20-83.80Q533.40-90 537.80-90L537.80-90L537.80-90Q542.20-90 544.20-84.40L544.20-84.40L544.20-84.40Q544.80-82.60 544.80-80.20ZM612.20-11.60L612.20-11.60L612.20-11.60Q612.20-5.20 617.40-5.20L617.40-5.20L617.40-5.20Q626.80-5.20 642.40-36.60L642.40-36.60L642.40-36.60Q643.00-37.80 643.50-39L643.50-39L643.50-39Q644.00-40.20 645.10-40.60L645.10-40.60L645.10-40.60Q646.20-41 646.60-40.10L646.60-40.10L646.60-40.10Q647.00-39.20 646.20-37.20L646.20-37.20L646.20-37.20Q630.20 0 613.80 0L613.80 0L613.80 0Q608.40 0 605.20-4.80L605.20-4.80L605.20-4.80Q602.00-9.60 602.00-14.30L602.00-14.30L602.00-14.30Q602.00-19 603.00-23L603.00-23L603.00-23Q591.40-3.80 583.00-1.20L583.00-1.20L583.00-1.20Q580.60-0.20 578.30-0.20L578.30-0.20L578.30-0.20Q576.00-0.20 573.80-0.80L573.80-0.80L573.80-0.80Q564.00-3.40 564.00-16.40L564.00-16.40L564.00-16.40Q564.00-25.20 568.50-35.90L568.50-35.90L568.50-35.90Q573.00-46.60 581.20-56.40L581.20-56.40L581.20-56.40Q589.40-66.20 601.00-69.60L601.00-69.60L601.00-69.60Q605.20-71 610.90-71L610.90-71L610.90-71Q616.60-71 623.60-67.40L623.60-67.40L623.60-67.40Q637.20-93 646.80-114.80L646.80-114.80L646.80-114.80Q649.60-121.40 652.30-123.30L652.30-123.30L652.30-123.30Q655.00-125.20 657.30-125.20L657.30-125.20L657.30-125.20Q659.60-125.20 660.10-125.20L660.10-125.20L660.10-125.20Q660.60-125.20 663.90-124.70L663.90-124.70L663.90-124.70Q667.20-124.20 669.00-124.40L669.00-124.40L669.00-124.40Q664.40-120.20 644.60-83.60L644.60-83.60L644.60-83.60Q619.40-36.80 614.20-21.20L614.20-21.20L614.20-21.20Q612.20-15.40 612.20-11.60ZM622.00-64.20L622.00-64.20L622.00-64.20Q619.40-66.80 614.70-66.80L614.70-66.80L614.70-66.80Q610.00-66.80 601.60-59.80L601.60-59.80L601.60-59.80Q588.20-48.60 579.40-32.20L579.40-32.20L579.40-32.20Q573.60-21.40 573.60-14.40L573.60-14.40L573.60-14.40Q573.60-11.20 574.90-8.60L574.90-8.60L574.90-8.60Q576.20-6 579.00-6L579.00-6L579.00-6Q585.80-6 595.80-20L595.80-20L595.80-20Q605.80-34 622.00-64.20Z" fill="#ffd5af"/></g></g><style>text {
  font-size: 64px;
  font-family: Arial Black;
  dominant-baseline: central;
  text-anchor: middle;
}</style></svg>