<?xml version="1.0" standalone="no"?>
<!DOCTYPE svg PUBLIC "-//W3C//DTD SVG 20010904//EN"
 "http://www.w3.org/TR/2001/REC-SVG-20010904/DTD/svg10.dtd">
<svg version="1.0" xmlns="http://www.w3.org/2000/svg"
 width="657.000000pt" height="1204.000000pt" viewBox="0 0 657.000000 1204.000000"
 preserveAspectRatio="xMidYMid meet">

<g transform="translate(0.000000,1204.000000) scale(0.100000,-0.100000)"
fill="#000000" stroke="none">
<path d="M3580 12029 c0 -8 32 -9 108 -4 59 4 109 9 111 11 2 2 -46 4 -107 4
-75 0 -112 -4 -112 -11z"/>
<path d="M3190 11990 c-12 -8 -11 -10 7 -10 12 0 25 5 28 10 8 13 -15 13 -35
0z"/>
<path d="M3120 11970 c-18 -12 -2 -12 25 0 13 6 15 9 5 9 -8 0 -22 -4 -30 -9z"/>
<path d="M2996 11951 c-4 -5 3 -7 14 -4 23 6 26 13 6 13 -8 0 -17 -4 -20 -9z"/>
<path d="M2923 11933 c9 -2 23 -2 30 0 6 3 -1 5 -18 5 -16 0 -22 -2 -12 -5z"/>
<path d="M2748 11892 c-70 -25 -121 -52 -73 -39 91 24 165 49 170 57 10 16
-14 11 -97 -18z"/>
<path d="M3162 11910 c-76 -18 -37 -26 66 -13 34 4 49 9 40 14 -16 10 -61 10
-106 -1z"/>
<path d="M3181 11849 c-47 -10 -89 -23 -94 -28 -11 -11 200 26 222 39 27 16
-34 10 -128 -11z"/>
<path d="M3965 11860 c-3 -5 0 -10 8 -10 8 0 30 -3 48 -7 31 -6 33 -5 20 10
-15 19 -66 23 -76 7z"/>
<path d="M3865 11850 c-11 -5 -14 -9 -7 -9 6 -1 12 -7 12 -15 0 -7 8 -16 19
-19 14 -3 18 2 19 24 1 30 -8 34 -43 19z"/>
<path d="M4300 11851 c0 -6 5 -13 10 -16 6 -3 10 1 10 9 0 9 -4 16 -10 16 -5
0 -10 -4 -10 -9z"/>
<path d="M3813 11838 c-12 -15 -28 -59 -25 -70 2 -10 -22 -10 -31 -1 -4 3 1
15 10 25 25 28 5 41 -45 29 -25 -5 -42 -5 -42 0 0 16 -63 9 -200 -21 -134 -30
-196 -48 -340 -97 -41 -14 -102 -32 -135 -40 -33 -8 -71 -20 -85 -28 -33 -17
-147 -41 -235 -50 -55 -6 -74 -12 -92 -31 -15 -17 -33 -24 -58 -24 -20 0 -43
-6 -51 -14 -8 -8 -47 -24 -87 -36 -39 -12 -108 -38 -152 -57 -44 -20 -101 -42
-128 -50 -88 -26 -201 -79 -287 -134 -47 -31 -107 -65 -135 -78 -27 -12 -63
-29 -78 -38 -16 -8 -30 -13 -33 -10 -8 8 61 55 167 112 57 31 111 63 120 71 8
8 25 14 36 14 11 0 26 7 33 15 7 8 28 17 49 21 20 4 47 12 61 20 14 7 50 21
80 30 30 9 73 29 95 42 60 38 186 92 217 92 15 0 30 5 34 11 12 19 -19 30 -75
26 -47 -3 -52 -2 -36 10 11 7 28 13 40 13 12 0 25 4 30 9 6 5 52 14 104 20 89
11 142 29 156 51 10 16 -16 12 -95 -15 -88 -30 -92 -30 -60 -4 l25 20 -64 -7
c-35 -3 -78 -10 -95 -15 -17 -5 -45 -9 -61 -9 -17 0 -35 -4 -40 -9 -6 -4 -32
-14 -60 -20 -27 -7 -57 -19 -66 -27 -9 -8 -79 -44 -154 -79 -103 -48 -151 -77
-190 -114 -29 -28 -86 -67 -127 -87 -41 -20 -79 -46 -84 -57 -5 -12 -24 -30
-43 -41 -29 -17 -38 -18 -68 -7 -29 11 -40 11 -59 0 -13 -7 -24 -19 -24 -26 0
-11 4 -11 21 -2 17 9 20 8 17 -2 -3 -8 -43 -42 -89 -76 -46 -35 -115 -94 -154
-132 -38 -38 -113 -102 -165 -141 -52 -40 -108 -85 -125 -100 -16 -15 -42 -30
-57 -34 -17 -4 -34 -18 -43 -36 -8 -16 -28 -44 -43 -62 -15 -18 -32 -42 -39
-53 -69 -115 -94 -154 -109 -166 -28 -23 45 103 108 188 32 42 67 95 78 117
11 23 61 86 110 141 148 164 201 239 146 208 -20 -11 -236 -245 -236 -255 0
-5 -7 -8 -15 -8 -8 0 -17 -11 -21 -25 -5 -21 -9 -23 -21 -14 -18 16 -20 13
-89 -106 -32 -55 -78 -127 -101 -160 -24 -33 -47 -71 -50 -85 -3 -14 -12 -35
-20 -47 -10 -14 -11 -22 -3 -25 8 -2 8 -11 2 -28 -8 -21 -5 -28 15 -41 25 -17
25 -17 5 -28 -12 -6 -30 -31 -40 -54 -11 -24 -44 -76 -75 -116 -31 -40 -91
-131 -133 -202 -43 -72 -81 -132 -85 -135 -19 -11 -21 71 -4 125 10 31 20 63
22 71 3 8 -7 2 -21 -14 l-25 -30 -4 50 c-2 34 -4 27 -4 -26 0 -41 2 -104 6
-140 6 -63 -7 -128 -30 -157 -12 -14 -109 -298 -138 -404 -11 -39 -18 -76 -15
-80 3 -5 27 -9 53 -9 26 0 51 -3 55 -7 4 -5 24 -8 44 -8 34 0 37 -2 33 -25 -1
-14 -8 -28 -14 -32 -7 -4 -1 -19 16 -41 14 -19 24 -37 22 -39 -9 -9 26 -109
69 -197 37 -76 45 -103 51 -176 7 -87 25 -125 58 -125 7 0 19 -15 25 -34 19
-51 102 -174 158 -233 84 -88 144 -160 138 -166 -3 -3 -17 -1 -31 4 -14 5 -28
8 -30 6 -6 -7 20 -23 84 -50 35 -14 76 -41 93 -59 16 -18 30 -28 30 -22 0 6
-9 19 -20 29 -11 10 -20 25 -20 33 0 10 10 7 35 -12 34 -26 36 -26 68 -11 31
15 40 15 108 0 41 -9 103 -22 138 -28 50 -9 66 -16 74 -34 20 -44 106 -40 107
6 1 23 38 47 85 55 45 8 73 22 63 31 -3 4 -20 -1 -38 -10 -33 -17 -60 -14 -60
5 0 7 13 24 28 40 l29 28 -63 46 c-55 41 -63 51 -69 89 -4 23 -26 73 -48 112
-39 64 -42 76 -46 152 l-3 83 30 0 c43 0 47 15 12 40 -37 26 -37 46 -4 113 24
48 25 50 5 33 -26 -24 -35 -17 -21 18 11 31 36 44 53 27 6 -6 25 -11 43 -11
27 0 31 3 27 19 -3 10 2 32 11 49 27 53 17 59 -22 13 -31 -35 -42 -42 -61 -36
-25 8 -24 14 21 118 16 38 27 71 24 74 -3 3 -17 6 -31 6 -19 0 -25 5 -25 21
-1 20 -2 19 -26 -8 l-25 -28 7 28 c14 59 22 73 41 68 10 -3 25 1 34 8 22 18
111 224 106 246 -2 9 5 34 15 55 18 36 40 48 53 27 10 -16 19 -6 64 69 64 108
177 214 337 316 75 48 165 100 198 116 64 30 71 40 9 14 -47 -20 -52 -13 -17
20 28 26 61 46 131 79 17 9 34 20 38 26 3 6 32 26 63 46 31 20 68 47 82 59 14
13 59 47 100 75 41 29 66 49 55 45 -11 -4 -39 -14 -63 -22 -24 -9 -46 -22 -49
-29 -3 -8 -9 -12 -13 -9 -4 3 -31 -11 -60 -30 -29 -19 -64 -38 -79 -41 -14 -4
-35 -14 -46 -24 -11 -9 -132 -95 -270 -190 -137 -95 -256 -177 -262 -183 -24
-18 -14 13 12 38 13 14 20 25 15 25 -5 0 -33 -27 -62 -60 -29 -33 -57 -60 -63
-60 -6 0 -15 -9 -20 -21 -6 -11 -25 -30 -43 -41 l-32 -20 20 48 c16 37 18 49
8 56 -9 5 -6 8 9 8 12 0 27 9 33 19 19 37 186 174 245 202 33 16 65 29 72 29
6 0 27 9 45 21 58 36 361 229 401 254 22 14 43 23 48 20 4 -3 19 1 31 8 13 8
44 22 70 32 26 10 46 21 43 25 -2 4 14 15 36 26 39 17 41 17 51 0 9 -15 12
-16 26 -3 10 8 49 24 87 36 39 12 79 25 90 31 11 5 43 18 72 29 42 16 51 17
46 6 -7 -19 5 -19 53 1 22 9 88 26 148 38 115 23 157 47 67 38 -41 -4 -52 -1
-57 12 -5 13 -9 14 -21 4 -21 -17 -83 -38 -83 -27 0 4 9 11 21 14 32 10 17 16
-17 6 -20 -6 -33 -4 -41 5 -10 10 -7 14 16 19 15 3 59 19 97 34 56 23 81 28
124 24 30 -2 82 1 115 6 51 9 87 7 244 -18 101 -16 188 -34 194 -40 8 -8 2
-11 -20 -11 -17 0 -36 -7 -43 -15 -11 -13 -1 -15 84 -15 53 0 96 -4 96 -8 0
-5 46 -13 103 -19 106 -11 255 -60 250 -82 -3 -12 57 -31 102 -32 17 0 39 -4
50 -9 l20 -9 -20 -1 c-23 -2 -20 -3 57 -24 47 -14 60 -22 73 -49 10 -21 40
-47 87 -76 39 -25 86 -59 104 -77 19 -17 51 -43 71 -57 21 -14 57 -44 81 -66
l43 -41 -2 -132 c-1 -73 2 -176 7 -228 13 -139 -11 -238 -132 -547 -72 -182
-86 -252 -26 -133 21 41 45 86 54 100 9 14 35 73 58 133 23 59 43 107 46 107
2 0 4 -22 4 -50 0 -35 -5 -54 -19 -67 -21 -20 -51 -86 -51 -112 1 -11 5 -8 15
9 14 25 14 25 15 -15 0 -22 -9 -57 -20 -78 -11 -20 -20 -43 -20 -51 0 -8 -16
-43 -36 -78 -38 -66 -60 -123 -43 -113 5 4 9 -1 9 -9 0 -27 13 -18 64 44 27
34 62 68 78 76 19 10 37 33 53 70 22 49 47 75 61 61 7 -6 -26 -87 -36 -87 -12
0 -65 -100 -79 -150 -7 -25 -28 -73 -47 -107 -38 -69 -42 -82 -17 -62 9 8 1
-6 -18 -31 -19 -25 -41 -57 -51 -70 l-16 -25 -12 30 c-6 16 -9 41 -7 55 l5 25
-19 -24 c-20 -24 -26 -46 -10 -37 9 6 21 -26 21 -57 0 -22 -37 -77 -51 -77 -9
0 -7 14 9 60 4 10 -2 9 -18 -5 l-23 -20 8 25 7 25 -17 -24 c-12 -15 -14 -25
-7 -30 6 -3 -14 -33 -49 -69 -32 -35 -59 -69 -59 -77 0 -7 -18 -35 -40 -61
-22 -27 -86 -107 -141 -179 -180 -230 -281 -345 -308 -352 -49 -12 -68 -34
-114 -126 -26 -51 -73 -131 -107 -177 -33 -47 -60 -96 -60 -109 0 -14 -16 -39
-40 -64 -22 -22 -48 -53 -58 -69 -19 -32 -37 -32 -36 1 1 20 0 20 -19 4 -18
-17 -18 -18 2 -32 26 -17 27 -37 3 -50 -37 -20 -85 -68 -160 -161 -42 -52 -85
-102 -96 -110 -16 -14 -16 -17 -3 -28 10 -9 17 -10 22 -2 3 5 3 10 -1 10 -4 0
5 10 20 21 42 33 40 18 -6 -46 -23 -32 -44 -53 -46 -47 -2 7 2 19 8 27 9 11 9
15 1 15 -6 0 -11 -4 -11 -9 0 -5 -9 -12 -19 -16 -23 -7 -121 -135 -121 -158 0
-9 -10 -33 -22 -54 -20 -35 -20 -37 -2 -23 10 8 30 21 44 29 24 14 24 14 8
-10 -8 -13 -22 -24 -29 -24 -8 0 -13 -9 -12 -19 1 -14 -4 -16 -22 -12 -16 4
-33 -1 -52 -17 -15 -13 -40 -30 -54 -39 -15 -9 -40 -42 -57 -72 -18 -30 -48
-81 -69 -113 -47 -73 -105 -193 -94 -193 12 0 142 193 167 245 24 53 100 152
126 166 20 11 20 10 -2 -27 -13 -22 -34 -53 -47 -71 -12 -17 -23 -36 -23 -42
0 -6 -4 -11 -10 -11 -5 0 -10 -9 -10 -20 0 -14 5 -18 18 -13 13 5 12 1 -5 -19
-27 -29 -31 -63 -7 -54 9 3 20 6 25 6 4 0 53 64 108 143 128 181 181 253 233
312 35 40 43 45 48 29 4 -10 0 -25 -9 -35 -45 -48 -61 -72 -61 -90 0 -10 -6
-19 -14 -19 -14 0 -76 -87 -76 -107 0 -5 -18 -29 -39 -52 -22 -24 -42 -49 -45
-57 -3 -8 -10 -14 -16 -14 -5 0 -10 -8 -10 -19 0 -35 -28 -75 -52 -76 -18 0
-24 -7 -26 -28 -2 -16 -10 -31 -18 -34 -8 -3 -23 -24 -34 -47 -11 -22 -28 -53
-37 -67 -21 -31 -108 -153 -134 -189 -10 -14 -56 -78 -101 -142 -74 -107 -98
-134 -98 -110 0 5 3 12 7 15 8 9 11 57 3 57 -3 0 -13 -9 -23 -20 -18 -22 -24
-90 -7 -90 18 0 11 -20 -21 -60 -17 -21 -29 -45 -27 -52 3 -7 0 -19 -8 -25
-10 -10 -13 -9 -16 5 -2 12 -9 8 -26 -18 -22 -33 -25 -22 -7 23 4 10 3 17 -4
17 -7 0 -14 -8 -18 -17 -3 -10 -17 -33 -30 -51 -22 -30 -24 -60 -2 -47 14 9
11 -3 -7 -30 -16 -24 -15 -25 5 -25 11 0 21 -2 21 -5 0 -9 -71 -147 -97 -188
-30 -48 -37 -44 -18 8 17 47 19 94 5 115 -9 13 -13 12 -30 -9 -21 -24 -27 -67
-10 -73 6 -2 5 -31 -1 -78 -8 -59 -24 -102 -75 -207 -60 -124 -66 -132 -84
-121 -25 16 -25 19 6 96 14 35 23 66 20 69 -10 10 -55 -27 -71 -57 -24 -47
-26 -35 -3 20 11 28 27 50 34 50 9 0 12 8 8 28 -3 17 4 53 20 96 15 38 24 71
21 74 -9 9 -96 -191 -132 -303 -28 -86 -133 -389 -160 -462 -3 -7 -8 -11 -12
-9 -13 9 -60 -80 -91 -173 -31 -92 -62 -226 -81 -348 -5 -34 -16 -82 -23 -106
-14 -48 -11 -199 5 -233 7 -14 7 -39 0 -79 -13 -71 -14 -98 -2 -91 5 3 12 27
16 53 8 56 15 70 25 53 4 -7 13 4 24 29 10 26 22 41 33 41 15 0 18 -9 18 -60
0 -33 -3 -60 -7 -60 -17 0 -6 -29 22 -59 34 -35 40 -37 40 -16 0 8 4 15 10 15
14 0 50 76 58 123 5 29 13 43 26 45 16 3 18 0 13 -25 -14 -63 -36 -246 -39
-315 -1 -40 -8 -82 -15 -93 -7 -11 -13 -33 -13 -50 l1 -30 32 37 33 36 22 -23
22 -23 -26 -57 c-29 -63 -42 -129 -26 -139 11 -7 45 67 62 137 12 45 30 56 30
16 0 -10 4 -19 9 -19 12 0 17 8 25 45 6 28 5 29 -9 11 -15 -19 -15 -19 -15 5
0 13 9 32 20 42 20 17 20 16 20 -53 0 -52 3 -70 14 -70 12 0 47 60 60 103 10
31 26 8 27 -36 0 -36 2 -39 10 -19 18 47 30 150 19 174 -9 19 -6 34 13 78 14
31 32 62 41 69 17 15 22 36 6 26 -17 -10 -11 11 15 56 14 24 25 56 25 70 0 15
7 29 15 33 13 4 15 -10 15 -92 l0 -97 20 25 c35 46 43 188 13 223 -15 15 -14
19 3 38 l19 21 7 -24 6 -23 7 23 c4 12 12 22 17 22 6 0 7 16 3 40 -5 32 -3 41
9 46 12 5 14 10 6 19 -12 14 -3 26 15 19 8 -3 15 7 19 29 8 41 31 66 48 49 7
-7 6 -20 -6 -43 -9 -18 -16 -38 -16 -46 0 -7 -4 -13 -8 -13 -4 0 -13 -24 -19
-52 -38 -184 -65 -335 -84 -486 -20 -153 -25 -172 -40 -167 -12 4 -20 -1 -24
-17 -4 -13 -14 -31 -23 -41 -13 -15 -14 -24 -5 -47 8 -21 8 -29 0 -27 -12 2
-24 -39 -26 -87 l-1 -29 25 27 c30 33 39 33 31 0 -5 -19 -3 -25 6 -22 14 5 25
47 52 193 11 56 26 103 41 125 13 19 31 67 40 105 8 39 33 126 55 195 32 103
43 126 58 126 16 0 18 -5 11 -33 -4 -19 -13 -40 -20 -49 -9 -10 -9 -18 -1 -26
12 -12 -10 -97 -35 -137 -11 -17 -17 -55 -19 -120 l-3 -96 13 50 c8 28 15 62
15 76 1 16 10 33 24 42 19 12 25 32 40 123 9 60 17 121 17 137 0 15 4 27 9 27
5 0 11 7 15 15 4 12 2 13 -13 6 -18 -10 -31 -6 -31 11 0 5 4 6 10 3 5 -3 12 5
16 19 3 14 13 27 22 29 12 3 10 5 -5 6 -14 1 -23 -5 -23 -13 0 -7 -9 -16 -20
-19 -27 -7 -26 14 6 88 35 81 60 162 69 221 8 55 40 107 48 77 4 -16 5 -16 11
2 4 11 12 28 18 39 6 12 6 22 -1 29 -18 18 -13 42 14 73 14 16 28 40 32 54 3
13 15 39 26 58 l20 33 23 -22 c28 -26 30 -20 9 21 -9 17 -11 31 -5 35 5 3 14
-4 20 -16 8 -14 15 -18 22 -11 7 7 5 18 -6 33 -9 13 -16 30 -16 38 0 8 41 86
90 173 50 87 88 163 84 170 -4 7 -3 8 4 4 8 -5 12 1 12 15 0 18 -2 19 -15 9
-8 -7 -15 -21 -15 -32 0 -11 -14 -40 -30 -65 -17 -24 -37 -58 -46 -74 -8 -17
-17 -29 -20 -27 -8 9 40 116 86 193 26 44 71 121 100 170 109 185 380 538 555
725 39 41 78 83 86 93 8 10 23 28 33 40 29 30 32 4 6 -39 -41 -65 -15 -43 55
49 39 50 115 138 170 196 56 58 123 133 150 166 28 33 78 90 112 127 67 71 76
87 41 66 -61 -37 -102 -58 -105 -54 -7 7 48 65 67 71 11 4 20 15 20 26 0 11 8
22 18 26 41 15 119 86 317 293 39 40 99 98 135 128 36 31 100 90 142 131 43
41 80 72 84 68 4 -3 1 -13 -6 -22 -22 -27 0 -16 56 27 34 27 54 50 54 63 0 12
14 34 31 51 17 17 28 36 26 46 -3 10 19 45 54 89 33 39 59 74 59 78 0 3 -21
-15 -47 -40 -27 -26 -70 -61 -98 -80 -74 -49 -142 -109 -169 -149 -27 -41
-213 -230 -257 -261 -17 -12 -33 -18 -36 -15 -9 8 41 60 100 103 26 19 53 46
60 60 21 40 135 168 254 288 62 62 118 125 125 142 21 48 131 199 160 219 31
21 37 37 12 27 -13 -5 -9 9 15 53 34 64 77 122 67 91 -11 -33 14 -7 38 41 14
26 57 92 96 147 40 55 77 110 83 123 13 28 27 28 27 0 0 -19 2 -20 10 -8 6 8
15 33 21 55 6 22 33 99 59 171 27 72 62 181 79 243 l30 112 -22 8 c-16 6 -25
4 -35 -10 -7 -11 -11 -23 -7 -29 3 -5 -8 -40 -26 -77 -17 -37 -39 -90 -49
-118 -37 -105 -59 -156 -79 -188 -27 -44 -27 -67 -1 -36 17 21 19 21 14 4 -4
-11 -17 -31 -30 -45 -43 -47 -131 -190 -164 -265 -20 -46 -36 -71 -41 -64 -5
8 -10 5 -18 -9 -6 -11 -11 -25 -11 -31 0 -5 -21 -44 -46 -87 -25 -43 -48 -87
-50 -98 -2 -11 -16 -32 -31 -46 -15 -14 -21 -17 -13 -7 7 9 10 20 8 23 -3 3
-34 -28 -69 -68 -98 -112 -343 -359 -426 -430 -42 -34 -98 -85 -125 -111 -39
-37 -53 -45 -63 -37 -19 16 -33 7 -135 -93 -49 -48 -95 -87 -102 -87 -12 0
-58 -50 -58 -63 0 -6 -87 -97 -94 -97 -3 0 -6 14 -6 30 0 17 4 30 10 30 5 0 7
-8 4 -17 -4 -10 5 -5 20 12 14 17 23 35 21 42 -2 7 4 14 13 17 9 4 37 26 61
51 24 25 50 45 57 45 6 0 14 7 18 15 3 8 11 15 18 15 7 1 25 19 40 40 16 22
66 70 113 107 68 54 82 69 68 74 -16 5 -16 7 3 13 16 5 20 12 17 27 -6 21 14
24 30 4 6 -6 10 -5 14 4 3 7 14 22 24 32 11 11 19 23 19 28 0 5 7 14 15 21 8
6 13 15 12 19 -3 10 186 219 199 220 7 1 14 10 17 21 3 11 18 25 33 30 38 15
57 32 45 39 -12 8 32 67 62 83 21 11 21 11 4 -13 -10 -13 -26 -42 -37 -64 -10
-22 -33 -64 -50 -92 -18 -29 -29 -53 -25 -53 8 0 145 211 145 223 0 15 65 109
90 132 13 11 29 34 36 52 20 46 101 159 160 223 47 50 102 112 147 166 14 17
16 27 7 49 -9 23 -7 28 10 32 10 3 22 15 26 27 7 23 4 33 -9 28 -11 -3 2 37
19 62 7 10 22 24 34 30 13 6 31 33 41 60 19 52 19 73 -1 37 -19 -36 -29 -14
-14 31 21 63 81 185 94 193 9 5 10 1 5 -14 -7 -22 9 -28 31 -13 15 10 34 47
34 68 0 16 -1 16 -15 -2 -13 -17 -14 -17 -15 -1 0 9 -4 17 -10 17 -5 0 -10 8
-10 18 0 14 -4 12 -20 -8 l-19 -25 16 50 c8 28 20 68 27 90 6 22 16 46 23 53
15 15 17 26 4 18 -16 -10 -21 41 -7 80 27 79 119 264 131 264 7 0 11 18 11 48
0 45 -1 47 -16 32 -9 -9 -20 -34 -23 -55 -7 -41 -45 -105 -63 -105 -7 0 -14 9
-17 20 -3 11 -1 20 4 20 5 0 9 -4 9 -10 0 -5 5 -10 11 -10 7 0 9 23 4 75 -8
86 2 245 16 245 5 0 9 -7 9 -15 0 -8 7 -15 15 -15 8 0 15 -7 15 -15 0 -8 5
-15 10 -15 13 0 13 60 0 80 -8 12 -10 12 -16 -3 -3 -9 -10 -15 -14 -12 -10 6
-34 194 -28 220 5 19 6 18 15 -4 13 -32 19 -20 28 54 6 53 5 58 -9 46 -9 -7
-16 -19 -16 -27 0 -10 -7 -9 -29 4 -34 19 -51 50 -51 92 0 19 -5 30 -14 30
-16 0 -79 117 -70 131 10 17 31 9 72 -29 27 -25 42 -48 42 -63 0 -13 4 -30 9
-38 7 -11 11 -10 20 5 11 18 12 18 31 -5 l20 -23 0 31 c0 21 -4 29 -14 25 -18
-7 -26 37 -26 144 l0 86 35 -39 c34 -39 60 -42 37 -5 -7 11 -12 28 -12 37 1
10 15 -9 32 -42 44 -84 47 -50 4 40 -19 42 -38 91 -42 111 -9 47 -123 147
-158 138 -19 -4 -29 2 -51 30 -36 48 -43 39 -11 -13 31 -48 31 -49 9 -53 -12
-2 -5 -11 25 -31 67 -47 92 -92 93 -168 1 -127 -1 -169 -10 -169 -15 0 -121
108 -121 122 0 7 -3 24 -7 37 -6 23 -4 24 28 17 l34 -6 -25 23 c-14 13 -51 32
-84 42 -52 17 -60 24 -76 60 -10 23 -14 45 -9 51 5 6 0 27 -12 49 -14 26 -17
41 -10 43 7 2 0 20 -17 45 -70 103 -82 125 -82 155 0 21 -6 35 -19 42 -25 13
-34 13 -26 0 11 -18 -42 -10 -66 10 l-24 19 28 1 c36 0 35 18 -3 31 -16 6 -30
15 -30 20 0 15 -30 10 -36 -6 -8 -21 -26 -7 -19 15 3 11 0 20 -10 24 -9 3 -15
0 -15 -9 0 -8 -3 -15 -7 -15 -20 1 -33 20 -46 69 -8 33 -23 61 -38 73 -13 11
-18 17 -11 13 6 -3 12 -2 12 3 0 5 -15 13 -32 18 -18 5 -38 20 -44 32 -14 29
-29 43 -21 20 7 -19 -3 -24 -18 -10 -6 5 -30 17 -55 26 -70 27 -157 84 -163
106 -5 20 -37 29 -37 10 0 -5 -7 -10 -16 -10 -11 0 -13 6 -9 20 5 15 -7 29
-62 69 -37 28 -77 52 -88 53 -11 2 -21 12 -23 23 -2 11 -9 25 -14 30 -8 7 -9
6 -4 -2 4 -8 1 -13 -7 -13 -8 0 -17 9 -20 20 -3 11 -10 20 -16 20 -6 0 -8 -8
-4 -17 4 -10 -6 -4 -23 13 -16 17 -41 35 -54 39 -14 4 -45 21 -69 38 -40 27
-64 36 -153 54 -41 8 -34 25 10 23 20 -1 48 -1 62 0 l25 1 -25 10 c-31 13
-109 28 -175 35 -27 2 -68 14 -89 25 -22 11 -79 27 -127 35 -98 15 -139 29
-139 44 0 15 116 12 227 -6 53 -8 103 -12 112 -8 11 5 2 10 -29 15 -25 4 -85
14 -135 23 -49 9 -130 16 -180 16 -131 0 -289 12 -273 20 7 4 36 11 65 15 40
5 57 3 77 -10 16 -11 26 -13 26 -6 0 7 25 11 68 12 55 0 63 2 42 10 -14 6 -78
9 -143 7 -64 -2 -117 0 -117 3 0 3 15 11 33 17 l32 10 -43 1 c-41 1 -43 2 -26
18 15 15 41 19 166 22 81 2 148 7 148 11 0 9 -71 29 -132 37 -21 3 -35 9 -32
14 3 5 -2 9 -10 9 -9 0 -16 5 -16 11 0 6 9 8 20 4 11 -4 20 -2 20 4 0 6 -16
11 -36 11 -28 0 -34 3 -26 13 5 6 6 20 3 30 -6 16 -9 16 -18 5z m-93 -48 c0
-5 -4 -10 -10 -10 -5 0 -10 5 -10 10 0 6 5 10 10 10 6 0 10 -4 10 -10z m-38
-42 c-7 -7 -12 -8 -12 -2 0 14 12 26 19 19 2 -3 -1 -11 -7 -17z m-1272 -192
c0 -2 -7 -7 -16 -10 -8 -3 -12 -2 -9 4 6 10 25 14 25 6z m1365 -121 c61 -7 67
-9 45 -18 l-25 -10 25 -5 c14 -2 30 -8 37 -13 19 -17 72 -28 75 -17 2 6 19 6
48 -3 28 -8 38 -14 27 -16 -25 -6 -11 -23 19 -23 14 0 23 -4 20 -9 -3 -4 22
-8 55 -7 50 1 63 -3 77 -20 12 -16 32 -23 70 -26 59 -6 66 -2 22 13 -31 11
-41 29 -15 29 8 0 15 -5 15 -12 0 -9 3 -9 12 0 34 34 169 -3 236 -66 18 -17
44 -33 58 -36 36 -9 184 -95 184 -107 0 -11 5 -12 -55 6 -41 12 -47 12 -32 1
11 -9 14 -17 8 -20 -21 -13 25 -47 106 -77 46 -18 88 -38 94 -45 11 -14 39
-19 39 -8 0 6 -71 74 -78 74 -2 0 -20 10 -40 22 l-35 21 32 17 c18 9 28 19 24
23 -4 5 0 5 9 2 9 -4 14 -13 11 -21 -3 -8 -1 -14 4 -14 6 0 40 -22 76 -50 37
-28 72 -47 80 -44 8 3 51 -20 96 -50 44 -31 81 -51 81 -45 0 6 5 7 10 4 16
-10 12 -23 -10 -30 -15 -5 -19 -12 -14 -31 7 -27 -12 -32 -48 -13 -15 8 -22 8
-28 -1 -6 -9 -13 -9 -28 -1 -11 6 -33 11 -49 11 -15 0 -48 14 -72 30 -24 17
-51 30 -58 30 -8 0 -27 7 -41 15 -26 14 -208 85 -219 85 -3 0 -3 -7 1 -15 4
-11 -2 -15 -20 -15 -22 0 -23 -2 -14 -21 7 -11 9 -23 6 -26 -9 -10 -76 19 -90
39 -16 22 -60 48 -82 48 -8 0 -14 5 -14 10 0 23 48 7 88 -30 24 -22 51 -40 60
-40 16 1 16 2 0 14 -23 17 -23 26 1 26 20 0 37 17 27 27 -5 5 -29 11 -111 28
-16 4 -64 23 -105 43 -86 41 -85 40 -78 47 3 3 25 -3 49 -14 34 -16 47 -17 58
-8 11 9 15 9 18 0 3 -8 21 -13 43 -13 23 0 45 -7 56 -17 10 -10 18 -16 18 -14
1 3 21 -7 46 -21 76 -45 128 -62 153 -51 20 9 18 12 -33 38 -108 54 -144 78
-127 84 10 4 -13 17 -63 36 -44 17 -80 33 -80 37 0 4 17 8 38 10 l37 4 -60 19
c-47 15 -83 19 -165 17 -75 -2 -115 1 -140 11 -55 23 -130 32 -130 16 -1 -11
-4 -10 -13 2 -7 9 -28 20 -47 24 -19 4 -44 13 -55 19 -11 7 -32 16 -47 19 -14
4 -47 16 -72 27 -49 20 -54 43 -13 54 35 10 1 26 -55 26 -45 0 -57 7 -41 23 4
4 14 5 22 3 9 -2 48 -8 86 -11z m215 -15 c0 -13 -20 -13 -40 0 -12 8 -9 10 13
10 15 0 27 -4 27 -10z m-226 -145 c128 -41 187 -65 161 -65 -35 0 -281 73
-302 90 -37 29 -17 25 141 -25z m828 -15 c8 0 32 -18 53 -41 l40 -41 -49 26
c-27 14 -55 31 -62 37 -9 7 -14 8 -14 1 0 -5 -9 -8 -21 -5 -14 4 -17 8 -9 13
9 5 9 9 1 14 -25 16 -9 25 19 11 16 -8 35 -15 42 -15z m-467 -30 c16 -7 13 -9
-17 -9 -21 -1 -38 4 -38 9 0 12 27 12 55 0z m-2590 -160 c-10 -11 -23 -20 -28
-20 -6 0 -2 9 8 20 10 11 23 20 28 20 6 0 2 -9 -8 -20z m3420 -31 c11 -17 -1
-21 -15 -4 -8 9 -8 15 -2 15 6 0 14 -5 17 -11z m-3685 -169 c-19 -16 -40 -30
-47 -30 -6 0 -14 -8 -17 -17 -10 -28 -104 -85 -123 -75 -11 6 -12 11 -4 16 6
4 11 3 11 -2 0 -5 41 31 90 81 86 86 92 90 108 73 16 -16 15 -19 -18 -46z
m3490 -7 c35 -20 79 -37 97 -38 45 -3 102 -43 95 -67 -2 -10 1 -18 7 -18 6 0
11 5 11 12 0 7 20 -8 45 -32 25 -24 45 -47 45 -51 0 -12 -69 26 -73 41 -4 11
-7 9 -12 -7 -9 -29 -11 -28 -46 1 -24 21 -26 25 -11 29 9 3 2 5 -16 6 -18 0
-49 9 -70 20 -20 10 -57 25 -81 32 -37 11 -41 14 -22 19 37 8 29 25 -14 28
-22 2 -44 9 -50 16 -5 7 -23 16 -38 20 l-28 7 23 18 c26 22 39 19 138 -36z
m475 -63 c10 -11 16 -20 13 -20 -3 0 -13 9 -23 20 -10 11 -16 20 -13 20 3 0
13 -9 23 -20z m-185 -22 c0 -10 -36 7 -45 22 -4 6 5 5 19 -2 14 -6 26 -15 26
-20z m110 -28 c26 -26 12 -32 -29 -13 -23 12 -29 18 -19 24 19 13 26 11 48
-11z m226 -32 c5 -8 2 -9 -9 -5 -9 3 -19 2 -22 -4 -7 -11 -25 -3 -25 12 0 13
47 11 56 -3z m-2371 -158 c3 -5 -1 -10 -9 -10 -8 0 -18 5 -21 10 -3 6 1 10 9
10 8 0 18 -4 21 -10z m-62 -7 c-7 -2 -21 -2 -30 0 -10 3 -4 5 12 5 17 0 24 -2
18 -5z m50 -58 c7 -17 3 -20 -45 -29 -47 -8 -48 -2 -5 24 38 24 43 24 50 5z
m-2373 -163 c0 -5 -9 -17 -20 -27 -16 -14 -20 -15 -20 -4 0 16 19 39 32 39 4
0 8 -4 8 -8z m5262 -224 c16 -13 31 -68 19 -68 -20 0 -51 34 -51 56 0 27 9 30
32 12z m-965 -97 l14 -33 -31 22 c-30 22 -36 31 -23 44 12 12 27 0 40 -33z
m994 -28 c13 -16 12 -17 -3 -4 -10 7 -18 15 -18 17 0 8 8 3 21 -13z m-901
-287 c0 -72 0 -73 24 -69 13 3 26 0 30 -5 8 -13 -3 -42 -15 -42 -6 0 -5 9 1
20 13 23 3 25 -24 5 -11 -8 -14 -15 -8 -15 7 0 12 -7 12 -15 0 -8 -4 -15 -9
-15 -5 0 -7 -23 -5 -52 5 -50 -7 -90 -21 -76 -4 3 -9 26 -12 50 -3 24 -10 48
-15 55 -6 7 -5 20 4 35 7 13 13 37 14 53 2 129 5 156 14 150 6 -3 10 -39 10
-79z m69 -142 c-11 -13 -10 -17 4 -25 9 -6 17 -17 17 -25 0 -8 -4 -12 -10 -9
-6 4 -10 -17 -10 -57 0 -35 -4 -79 -9 -98 -16 -64 -21 -100 -12 -100 5 0 17
23 26 50 9 28 20 50 23 50 4 0 7 -22 8 -49 0 -39 -3 -48 -14 -43 -12 4 -12 1
-2 -17 6 -12 8 -35 5 -52 -6 -25 -4 -28 10 -22 15 5 17 1 11 -33 -4 -21 -9
-56 -12 -77 -6 -37 -23 -61 -25 -35 -1 7 -4 0 -8 -17 -4 -18 -14 -31 -25 -33
-16 -3 -18 0 -13 25 4 15 12 62 18 103 7 41 18 80 26 86 18 16 16 24 -6 24
-31 0 -45 -25 -33 -59 8 -24 7 -31 -5 -35 -10 -4 -13 -14 -10 -28 4 -15 -3
-34 -21 -57 l-26 -35 -7 29 c-4 17 -9 37 -13 46 -4 9 2 25 14 39 11 13 20 32
20 43 0 12 9 54 21 94 15 56 18 78 9 88 -7 9 -8 15 0 20 5 3 10 15 10 26 0 11
-4 17 -10 14 -5 -3 -10 -15 -10 -26 0 -12 -7 -19 -20 -19 -11 0 -23 -1 -27 -2
-17 -6 -13 29 5 50 21 24 42 31 22 7 -6 -8 -9 -19 -5 -25 5 -8 13 -3 23 11 14
21 18 34 24 77 1 6 5 12 10 12 11 0 10 27 0 32 -12 4 16 68 29 68 8 0 7 -5 -2
-16z m238 -330 c-15 -48 -15 -49 -16 -14 -1 48 9 84 21 72 6 -6 4 -28 -5 -58z
m-385 -166 c-8 -8 -9 -4 -5 13 4 13 8 18 11 10 2 -7 -1 -18 -6 -23z m1158 -62
c0 -2 -7 -6 -15 -10 -8 -3 -15 -1 -15 4 0 6 7 10 15 10 8 0 15 -2 15 -4z
m-5715 -60 c-4 -22 -12 -45 -17 -51 -7 -7 -9 -2 -4 15 3 14 6 40 6 58 0 21 4
31 11 27 6 -5 8 -23 4 -49z m5672 -18 c-3 -7 -5 -2 -5 12 0 14 2 19 5 13 2 -7
2 -19 0 -25z m-1097 -4 c0 -8 -4 -12 -10 -9 -5 3 -10 10 -10 16 0 5 5 9 10 9
6 0 10 -7 10 -16z m1080 -6 c0 -7 -5 -20 -10 -28 -8 -12 -10 -9 -10 13 0 15 5
27 10 27 6 0 10 -6 10 -12z m-1096 -53 c-1 -14 -26 -53 -55 -88 -29 -34 -54
-64 -56 -66 -2 -2 -6 -1 -10 2 -7 8 66 157 77 157 5 0 12 9 15 21 9 28 33 7
29 -26z m1021 -75 c-4 -17 -9 -30 -11 -27 -2 2 -1 18 2 36 4 17 9 30 11 27 3
-2 2 -19 -2 -36z m-5508 -247 c-3 -10 -5 -4 -5 12 0 17 2 24 5 18 2 -7 2 -21
0 -30z m4543 -57 c0 -3 -4 -8 -10 -11 -5 -3 -10 -1 -10 4 0 6 5 11 10 11 6 0
10 -2 10 -4z m-62 -178 c-13 -18 -30 -46 -37 -63 -6 -16 -30 -50 -53 -75 -30
-33 -36 -37 -23 -15 37 62 129 194 134 190 2 -3 -7 -19 -21 -37z m-86 -85
c-17 -31 -50 -55 -69 -50 -16 4 -15 6 5 12 12 4 22 12 22 17 0 10 43 48 48 43
2 -2 -1 -12 -6 -22z m-4162 -73 c0 -5 -4 -10 -10 -10 -5 0 -10 5 -10 10 0 6 5
10 10 10 6 0 10 -4 10 -10z m214 -56 c5 -14 4 -15 -9 -4 -17 14 -19 20 -6 20
5 0 12 -7 15 -16z m3838 -31 c-39 -49 -92 -99 -92 -88 0 9 110 125 118 125 2
0 -10 -17 -26 -37z m1058 -59 c0 -3 -16 -22 -35 -42 -40 -43 -48 -29 -9 17 23
28 44 40 44 25z m-1110 -68 c0 -5 -20 -28 -45 -52 -25 -23 -45 -43 -45 -46 0
-2 -20 -25 -44 -51 -25 -25 -70 -88 -100 -139 -67 -114 -83 -130 -128 -126
-26 2 -34 8 -36 28 -3 21 -2 22 12 11 19 -16 36 -7 30 17 -3 10 8 32 26 52 16
19 27 27 24 18 -14 -40 20 -13 91 72 41 50 75 95 75 101 0 5 16 24 36 41 19
17 41 43 49 57 13 26 55 38 55 17z m-3410 -56 c0 -5 -5 -10 -11 -10 -5 0 -7 5
-4 10 3 6 8 10 11 10 2 0 4 -4 4 -10z m2590 -725 c-31 -45 -40 -53 -40 -35 0
9 58 80 67 80 2 0 -10 -20 -27 -45z m-60 -65 c0 -5 -4 -10 -10 -10 -5 0 -10 5
-10 10 0 6 5 10 10 10 6 0 10 -4 10 -10z m-203 -264 c-29 -30 -54 -52 -57 -49
-5 4 94 103 103 103 3 0 -18 -24 -46 -54z m393 -7 c-6 -10 -17 -19 -25 -19 -8
0 -15 -6 -15 -13 0 -7 -6 -22 -14 -33 -12 -15 -17 -17 -28 -6 -10 10 -9 14 9
18 13 4 20 11 16 20 -3 8 8 21 26 32 17 10 28 22 23 27 -4 5 -1 5 6 1 9 -5 9
-12 2 -27z m-368 -76 c-13 -23 -51 -58 -57 -52 -2 3 9 22 26 43 32 38 49 43
31 9z m238 -38 c-13 -14 -26 -23 -28 -20 -3 3 5 16 18 30 13 14 26 23 28 20 3
-3 -5 -16 -18 -30z m50 11 c0 -3 -4 -8 -10 -11 -5 -3 -10 -1 -10 4 0 6 5 11
10 11 6 0 10 -2 10 -4z m830 -39 c0 -2 -17 -19 -37 -38 l-38 -34 34 38 c33 34
41 42 41 34z m-1291 -34 c-23 -28 -63 -62 -74 -62 -5 0 10 18 34 39 46 42 63
52 40 23z m351 -12 c-6 -12 -15 -21 -20 -21 -6 0 -10 -7 -10 -15 0 -8 -15 -32
-33 -52 -18 -21 -45 -57 -61 -80 -16 -23 -37 -45 -48 -49 -11 -3 -17 -12 -14
-20 3 -7 -4 -18 -14 -24 -11 -6 -20 -16 -20 -23 -1 -13 -34 -57 -44 -57 -13 0
-5 37 14 65 11 17 20 40 20 53 0 12 4 22 10 22 5 0 7 -8 4 -17 -3 -10 7 -2 23
17 15 19 44 53 63 75 20 22 49 59 65 83 41 62 94 96 65 43z m170 19 c0 -5 -4
-10 -10 -10 -5 0 -10 5 -10 10 0 6 5 10 10 10 6 0 10 -4 10 -10z m-30 -34 c0
-3 -4 -8 -10 -11 -5 -3 -10 -1 -10 4 0 6 5 11 10 11 6 0 10 -2 10 -4z m-350
-31 c0 -8 -15 -22 -32 -31 -18 -10 -27 -19 -20 -21 20 -7 14 -20 -13 -25 -17
-4 -25 -1 -25 8 0 8 5 14 10 14 6 0 15 11 21 24 9 19 34 39 57 45 1 1 2 -6 2
-14z m1160 -84 c-5 -11 -28 -30 -50 -42 -21 -12 -37 -26 -34 -30 6 -11 -52
-75 -139 -152 -104 -92 -67 -40 80 111 118 122 170 163 143 113z m-1251 -28
c-7 -10 -22 -28 -32 -40 -11 -12 -16 -26 -12 -32 3 -6 -1 -11 -9 -11 -8 0 -22
-10 -30 -22 -9 -12 -16 -17 -16 -10 0 23 80 132 97 132 13 0 13 -3 2 -17z
m1111 -36 c0 -2 -10 -12 -22 -23 l-23 -19 19 23 c18 21 26 27 26 19z m-240
-47 c0 -5 -6 -10 -12 -10 -9 0 -8 -3 2 -10 11 -7 9 -11 -12 -19 -14 -5 -29
-15 -33 -20 -3 -6 -16 -12 -28 -12 -16 -1 -17 -3 -5 -6 22 -6 14 -28 -28 -74
-17 -20 -48 -61 -66 -90 -34 -53 -120 -140 -226 -227 -29 -24 -52 -41 -52 -37
0 11 119 163 191 243 37 42 76 94 86 114 10 21 21 38 25 38 4 0 34 27 66 60
53 55 92 76 92 50z m46 -38 c-18 -16 -18 -16 -6 6 6 13 14 21 18 18 3 -4 -2
-14 -12 -24z m134 22 c0 -14 -144 -143 -153 -137 -6 4 3 18 22 34 18 15 30 32
27 38 -4 6 -1 11 8 11 8 0 28 14 44 30 28 27 52 39 52 24z m-195 -84 c-10 -11
-20 -18 -23 -15 -7 6 18 35 31 35 5 0 2 -9 -8 -20z m-1024 -33 c-10 -9 -11 -8
-5 6 3 10 9 15 12 12 3 -3 0 -11 -7 -18z m129 15 c0 -5 -9 -17 -20 -27 -22
-20 -26 -14 -10 16 11 19 30 26 30 11z m-312 -42 c-12 -22 -23 -38 -25 -36 -6
6 30 76 38 76 5 0 -2 -18 -13 -40z m233 -63 c-10 -9 -11 -8 -5 6 3 10 9 15 12
12 3 -3 0 -11 -7 -18z m-49 -34 c-5 -50 -29 -103 -47 -103 -9 0 -15 -10 -15
-26 0 -20 -4 -24 -19 -19 -14 4 -28 -8 -59 -48 -43 -56 -92 -105 -92 -93 0 17
85 155 116 186 19 20 34 41 34 47 0 6 9 13 20 16 11 3 19 9 18 14 -3 10 32 63
41 63 4 0 5 -17 3 -37z m-97 -23 c-4 -12 -9 -19 -12 -17 -3 3 -2 15 2 27 4 12
9 19 12 17 3 -3 2 -15 -2 -27z m820 0 c-3 -5 -11 -10 -16 -10 -6 0 -7 5 -4 10
3 6 11 10 16 10 6 0 7 -4 4 -10z m-51 -48 c-12 -9 -24 -25 -27 -34 -4 -11 -13
-15 -26 -11 -29 8 -26 14 22 45 44 28 66 28 31 0z m-794 8 c0 -5 -2 -10 -4
-10 -3 0 -8 5 -11 10 -3 6 -1 10 4 10 6 0 11 -4 11 -10z m1230 7 c0 -2 -12
-14 -27 -28 l-28 -24 24 28 c23 25 31 32 31 24z m-1140 -77 c0 -5 -4 -10 -10
-10 -5 0 -10 5 -10 10 0 6 5 10 10 10 6 0 10 -4 10 -10z m1022 -42 c-7 -7 -12
-8 -12 -2 0 14 12 26 19 19 2 -3 -1 -11 -7 -17z m-1079 -38 c-6 -22 -33 -28
-33 -7 0 17 10 27 26 27 7 0 10 -8 7 -20z m608 -67 c-17 -15 -31 -33 -31 -39
0 -16 -74 -87 -78 -75 -2 6 -10 7 -18 4 -8 -3 -14 -2 -14 1 0 14 29 63 45 76
23 19 29 5 9 -24 -9 -15 -14 -29 -11 -32 8 -8 48 63 42 77 -2 8 5 25 16 39 13
16 19 19 15 8 -3 -10 -9 -26 -12 -35 -3 -10 9 -2 28 17 20 21 34 30 36 22 2
-7 -10 -25 -27 -39z m174 17 c-29 -30 -85 -56 -85 -39 0 5 9 9 21 9 11 0 35
16 52 35 17 19 33 33 36 30 2 -3 -8 -18 -24 -35z m-105 -23 c0 -1 -25 -27 -55
-57 -67 -66 -73 -58 -9 10 39 42 64 60 64 47z m0 -67 c0 -5 -4 -10 -10 -10 -5
0 -10 5 -10 10 0 6 5 10 10 10 6 0 10 -4 10 -10z m-260 -24 c0 -2 -8 -10 -17
-17 -16 -13 -17 -12 -4 4 13 16 21 21 21 13z m-620 -40 c0 -3 -4 -8 -10 -11
-5 -3 -10 -1 -10 4 0 6 5 11 10 11 6 0 10 -2 10 -4z m561 -34 c-5 -10 -18 -25
-27 -33 -16 -12 -17 -12 -9 1 10 18 37 50 42 50 2 0 -1 -8 -6 -18z m236 -9 c3
-7 -4 -9 -16 -6 -12 3 -18 9 -15 15 7 11 26 6 31 -9z m-194 -38 c-8 -22 -22
-18 -16 5 3 11 9 17 14 15 4 -3 6 -12 2 -20z m57 2 c0 -2 -14 -14 -31 -26 -29
-22 -31 -16 -6 17 8 10 37 18 37 9z m44 -52 c-15 -20 -29 -33 -32 -30 -5 5 46
65 55 65 2 0 -8 -16 -23 -35z m-220 -10 c-6 -16 -24 -21 -24 -7 0 11 11 22 21
22 5 0 6 -7 3 -15z m246 -4 c-11 -21 -30 -37 -30 -25 0 8 30 44 37 44 2 0 -1
-9 -7 -19z m-183 -47 c-20 -20 -37 -31 -37 -24 0 16 59 74 67 66 4 -4 -10 -23
-30 -42z m68 -54 c-8 -16 -15 -34 -15 -41 0 -6 -28 -43 -62 -83 -34 -39 -76
-94 -95 -123 -18 -28 -38 -55 -45 -59 -7 -5 -4 5 7 21 11 17 31 51 45 76 26
49 166 239 175 239 3 0 -1 -13 -10 -30z m35 0 c-6 -11 -13 -20 -16 -20 -2 0 0
9 6 20 6 11 13 20 16 20 2 0 0 -9 -6 -20z m52 -2 c-7 -7 -12 -8 -12 -2 0 14
12 26 19 19 2 -3 -1 -11 -7 -17z m-112 -140 c0 -5 -9 -8 -20 -8 -23 0 -26 10
-8 28 9 9 14 9 20 -1 4 -6 8 -15 8 -19z m-30 -28 c0 -5 -4 -10 -10 -10 -5 0
-10 5 -10 10 0 6 5 10 10 10 6 0 10 -4 10 -10z m-69 -73 c-10 -9 -11 -8 -5 6
3 10 9 15 12 12 3 -3 0 -11 -7 -18z m-53 -88 c-30 -54 -166 -199 -187 -199
-13 0 -13 -2 -3 -9 11 -6 6 -14 -17 -31 -17 -12 -40 -39 -51 -61 -14 -26 -25
-37 -35 -33 -15 6 -21 24 -7 24 8 0 28 34 74 120 15 30 37 66 48 80 l19 25
-14 -49 -15 -50 25 24 c14 13 25 28 25 33 0 15 73 127 83 127 4 0 3 -9 -3 -21
-25 -45 -2 -39 34 9 45 63 55 67 24 11z m-345 -347 c-10 -10 -24 -27 -30 -38
-19 -29 3 31 25 68 15 26 17 27 20 9 2 -11 -5 -28 -15 -39z m47 -21 c0 -6 -4
-13 -10 -16 -5 -3 -10 1 -10 9 0 9 5 16 10 16 6 0 10 -4 10 -9z m-55 -86 c-15
-26 -29 -44 -32 -41 -3 3 7 26 22 51 15 26 29 44 32 41 3 -3 -7 -26 -22 -51z
m-52 10 c-3 -9 -8 -14 -10 -11 -3 3 -2 9 2 15 9 16 15 13 8 -4z m-819 -150
c-4 -8 -10 -15 -15 -15 -4 0 -6 7 -3 15 4 8 10 15 15 15 4 0 6 -7 3 -15z m808
-260 c-3 -25 -13 -41 -33 -56 -30 -21 -37 -13 -18 24 9 18 49 67 54 67 0 0 -1
-16 -3 -35z m-1041 -68 c-11 -26 -25 -47 -31 -47 -6 0 -8 -4 -5 -10 3 -5 4
-10 1 -10 -15 0 -14 21 2 37 11 10 25 36 32 58 7 22 15 35 17 29 2 -6 -5 -32
-16 -57z m770 -220 c-8 -8 -11 -7 -11 4 0 20 13 34 18 19 3 -7 -1 -17 -7 -23z
m-25 -93 c-3 -36 -10 -72 -17 -80 -6 -8 -22 -42 -34 -76 -12 -34 -28 -64 -34
-66 -6 -2 -9 3 -5 11 3 8 1 18 -5 22 -6 3 -11 20 -11 36 0 18 4 28 10 24 6 -3
10 3 10 14 0 10 5 21 10 23 6 2 14 27 19 56 5 33 17 62 31 77 13 14 25 25 27
25 1 0 1 -30 -1 -66z m74 6 c-7 -17 -14 -29 -16 -27 -2 2 1 18 7 36 6 18 14
30 17 27 2 -3 -1 -19 -8 -36z m-3 -72 c-3 -8 -6 -5 -6 6 -1 11 2 17 5 13 3 -3
4 -12 1 -19z m-760 -425 c-3 -10 -5 -4 -5 12 0 17 2 24 5 18 2 -7 2 -21 0 -30z
m-250 -20 c-3 -10 -5 -4 -5 12 0 17 2 24 5 18 2 -7 2 -21 0 -30z m108 -163 c3
-5 1 -10 -4 -10 -6 0 -11 5 -11 10 0 6 2 10 4 10 3 0 8 -4 11 -10z m265 -69
c0 -32 -39 -90 -40 -59 0 9 5 20 10 23 6 3 10 19 10 36 0 16 5 29 10 29 6 0
10 -13 10 -29z m-30 -131 c0 -5 -4 -10 -10 -10 -5 0 -10 5 -10 10 0 6 5 10 10
10 6 0 10 -4 10 -10z m10 -70 l-11 -25 6 25 c2 14 5 34 6 45 2 19 2 19 6 0 2
-12 -1 -32 -7 -45z m-20 36 c0 -3 -4 -8 -10 -11 -5 -3 -10 -1 -10 4 0 6 5 11
10 11 6 0 10 -2 10 -4z"/>
<path d="M3820 11341 c45 -14 100 -20 100 -12 0 10 -52 21 -94 20 -30 -1 -30
-1 -6 -8z"/>
<path d="M4113 11285 c-10 -10 -9 -14 3 -19 22 -8 24 -8 24 8 0 21 -13 26 -27
11z"/>
<path d="M4615 11090 c3 -5 8 -10 11 -10 2 0 4 5 4 10 0 6 -5 10 -11 10 -5 0
-7 -4 -4 -10z"/>
<path d="M4810 11061 c0 -5 7 -14 15 -21 16 -14 18 -10 9 14 -6 17 -24 22 -24
7z"/>
<path d="M4450 11050 c0 -5 7 -7 15 -4 8 4 15 8 15 10 0 2 -7 4 -15 4 -8 0
-15 -4 -15 -10z"/>
<path d="M4874 10775 c21 -16 32 -13 21 4 -3 6 -14 11 -23 11 -15 -1 -15 -2 2
-15z"/>
<path d="M4240 11839 c0 -5 5 -7 10 -4 6 3 10 8 10 11 0 2 -4 4 -10 4 -5 0
-10 -5 -10 -11z"/>
<path d="M4550 11840 c0 -5 5 -10 11 -10 5 0 7 5 4 10 -3 6 -8 10 -11 10 -2 0
-4 -4 -4 -10z"/>
<path d="M4360 11830 c0 -5 12 -10 28 -9 24 0 25 1 7 9 -27 12 -35 12 -35 0z"/>
<path d="M3932 11808 c5 -33 34 -46 55 -25 16 16 16 17 -10 17 -16 0 -26 4
-23 9 3 5 -1 12 -10 15 -11 4 -15 0 -12 -16z"/>
<path d="M4005 11820 c3 -5 11 -10 16 -10 6 0 7 5 4 10 -3 6 -11 10 -16 10 -6
0 -7 -4 -4 -10z"/>
<path d="M4090 11810 c0 -19 11 -26 23 -14 8 8 -3 34 -14 34 -5 0 -9 -9 -9
-20z"/>
<path d="M4440 11820 c-13 -8 -12 -10 3 -10 9 0 17 5 17 10 0 12 -1 12 -20 0z"/>
<path d="M4360 11800 c0 -5 5 -10 11 -10 5 0 7 5 4 10 -3 6 -8 10 -11 10 -2 0
-4 -4 -4 -10z"/>
<path d="M2970 11785 c-11 -13 -10 -14 4 -9 9 3 16 10 16 15 0 13 -6 11 -20
-6z"/>
<path d="M4307 11793 c-4 -3 -7 -11 -7 -17 0 -6 5 -5 12 2 6 6 9 14 7 17 -3 3
-9 2 -12 -2z"/>
<path d="M4387 11773 c-4 -3 -7 -11 -7 -17 0 -6 5 -5 12 2 6 6 9 14 7 17 -3 3
-9 2 -12 -2z"/>
<path d="M4020 11760 c0 -5 4 -10 9 -10 6 0 13 5 16 10 3 6 -1 10 -9 10 -9 0
-16 -4 -16 -10z"/>
<path d="M2661 11731 c-14 -4 -26 -12 -28 -18 -3 -9 4 -9 29 -2 18 5 34 9 35
9 2 0 3 5 3 10 0 11 -4 11 -39 1z"/>
<path d="M4630 11726 c0 -3 9 -10 20 -16 11 -6 20 -8 20 -6 0 3 -9 10 -20 16
-11 6 -20 8 -20 6z"/>
<path d="M4690 11696 c0 -2 8 -10 18 -17 15 -13 16 -12 3 4 -13 16 -21 21 -21
13z"/>
<path d="M2113 11653 c-24 -8 -43 -19 -43 -24 0 -10 69 16 85 32 11 11 10 11
-42 -8z"/>
<path d="M4065 11610 c-7 -12 31 -12 95 -1 44 8 44 9 -22 10 -37 0 -70 -3 -73
-9z"/>
<path d="M1932 11570 c-45 -23 -82 -44 -82 -48 0 -4 41 11 90 35 83 40 103 53
82 53 -5 0 -46 -18 -90 -40z"/>
<path d="M4832 11605 c4 -5 3 -14 -3 -22 -9 -10 -8 -13 3 -13 8 0 35 -13 61
-30 47 -30 77 -38 77 -21 0 4 -28 26 -62 47 -65 40 -88 53 -76 39z"/>
<path d="M4380 11511 c0 -11 118 -26 127 -17 14 14 -15 28 -35 17 -10 -6 -21
-9 -23 -7 -10 9 -69 14 -69 7z"/>
<path d="M1666 11479 c-59 -29 -106 -65 -106 -81 0 -16 129 57 185 104 21 18
-23 5 -79 -23z"/>
<path d="M1745 11469 c-90 -52 -107 -70 -30 -31 52 26 120 72 105 71 -3 0 -36
-18 -75 -40z"/>
<path d="M4980 11491 c0 -12 42 -42 49 -36 5 6 -29 45 -41 45 -4 0 -8 -4 -8
-9z"/>
<path d="M4535 11472 c13 -12 107 -43 113 -37 6 6 -50 29 -93 39 -19 5 -26 4
-20 -2z"/>
<path d="M4300 11450 c0 -5 5 -10 10 -10 6 0 10 5 10 10 0 6 -4 10 -10 10 -5
0 -10 -4 -10 -10z"/>
<path d="M4802 11429 c4 -11 19 -20 118 -70 25 -12 53 -29 63 -37 16 -14 17
-14 12 1 -4 9 -15 19 -25 22 -11 3 -28 21 -39 39 -11 18 -32 38 -46 44 -33 15
-88 16 -83 1z"/>
<path d="M5050 11433 c0 -5 13 -17 28 -27 l27 -19 -24 26 c-26 28 -31 32 -31
20z"/>
<path d="M4740 11360 c8 -5 26 -10 40 -10 20 0 22 2 10 10 -8 5 -26 10 -40 10
-20 0 -22 -2 -10 -10z"/>
<path d="M1490 11340 c-8 -5 -12 -12 -9 -15 4 -3 12 1 19 10 14 17 11 19 -10
5z"/>
<path d="M4820 11297 c0 -3 19 -20 43 -38 23 -19 36 -26 28 -16 -16 20 -71 61
-71 54z"/>
<path d="M1550 11250 c-19 -18 -29 -34 -24 -41 5 -9 10 -6 15 8 4 12 17 24 27
28 11 3 26 12 32 20 24 29 -16 16 -50 -15z"/>
<path d="M5511 11234 c-23 -12 -22 -14 90 -128 157 -159 188 -197 253 -306 66
-112 72 -112 16 0 -28 55 -38 88 -34 104 4 17 -1 28 -20 44 -14 11 -29 29 -33
39 -17 43 -120 173 -153 192 -19 12 -48 32 -65 45 -26 20 -33 21 -54 10z"/>
<path d="M5270 11191 c0 -5 5 -13 10 -16 6 -3 10 -2 10 4 0 5 -4 13 -10 16 -5
3 -10 2 -10 -4z"/>
<path d="M5110 11186 c0 -2 8 -10 18 -17 15 -13 16 -12 3 4 -13 16 -21 21 -21
13z"/>
<path d="M4920 11145 c7 -8 20 -15 29 -15 13 1 13 3 -3 15 -26 19 -42 19 -26
0z"/>
<path d="M5324 11105 c21 -49 35 -73 36 -57 0 15 -38 92 -45 92 -3 0 1 -16 9
-35z"/>
<path d="M5024 11080 c21 -11 45 -25 55 -32 14 -12 15 -11 2 5 -16 21 -64 47
-83 47 -7 -1 4 -9 26 -20z"/>
<path d="M1288 11083 c7 -3 16 -2 19 1 4 3 -2 6 -13 5 -11 0 -14 -3 -6 -6z"/>
<path d="M1195 11029 c-11 -17 0 -20 21 -4 17 13 17 14 2 15 -9 0 -20 -5 -23
-11z"/>
<path d="M5200 10966 c0 -2 8 -10 18 -17 15 -13 16 -12 3 4 -13 16 -21 21 -21
13z"/>
<path d="M5866 10893 c4 -16 11 -29 16 -31 4 -2 8 -12 8 -23 0 -10 5 -19 10
-19 13 0 13 1 -10 54 -22 51 -34 61 -24 19z"/>
<path d="M5910 10777 c0 -12 13 -48 30 -80 16 -32 26 -65 23 -74 -4 -11 -2
-14 8 -11 19 7 15 51 -10 120 -23 59 -51 85 -51 45z"/>
<path d="M5718 10647 c12 -13 22 -28 22 -34 0 -19 70 -73 95 -73 27 0 46 -21
25 -28 -8 -3 8 -11 35 -18 28 -7 52 -10 54 -8 7 6 -77 76 -122 102 -22 12 -56
36 -77 52 -45 36 -62 39 -32 7z"/>
<path d="M5985 10580 c3 -5 8 -10 11 -10 2 0 4 5 4 10 0 6 -5 10 -11 10 -5 0
-7 -4 -4 -10z"/>
<path d="M472 10463 c-90 -141 -121 -219 -136 -343 -4 -31 7 -7 37 80 47 135
78 205 127 288 48 80 28 62 -28 -25z"/>
<path d="M3694 10526 c-11 -8 -33 -16 -49 -19 -22 -3 -18 -4 15 -5 31 -1 53 5
70 18 23 18 24 20 5 20 -11 0 -30 -6 -41 -14z"/>
<path d="M3630 10430 c8 -5 24 -9 35 -9 l20 0 -20 9 c-11 5 -27 9 -35 9 -13 1
-13 0 0 -9z"/>
<path d="M2876 10365 c-11 -8 -16 -15 -10 -16 5 0 -2 -5 -16 -11 -44 -18 -3
-20 77 -4 92 19 102 26 40 26 -25 0 -49 5 -52 10 -8 13 -16 12 -39 -5z"/>
<path d="M5840 10347 c0 -8 19 -30 42 -49 l43 -33 -22 30 c-11 17 -30 39 -42
49 -18 16 -21 17 -21 3z"/>
<path d="M3889 10333 c35 -3 59 -10 66 -20 10 -14 17 -15 41 -5 16 7 54 16 84
21 44 7 25 9 -95 8 -82 0 -126 -2 -96 -4z"/>
<path d="M3720 10324 c-8 -1 -50 -6 -93 -9 -43 -4 -75 -11 -71 -16 3 -5 -5
-13 -18 -18 -17 -7 0 -10 62 -10 47 1 79 3 72 6 -16 6 -5 23 16 23 9 1 31 7
47 15 28 12 20 17 -15 9z"/>
<path d="M4170 10296 c0 -2 7 -7 16 -10 8 -3 12 -2 9 4 -6 10 -25 14 -25 6z"/>
<path d="M4345 10280 c-3 -5 1 -10 10 -10 9 0 13 5 10 10 -3 6 -8 10 -10 10
-2 0 -7 -4 -10 -10z"/>
<path d="M3965 10265 c34 -16 75 -19 75 -6 0 9 -50 21 -84 20 -18 0 -16 -3 9
-14z"/>
<path d="M4431 10256 c11 -9 69 -14 69 -6 0 6 -16 10 -37 10 -20 0 -34 -2 -32
-4z"/>
<path d="M3635 10240 c-8 -13 35 -13 55 0 11 7 7 10 -17 10 -17 0 -35 -4 -38
-10z"/>
<path d="M3810 10240 c0 -5 4 -10 9 -10 6 0 13 5 16 10 3 6 -1 10 -9 10 -9 0
-16 -4 -16 -10z"/>
<path d="M5930 10221 c0 -6 4 -13 10 -16 6 -3 7 1 4 9 -7 18 -14 21 -14 7z"/>
<path d="M3100 10200 c0 -5 7 -10 15 -10 8 0 15 5 15 10 0 6 -7 10 -15 10 -8
0 -15 -4 -15 -10z"/>
<path d="M3016 10101 c-4 -5 3 -7 14 -4 23 6 26 13 6 13 -8 0 -17 -4 -20 -9z"/>
<path d="M4198 10099 c-20 -5 -16 -8 21 -18 43 -12 103 -8 130 9 17 10 -117
18 -151 9z"/>
<path d="M440 10090 c0 -5 5 -10 10 -10 6 0 10 5 10 10 0 6 -4 10 -10 10 -5 0
-10 -4 -10 -10z"/>
<path d="M4414 10086 c11 -9 24 -16 30 -16 12 0 7 5 -24 19 -24 11 -24 11 -6
-3z"/>
<path d="M6421 9968 c9 -35 29 -61 29 -40 0 14 -28 72 -35 72 -2 0 1 -14 6
-32z"/>
<path d="M6170 9963 c0 -4 5 -15 10 -23 8 -13 10 -13 10 2 0 9 -4 20 -10 23
-5 3 -10 3 -10 -2z"/>
<path d="M135 9860 c3 -5 8 -10 11 -10 2 0 4 5 4 10 0 6 -5 10 -11 10 -5 0 -7
-4 -4 -10z"/>
<path d="M6301 9800 c0 -8 4 -24 9 -35 5 -13 9 -14 9 -5 0 8 -4 24 -9 35 -5
13 -9 14 -9 5z"/>
<path d="M6331 9694 c0 -11 3 -14 6 -6 3 7 2 16 -1 19 -3 4 -6 -2 -5 -13z"/>
<path d="M6282 9655 c0 -16 2 -22 5 -12 2 9 2 23 0 30 -3 6 -5 -1 -5 -18z"/>
<path d="M95 9622 c-4 -24 -5 -46 -2 -49 8 -7 20 63 14 79 -2 7 -7 -6 -12 -30z"/>
<path d="M6285 9589 c-3 -14 -8 -68 -10 -120 -4 -96 -16 -186 -27 -205 -4 -5
-2 -16 3 -24 8 -13 11 -12 20 3 8 14 14 16 25 6 22 -18 25 -7 12 54 -9 42 -9
65 -1 86 6 16 7 35 2 42 -4 7 -5 43 -2 79 3 40 1 75 -5 86 -10 17 -11 17 -17
-7z"/>
<path d="M6180 9438 c0 -7 5 -20 10 -28 8 -12 10 -11 10 7 0 12 -4 25 -10 28
-5 3 -10 0 -10 -7z"/>
<path d="M6155 9420 c-3 -5 -1 -10 4 -10 6 0 11 5 11 10 0 6 -2 10 -4 10 -3 0
-8 -4 -11 -10z"/>
<path d="M6133 9240 c1 -11 5 -20 9 -20 11 0 10 28 -1 35 -6 3 -9 -4 -8 -15z"/>
<path d="M6370 9195 c0 -2 4 -15 10 -30 9 -22 7 -27 -15 -35 -14 -5 -25 -17
-25 -27 1 -52 22 -159 35 -173 8 -9 15 -23 15 -30 0 -23 17 2 30 45 15 48 29
67 42 59 7 -4 7 5 2 27 -11 43 -7 110 6 123 5 5 10 17 9 26 0 10 -2 11 -6 3
-6 -17 -42 -16 -75 1 -16 8 -28 13 -28 11z"/>
<path d="M6151 8964 c-1 -6 4 -25 9 -41 9 -25 7 -40 -14 -87 -14 -31 -30 -56
-35 -56 -6 0 -11 -9 -11 -20 0 -28 -26 -76 -45 -83 -8 -4 -15 -16 -15 -28 l0
-22 24 22 c14 13 37 48 52 77 15 30 33 54 40 54 15 0 20 17 29 98 3 28 2 52
-3 52 -5 0 -14 10 -20 23 -6 12 -11 17 -11 11z"/>
<path d="M4811 8859 c-37 -83 -36 -101 2 -31 34 62 49 102 38 102 -5 0 -23
-32 -40 -71z"/>
<path d="M90 8824 c0 -14 4 -23 10 -19 6 3 10 15 10 26 0 10 -4 19 -10 19 -5
0 -10 -12 -10 -26z"/>
<path d="M6182 8760 c0 -14 2 -19 5 -12 2 6 2 18 0 25 -3 6 -5 1 -5 -13z"/>
<path d="M6268 8743 c-22 -5 -24 -29 -4 -36 18 -7 43 20 30 32 -5 4 -17 6 -26
4z"/>
<path d="M1331 8674 c0 -11 3 -14 6 -6 3 7 2 16 -1 19 -3 4 -6 -2 -5 -13z"/>
<path d="M6181 8674 c0 -11 3 -14 6 -6 3 7 2 16 -1 19 -3 4 -6 -2 -5 -13z"/>
<path d="M4713 8668 c-6 -7 -16 -23 -22 -35 -9 -18 -9 -22 2 -18 7 3 18 19 24
35 12 32 11 37 -4 18z"/>
<path d="M4850 8638 c-29 -47 -25 -53 15 -22 19 14 35 29 35 31 0 3 -7 -1 -16
-8 -15 -12 -16 -11 -10 9 11 32 -1 27 -24 -10z"/>
<path d="M6125 8634 c-4 -22 -11 -55 -16 -74 -12 -48 -11 -54 5 -41 8 7 18 41
21 77 8 71 0 99 -10 38z"/>
<path d="M1307 8632 c-19 -20 -23 -37 -7 -27 10 6 33 45 27 45 -2 0 -11 -8
-20 -18z"/>
<path d="M4760 8635 c0 -8 2 -15 4 -15 2 0 6 7 10 15 3 8 1 15 -4 15 -6 0 -10
-7 -10 -15z"/>
<path d="M4730 8575 c-7 -9 -10 -18 -7 -21 3 -3 10 4 17 15 13 25 8 27 -10 6z"/>
<path d="M1265 8569 c-4 -6 -5 -13 -2 -16 7 -7 27 6 27 18 0 12 -17 12 -25 -2z"/>
<path d="M4647 8563 c-4 -3 -7 -11 -7 -17 0 -6 5 -5 12 2 6 6 9 14 7 17 -3 3
-9 2 -12 -2z"/>
<path d="M6451 8514 c0 -11 3 -14 6 -6 3 7 2 16 -1 19 -3 4 -6 -2 -5 -13z"/>
<path d="M4659 8515 c-1 -5 -1 -18 0 -27 1 -10 -3 -18 -9 -18 -6 0 -16 -14
-22 -31 -9 -25 -14 -30 -34 -25 -19 5 -24 2 -24 -14 0 -11 -4 -20 -9 -20 -4 0
-11 -16 -14 -36 -8 -46 -50 -114 -151 -244 -45 -58 -113 -149 -151 -204 -100
-144 -46 -104 67 50 203 276 222 299 246 296 15 -2 22 2 22 13 0 9 13 29 28
43 48 46 75 100 74 147 0 39 -19 95 -23 70z"/>
<path d="M6497 8497 c-4 -10 -7 -28 -6 -40 0 -21 1 -21 10 2 5 14 8 32 7 40
-3 13 -5 13 -11 -2z"/>
<path d="M4810 8485 c-7 -8 -8 -15 -2 -15 5 0 15 7 22 15 7 8 8 15 2 15 -5 0
-15 -7 -22 -15z"/>
<path d="M6100 8464 c0 -17 -7 -54 -16 -83 -15 -52 -14 -68 4 -57 10 6 37 115
33 136 -6 31 -21 34 -21 4z"/>
<path d="M6320 8406 c0 -9 5 -16 10 -16 6 0 10 4 10 9 0 6 -4 13 -10 16 -5 3
-10 -1 -10 -9z"/>
<path d="M375 8313 c10 -42 35 -97 40 -91 6 6 -34 118 -42 118 -3 0 -2 -12 2
-27z"/>
<path d="M4481 8313 c-10 -26 -10 -27 4 -9 8 11 15 23 15 28 0 15 -7 8 -19
-19z"/>
<path d="M6060 8292 c0 -7 41 -36 44 -30 1 2 8 12 16 22 14 18 14 19 -7 8 -14
-8 -24 -9 -28 -2 -7 12 -25 13 -25 2z"/>
<path d="M6062 8219 c2 -7 10 -15 17 -17 8 -3 12 1 9 9 -2 7 -10 15 -17 17 -8
3 -12 -1 -9 -9z"/>
<path d="M4385 8173 c-39 -54 -48 -84 -11 -38 30 37 59 85 52 85 -3 0 -21 -21
-41 -47z"/>
<path d="M430 8190 c0 -12 71 -92 77 -86 5 5 -60 95 -69 95 -5 1 -8 -3 -8 -9z"/>
<path d="M1450 8182 c0 -13 25 -22 63 -22 23 1 28 3 17 9 -25 15 -80 23 -80
13z"/>
<path d="M550 8111 c0 -5 5 -13 10 -16 6 -3 10 -2 10 4 0 5 -4 13 -10 16 -5 3
-10 2 -10 -4z"/>
<path d="M390 8080 c0 -5 5 -10 10 -10 6 0 10 5 10 10 0 6 -4 10 -10 10 -5 0
-10 -4 -10 -10z"/>
<path d="M4233 8053 c-4 -10 -17 -28 -30 -40 -13 -12 -23 -28 -23 -35 1 -13
80 71 80 85 0 14 -21 7 -27 -10z"/>
<path d="M4259 8003 c-8 -10 -21 -27 -29 -38 -15 -20 -15 -20 9 0 21 18 47 55
38 55 -2 0 -10 -8 -18 -17z"/>
<path d="M5944 7923 c-15 -26 -45 -77 -66 -112 -21 -36 -38 -70 -38 -77 0 -7
-6 -15 -12 -17 -9 -4 -10 -8 -2 -14 6 -4 13 -15 16 -23 3 -9 19 12 43 54 21
37 48 79 60 92 15 16 24 43 29 80 4 31 5 59 2 61 -2 3 -17 -17 -32 -44z"/>
<path d="M664 7905 c22 -17 40 -20 32 -6 -3 5 -16 11 -28 14 -22 6 -22 5 -4
-8z"/>
<path d="M640 7875 c-13 -16 -7 -45 10 -45 13 0 13 17 -1 26 -8 4 -7 9 2 15 7
4 11 11 8 14 -4 3 -12 -1 -19 -10z"/>
<path d="M4089 7793 c-108 -128 -196 -220 -236 -244 -19 -12 -36 -19 -38 -17
-2 2 10 25 27 51 49 76 26 64 -50 -25 -88 -105 -172 -212 -168 -216 2 -2 22 7
45 19 23 12 44 19 48 16 12 -13 -127 -189 -171 -216 -21 -14 -36 -32 -39 -50
-3 -16 -21 -42 -38 -57 -100 -89 -364 -382 -390 -431 -7 -16 -26 -44 -42 -63
-53 -65 -98 -151 -86 -166 8 -10 -2 -29 -45 -82 -86 -108 -406 -630 -406 -662
0 -6 5 -8 10 -5 6 4 8 10 5 15 -3 4 2 10 10 14 17 6 140 193 155 236 9 25 216
334 233 349 10 7 17 19 17 26 0 14 38 51 45 43 3 -2 -18 -43 -46 -89 -65 -106
-133 -248 -124 -257 10 -10 57 48 52 62 -3 7 3 18 13 24 10 6 46 52 80 102 34
49 64 90 67 90 2 0 1 -4 -2 -10 -3 -5 -4 -10 -2 -10 3 0 70 91 150 203 79 111
192 256 250 321 67 76 103 125 99 134 -3 10 -1 13 6 8 8 -5 12 2 12 21 0 32
21 67 62 101 15 13 44 46 65 75 20 29 58 77 83 107 25 30 37 49 27 41 -44 -35
-20 8 78 137 58 77 148 185 200 240 102 110 125 142 100 142 -8 0 -15 -4 -15
-8 0 -4 -22 -25 -50 -45 -27 -21 -50 -33 -50 -28 0 5 4 12 9 15 10 7 133 176
127 176 -2 0 -37 -39 -77 -87z m-516 -705 c-10 -18 -45 -59 -78 -92 -33 -32
-66 -68 -75 -81 -8 -12 -27 -40 -42 -62 -27 -41 -119 -157 -213 -269 -27 -32
-63 -75 -79 -94 -16 -19 -22 -24 -14 -10 8 14 33 59 56 100 23 41 57 90 77
108 19 19 33 38 30 42 -3 5 0 12 7 17 7 4 32 33 55 63 23 30 72 84 109 120 36
36 75 79 86 95 29 41 80 95 91 95 4 0 0 -15 -10 -32z m-253 -382 c0 -3 -4 -8
-10 -11 -5 -3 -10 -1 -10 4 0 6 5 11 10 11 6 0 10 -2 10 -4z m-26 -38 c-20
-34 -141 -183 -128 -158 11 22 83 121 107 148 23 24 32 29 21 10z m-264 -257
c0 -12 -41 -63 -47 -57 -4 4 37 66 44 66 2 0 3 -4 3 -9z"/>
<path d="M3956 7711 c-4 -7 -5 -15 -2 -18 9 -9 19 4 14 18 -4 11 -6 11 -12 0z"/>
<path d="M5535 7530 c-3 -5 -2 -10 4 -10 5 0 13 5 16 10 3 6 2 10 -4 10 -5 0
-13 -4 -16 -10z"/>
<path d="M5616 7505 c-3 -9 -6 -22 -5 -28 0 -7 5 -1 10 12 5 13 8 26 5 28 -2
2 -6 -3 -10 -12z"/>
<path d="M3944 7468 l-19 -23 23 19 c21 18 27 26 19 26 -2 0 -12 -10 -23 -22z"/>
<path d="M5495 7470 c-3 -5 -1 -10 4 -10 6 0 11 5 11 10 0 6 -2 10 -4 10 -3 0
-8 -4 -11 -10z"/>
<path d="M3828 7313 c7 -3 16 -2 19 1 4 3 -2 6 -13 5 -11 0 -14 -3 -6 -6z"/>
<path d="M3575 7291 c-6 -11 9 -23 19 -14 9 9 7 23 -3 23 -6 0 -12 -4 -16 -9z"/>
<path d="M5186 7124 c-4 -9 -4 -19 -1 -22 2 -3 7 3 11 12 4 9 4 19 1 22 -2 3
-7 -3 -11 -12z"/>
<path d="M5602 6894 c-12 -8 -20 -20 -17 -25 10 -15 21 -10 33 16 14 29 13 30
-16 9z"/>
<path d="M5130 6719 c0 -5 5 -7 10 -4 6 3 10 8 10 11 0 2 -4 4 -10 4 -5 0 -10
-5 -10 -11z"/>
<path d="M4838 6318 c-35 -47 -79 -118 -73 -118 18 0 113 135 103 146 -3 2
-16 -10 -30 -28z"/>
<path d="M2996 5977 c-35 -46 -72 -99 -80 -118 l-16 -34 5 30 c5 29 4 29 -40
-20 -25 -27 -45 -45 -45 -40 0 6 -11 11 -25 11 -18 1 -35 -11 -67 -50 -73 -86
-72 -86 -60 -98 9 -9 12 -9 12 1 0 7 24 39 52 72 50 56 88 76 88 45 0 -22 -21
-31 -32 -15 -8 11 -9 10 -4 -3 3 -12 0 -18 -9 -18 -19 0 -19 -16 -1 -23 13 -5
46 6 95 32 15 8 93 126 116 177 8 17 21 37 30 44 9 7 23 26 31 42 8 15 21 28
29 28 8 0 15 5 15 10 0 29 -35 1 -94 -73z m-139 -214 c-9 -9 -20 -13 -24 -9
-4 4 -1 11 7 16 25 16 35 11 17 -7z"/>
<path d="M2842 5947 c-18 -18 -29 -36 -26 -40 4 -3 -1 -18 -10 -32 -10 -15
-16 -30 -14 -34 2 -4 24 25 50 66 51 79 51 93 0 40z"/>
<path d="M2737 5692 c-10 -10 -17 -21 -17 -24 0 -9 50 6 50 15 0 23 -1 27 -8
27 -5 0 -16 -8 -25 -18z"/>
<path d="M2675 5630 c3 -5 11 -10 16 -10 6 0 7 5 4 10 -3 6 -11 10 -16 10 -6
0 -7 -4 -4 -10z"/>
<path d="M2611 5594 c-29 -36 -15 -51 18 -20 15 14 35 26 46 26 24 0 17 5 -17
14 -21 5 -31 1 -47 -20z"/>
<path d="M2414 5584 c-15 -22 -15 -27 -3 -35 21 -13 26 -11 43 13 20 29 20 42
0 34 -8 -3 -12 -2 -9 4 14 23 -16 8 -31 -16z"/>
<path d="M2615 5518 c-45 -70 -52 -84 -36 -74 15 10 14 -19 -1 -36 -21 -22
-36 -49 -74 -123 -19 -38 -32 -62 -30 -52 6 21 -10 23 -18 2 -3 -8 -12 -15
-19 -15 -9 0 -14 -11 -14 -30 0 -24 3 -27 14 -19 21 18 16 -5 -7 -32 -14 -17
-18 -19 -14 -6 3 9 1 17 -4 17 -18 0 -23 -18 -16 -56 6 -32 8 -34 17 -18 6 11
24 37 41 59 17 21 31 42 31 46 0 4 4 11 9 16 6 5 6 2 1 -7 -8 -13 -7 -13 8 -1
9 7 17 24 17 37 0 34 98 256 145 327 13 21 14 27 4 27 -8 0 -32 -28 -54 -62z"/>
<path d="M2320 5365 c0 -8 2 -15 4 -15 2 0 6 7 10 15 3 8 1 15 -4 15 -6 0 -10
-7 -10 -15z"/>
<path d="M2292 5310 c-18 -29 -15 -38 4 -12 9 13 14 25 12 27 -2 2 -9 -5 -16
-15z"/>
<path d="M2345 5291 c-9 -18 -11 -31 -5 -31 11 0 34 50 26 57 -2 3 -12 -9 -21
-26z"/>
<path d="M3933 5182 c-99 -138 -233 -347 -233 -362 0 -24 42 19 65 65 13 27
65 101 114 163 51 65 87 120 84 128 -4 12 8 37 55 112 8 12 13 22 11 22 -3 0
-45 -57 -96 -128z"/>
<path d="M3971 5144 c-12 -15 -21 -32 -21 -38 1 -11 24 15 41 47 14 25 3 21
-20 -9z"/>
<path d="M2524 5125 c-9 -37 2 -41 14 -6 7 18 7 31 2 31 -5 0 -12 -11 -16 -25z"/>
<path d="M2360 5110 c-6 -11 -8 -20 -6 -20 3 0 10 9 16 20 6 11 8 20 6 20 -3
0 -10 -9 -16 -20z"/>
<path d="M3899 5033 c-13 -16 -12 -17 4 -4 16 13 21 21 13 21 -2 0 -10 -8 -17
-17z"/>
<path d="M2310 5020 c0 -5 5 -10 10 -10 6 0 10 5 10 10 0 6 -4 10 -10 10 -5 0
-10 -4 -10 -10z"/>
<path d="M2341 4921 c-10 -6 -10 -10 -1 -16 13 -8 24 -1 19 14 -3 6 -10 7 -18
2z"/>
<path d="M3682 4873 c-69 -88 -274 -423 -259 -423 7 0 97 139 97 149 0 5 4 11
8 13 5 2 27 31 50 65 23 34 51 64 62 68 23 7 44 41 35 55 -4 6 5 31 19 57 33
58 27 65 -12 16z"/>
<path d="M2065 4840 c-4 -12 -5 -24 -2 -27 3 -2 8 5 12 17 4 12 5 24 2 27 -3
2 -8 -5 -12 -17z"/>
<path d="M2301 4805 c1 -19 18 -51 18 -35 0 8 -4 22 -9 30 -5 8 -9 11 -9 5z"/>
<path d="M3746 4773 c-6 -14 -5 -15 5 -6 7 7 10 15 7 18 -3 3 -9 -2 -12 -12z"/>
<path d="M2040 4768 c0 -7 -3 -24 -6 -38 -5 -24 -5 -24 10 -6 18 22 21 56 6
56 -5 0 -10 -6 -10 -12z"/>
<path d="M2330 4750 c0 -5 5 -10 11 -10 5 0 7 5 4 10 -3 6 -8 10 -11 10 -2 0
-4 -4 -4 -10z"/>
<path d="M3531 4702 c-17 -27 -31 -53 -31 -58 0 -9 14 10 49 69 33 54 18 45
-18 -11z"/>
<path d="M3660 4735 c-8 -9 -8 -15 -2 -15 12 0 26 19 19 26 -2 2 -10 -2 -17
-11z"/>
<path d="M2296 4718 c-3 -7 -7 -26 -11 -42 -5 -26 -4 -28 9 -17 9 8 16 22 16
32 0 11 5 19 10 19 6 0 10 5 10 10 0 14 -30 12 -34 -2z"/>
<path d="M2017 4672 c-14 -21 -45 -142 -36 -142 12 0 50 110 47 134 -2 15 -5
17 -11 8z"/>
<path d="M3367 4553 c-4 -3 -7 -13 -7 -21 0 -12 3 -12 15 -2 8 7 15 16 15 21
0 11 -14 12 -23 2z"/>
<path d="M2045 4470 c-10 -33 -16 -62 -13 -65 3 -3 13 22 22 56 23 79 15 87
-9 9z"/>
<path d="M1968 4494 c-15 -23 -47 -133 -54 -179 -13 -93 -112 -412 -114 -365
-2 80 -136 -314 -146 -428 -5 -67 5 -127 21 -127 11 0 52 77 60 114 3 17 16
33 32 40 21 10 24 16 19 42 -3 18 0 39 8 52 8 12 17 45 21 72 15 108 45 266
55 284 5 11 10 31 10 45 0 26 48 204 69 260 7 16 9 36 6 44 -3 7 2 41 10 74
15 57 16 94 3 72z"/>
<path d="M3371 4370 c-12 -22 -20 -40 -17 -40 7 0 49 71 44 75 -2 3 -15 -13
-27 -35z"/>
<path d="M3196 4274 c-8 -21 -8 -59 0 -51 7 6 14 67 9 67 -2 0 -6 -7 -9 -16z"/>
<path d="M3321 4218 c-15 -42 -6 -48 13 -9 18 35 19 41 7 41 -5 0 -14 -14 -20
-32z"/>
<path d="M3385 4209 c-4 -6 -5 -12 -2 -15 2 -3 7 2 10 11 7 17 1 20 -8 4z"/>
<path d="M3116 4147 c-15 -26 -36 -68 -46 -95 -10 -26 -25 -60 -34 -77 -9 -16
-16 -41 -16 -55 0 -19 11 -6 41 50 22 41 42 85 46 98 3 13 12 26 19 29 14 5
29 63 22 85 -3 7 -17 -9 -32 -35z"/>
<path d="M3236 4123 c-6 -14 -5 -15 5 -6 7 7 10 15 7 18 -3 3 -9 -2 -12 -12z"/>
<path d="M3082 3893 c-15 -48 -8 -55 8 -8 7 20 10 38 8 41 -3 2 -10 -13 -16
-33z"/>
<path d="M2960 3784 c-30 -67 -91 -262 -104 -334 -6 -32 -5 -33 5 -10 23 52
139 403 135 408 -3 2 -19 -27 -36 -64z"/>
<path d="M1672 3837 c-1 -4 -11 -39 -22 -78 -13 -48 -15 -69 -7 -66 16 5 38
85 34 122 -2 17 -5 27 -5 22z"/>
<path d="M3050 3607 c-5 -15 -15 -39 -21 -54 l-10 -28 20 22 c12 12 21 29 21
37 0 8 6 16 13 19 9 4 9 7 0 17 -10 11 -14 8 -23 -13z"/>
<path d="M2876 3338 c-61 -171 -104 -430 -65 -391 4 4 24 91 44 193 20 102 38
197 41 213 8 41 -2 33 -20 -15z"/>
<path d="M2456 3052 c-5 -18 -5 -36 -2 -39 7 -7 19 43 13 59 -2 7 -7 -2 -11
-20z"/>
<path d="M1940 2976 c0 -22 3 -27 11 -19 8 8 8 16 0 30 -9 16 -10 14 -11 -11z"/>
<path d="M2438 2931 c-11 -49 -10 -67 3 -54 6 6 9 28 7 49 l-3 39 -7 -34z"/>
<path d="M2645 2840 c-3 -5 -1 -10 4 -10 6 0 11 5 11 10 0 6 -2 10 -4 10 -3 0
-8 -4 -11 -10z"/>
<path d="M2003 2805 c-8 -22 6 -33 17 -15 13 20 12 30 0 30 -6 0 -13 -7 -17
-15z"/>
<path d="M2606 2730 c-39 -79 -52 -136 -37 -160 9 -13 15 -11 38 13 18 18 24
30 17 35 -7 5 -8 18 -2 41 7 26 13 32 29 28 18 -5 19 -2 13 46 -4 29 -10 56
-14 61 -5 5 -25 -24 -44 -64z m34 0 c0 -5 -5 -10 -11 -10 -5 0 -7 5 -4 10 3 6
8 10 11 10 2 0 4 -4 4 -10z"/>
<path d="M2177 2783 c-4 -3 -7 -14 -7 -23 0 -10 -7 -23 -15 -30 -17 -14 -11
-32 9 -24 15 6 36 47 36 69 0 16 -12 20 -23 8z"/>
<path d="M2310 2761 c0 -6 5 -13 10 -16 6 -3 10 1 10 9 0 9 -4 16 -10 16 -5 0
-10 -4 -10 -9z"/>
<path d="M2357 2759 c7 -7 15 -10 18 -7 3 3 -2 9 -12 12 -14 6 -15 5 -6 -5z"/>
<path d="M2275 2700 c-4 -12 -5 -24 -2 -27 3 -2 8 5 12 17 4 12 5 24 2 27 -3
2 -8 -5 -12 -17z"/>
<path d="M2356 2664 c-6 -35 -11 -41 -27 -37 -14 4 -19 0 -19 -16 0 -12 -5
-31 -10 -42 -16 -30 5 -23 34 11 25 30 42 87 33 112 -2 7 -7 -6 -11 -28z"/>
<path d="M1710 1730 c-7 -13 -2 -16 33 -15 37 0 56 9 57 25 0 3 -18 5 -41 5
-27 0 -44 -5 -49 -15z"/>
<path d="M2639 1722 c16 -30 15 -31 -34 -43 -45 -11 -61 -29 -27 -29 22 0 72
-22 72 -32 0 -4 6 -5 14 -2 8 3 23 -3 33 -15 36 -39 48 -55 48 -66 0 -6 10
-24 22 -40 23 -30 23 -30 29 -7 10 34 26 23 57 -38 21 -41 27 -69 28 -119 2
-66 2 -66 10 -21 4 25 8 71 7 103 -2 78 14 92 42 38 11 -23 18 -51 15 -61 -3
-10 -1 -21 6 -25 13 -9 4 -121 -16 -178 -13 -37 -13 -38 6 -21 26 24 39 76 39
161 0 123 -14 165 -76 227 -30 31 -54 60 -54 65 0 5 -8 15 -17 22 -15 12 -16
12 -10 -4 4 -10 10 -37 13 -60 l5 -42 -43 47 c-24 26 -59 59 -78 73 -19 14
-35 30 -35 36 0 5 -15 19 -34 31 l-34 22 12 -22z m261 -215 c-1 -21 -1 -21
-15 -3 -8 10 -12 23 -9 28 9 14 24 -2 24 -25z"/>
<path d="M2126 1698 c-20 -11 -38 -15 -113 -22 -24 -3 -52 -7 -63 -11 -14 -4
-20 -2 -18 7 4 17 -58 23 -77 8 -8 -7 -19 -9 -24 -6 -19 12 -61 -5 -61 -25 0
-11 -7 -19 -17 -19 -24 0 -138 -55 -148 -70 -4 -7 -3 -15 3 -19 6 -4 3 -15 -9
-30 l-19 -23 0 31 c0 18 9 50 20 71 11 22 17 40 12 40 -17 0 -71 -66 -78 -95
-4 -16 -12 -36 -17 -43 -8 -11 -5 -19 13 -33 14 -10 31 -19 38 -19 6 0 12 -4
12 -9 0 -5 11 -22 24 -38 14 -16 28 -42 32 -57 6 -26 5 -28 -17 -21 -13 4 -27
12 -30 17 -7 10 -54 -5 -64 -21 -10 -17 -33 -13 -38 7 -3 9 -5 0 -6 -20 0 -21
-5 -38 -11 -38 -5 0 -10 -21 -10 -47 0 -45 3 -49 75 -119 41 -40 75 -81 75
-91 -1 -15 -4 -14 -21 7 l-21 25 -24 -30 c-21 -27 -22 -31 -7 -47 9 -10 24
-18 33 -18 10 0 20 -7 24 -15 3 -8 15 -15 26 -15 17 0 20 -6 20 -48 0 -27 -7
-70 -16 -95 -13 -38 -14 -50 -4 -62 17 -21 5 -31 -17 -14 -16 13 -16 12 -1
-16 9 -16 21 -42 28 -57 8 -16 20 -28 29 -28 12 0 13 -2 2 -13 -10 -10 -17 -6
-36 17 -22 28 -23 28 -34 8 -15 -29 -13 -41 3 -19 13 16 14 16 20 -7 3 -14 15
-30 25 -36 50 -26 66 -64 31 -73 -11 -3 -20 -1 -20 4 0 5 -4 9 -10 9 -19 0
-10 -19 30 -65 22 -25 40 -53 40 -61 0 -14 -2 -13 -16 0 -34 34 -45 15 -14
-24 26 -34 25 -43 -5 -36 -18 5 -25 2 -25 -9 0 -8 9 -15 20 -15 11 0 20 -5 20
-12 0 -9 3 -9 12 0 16 16 58 15 58 0 0 -7 -11 -26 -24 -43 -19 -24 -21 -31
-10 -42 7 -7 19 -13 27 -13 8 0 20 -6 26 -14 7 -8 43 -15 100 -18 48 -3 97
-10 107 -16 11 -7 14 -12 7 -13 -7 -1 -18 -2 -25 -3 -6 0 -13 -7 -15 -13 -6
-17 100 -18 130 -1 12 7 54 16 92 20 39 4 87 10 107 14 30 5 39 3 44 -10 3 -9
10 -13 15 -10 5 3 7 9 4 14 -9 14 58 28 192 39 67 6 133 16 147 22 29 14 61 5
50 -13 -4 -7 2 -5 13 4 21 20 43 24 43 8 0 -5 6 -7 14 -4 20 8 46 77 46 120 0
30 4 37 30 46 17 6 37 23 46 40 10 20 12 28 3 23 -10 -7 -11 12 -6 85 4 52 11
96 16 100 9 5 6 22 -21 137 -6 23 -19 50 -30 60 -19 17 -20 17 -34 -2 -8 -10
-14 -29 -14 -41 0 -12 -5 -24 -11 -26 -6 -2 -11 -16 -11 -30 0 -24 -3 -26 -24
-16 -13 6 -31 25 -39 41 -18 37 -18 37 -1 37 11 0 13 9 9 35 -4 24 -1 41 9 53
18 20 30 62 18 62 -8 0 3 70 16 105 4 11 17 35 27 53 24 40 41 30 58 -32 6
-22 13 -47 15 -54 2 -7 8 -11 14 -7 9 6 -15 79 -46 140 -20 38 -15 71 10 67
10 -2 16 0 14 5 -2 4 -10 23 -17 41 -16 40 -31 41 -31 2 0 -16 -4 -30 -8 -30
-9 0 -32 66 -32 92 0 20 -35 50 -73 63 -30 10 -32 13 -32 62 0 28 -3 55 -7 59
-5 4 -8 -4 -8 -17 0 -49 -16 -52 -34 -5 -9 24 -24 50 -32 56 -18 16 -18 2 1
-43 21 -52 19 -67 -9 -67 -42 0 -76 18 -76 39 0 13 5 18 14 15 8 -3 17 -1 20
4 3 6 -14 18 -39 29 -51 20 -58 49 -17 69 36 18 37 23 3 19 -18 -2 -43 0 -57
5 -17 7 -32 6 -46 -1 -15 -8 -23 -8 -32 1 -8 9 -8 14 2 17 20 8 14 18 -28 46
-36 23 -42 24 -47 10 -5 -13 -10 -11 -30 13 -19 24 -25 27 -33 14 -6 -10 -10
-11 -10 -2 0 40 -71 65 -114 40z m-22 -37 c9 -14 -21 -78 -39 -85 -9 -3 -13
-10 -10 -16 3 -6 -1 -7 -9 -4 -9 3 -20 20 -25 38 -7 24 -9 26 -10 9 -1 -20 -6
-23 -46 -23 -25 0 -45 -4 -45 -10 0 -5 -6 -10 -14 -10 -21 0 -8 38 20 57 13 8
28 12 34 8 6 -4 17 -2 24 4 13 11 83 38 103 40 6 0 14 -3 17 -8z m94 -37 c16
-11 22 -25 22 -51 0 -34 -1 -35 -30 -30 -22 5 -32 2 -39 -11 -9 -15 -12 -15
-21 -2 -6 10 -10 11 -10 3 0 -7 -5 -13 -11 -13 -6 0 -9 9 -6 19 3 14 1 18 -9
14 -23 -9 -16 3 26 46 46 46 47 47 78 25z m56 -113 c3 -4 3 -11 0 -14 -8 -8
-34 3 -34 14 0 11 27 12 34 0z m56 -61 c-20 -13 -40 -13 -40 0 0 6 12 10 28
10 21 0 24 -2 12 -10z m284 -88 c3 -5 -1 -9 -9 -9 -8 0 -15 4 -15 9 0 4 4 8 9
8 6 0 12 -4 15 -8z m116 -102 c0 -5 -2 -10 -4 -10 -3 0 -8 5 -11 10 -3 6 -1
10 4 10 6 0 11 -4 11 -10z m-1140 -10 c0 -5 -4 -10 -10 -10 -5 0 -10 5 -10 10
0 6 5 10 10 10 6 0 10 -4 10 -10z m-19 -73 c-8 -8 -11 -4 -11 14 0 33 14 47
18 19 2 -12 -1 -27 -7 -33z m1189 -8 c0 -23 -5 -24 -34 -2 -19 14 -21 21 -12
40 l11 23 18 -21 c9 -12 17 -30 17 -40z m63 16 c3 -16 0 -25 -9 -25 -10 0 -10
-8 2 -37 10 -23 13 -49 9 -72 l-7 -36 -14 25 c-8 15 -13 57 -14 109 0 70 2 82
14 72 8 -6 16 -23 19 -36z m-1180 -2 c7 -43 5 -47 -22 -38 -17 5 -20 12 -15
33 13 55 29 57 37 5z m1032 7 c3 -5 1 -10 -4 -10 -6 0 -11 5 -11 10 0 6 2 10
4 10 3 0 8 -4 11 -10z m91 -227 c-6 -15 -8 -15 -17 -3 -8 13 -11 13 -23 -2
-12 -17 -26 -15 -26 3 0 13 54 36 64 28 5 -4 6 -16 2 -26z m-17 -152 c0 -10
-2 -11 -6 -3 -2 6 -11 12 -19 12 -9 0 -13 4 -9 10 9 14 35 0 34 -19z m151
-170 c0 -62 -11 -93 -26 -78 -8 7 -6 125 1 137 16 26 25 4 25 -59z m-1185 -31
c-3 -5 -13 -10 -21 -10 -8 0 -12 5 -9 10 3 6 13 10 21 10 8 0 12 -4 9 -10z
m25 -40 c0 -5 -4 -10 -9 -10 -6 0 -13 5 -16 10 -3 6 1 10 9 10 9 0 16 -4 16
-10z m-10 -30 c0 -5 -4 -10 -10 -10 -5 0 -10 5 -10 10 0 6 5 10 10 10 6 0 10
-4 10 -10z m1104 -26 c9 -23 7 -54 -3 -54 -11 0 -21 25 -21 51 0 23 15 25 24
3z"/>
<path d="M1656 1625 c-3 -8 -1 -15 4 -15 6 0 10 7 10 15 0 8 -2 15 -4 15 -2 0
-6 -7 -10 -15z"/>
<path d="M2646 1554 c-4 -9 -4 -19 -1 -22 2 -3 7 3 11 12 4 9 4 19 1 22 -2 3
-7 -3 -11 -12z"/>
<path d="M2780 1411 c0 -11 5 -23 10 -26 6 -4 10 5 10 19 0 14 -4 26 -10 26
-5 0 -10 -9 -10 -19z"/>
<path d="M2930 1412 c6 -13 14 -21 18 -18 3 4 -2 14 -12 24 -18 16 -18 16 -6
-6z"/>
<path d="M1380 1400 c0 -5 5 -10 10 -10 6 0 10 5 10 10 0 6 -4 10 -10 10 -5 0
-10 -4 -10 -10z"/>
<path d="M1545 1360 c-3 -5 -1 -10 4 -10 6 0 11 5 11 10 0 6 -2 10 -4 10 -3 0
-8 -4 -11 -10z"/>
<path d="M1415 1304 c-20 -30 -10 -48 11 -20 13 18 19 46 10 46 -2 0 -11 -12
-21 -26z"/>
<path d="M2837 1293 c-11 -10 -8 -43 3 -43 6 0 10 11 10 25 0 26 -2 29 -13 18z"/>
<path d="M1460 1032 c0 -10 33 -42 43 -42 14 0 5 16 -18 33 -14 10 -25 14 -25
9z"/>
<path d="M2822 985 c0 -16 2 -22 5 -12 2 9 2 23 0 30 -3 6 -5 -1 -5 -18z"/>
<path d="M1497 939 c-25 -23 -32 -87 -17 -135 10 -30 15 -35 19 -21 6 15 10
11 24 -19 22 -45 30 -40 16 10 -6 22 -8 55 -5 75 6 34 5 35 -9 17 -8 -11 -15
-24 -15 -29 0 -4 -5 -5 -11 -1 -14 8 -4 62 16 84 21 23 4 41 -18 19z"/>
<path d="M2916 909 c-3 -18 -6 -48 -6 -68 1 -47 16 -23 25 40 8 53 -9 77 -19
28z"/>
<path d="M2820 841 c0 -5 5 -13 10 -16 6 -3 10 -2 10 4 0 5 -4 13 -10 16 -5 3
-10 2 -10 -4z"/>
<path d="M1490 710 c0 -5 5 -10 11 -10 5 0 7 5 4 10 -3 6 -8 10 -11 10 -2 0
-4 -4 -4 -10z"/>
<path d="M1531 704 c-1 -6 8 -19 19 -29 18 -16 20 -16 20 -2 0 10 -6 17 -14
17 -8 0 -17 6 -19 13 -3 7 -6 7 -6 1z"/>
<path d="M1530 530 c0 -5 5 -10 10 -10 6 0 10 5 10 10 0 6 -4 10 -10 10 -5 0
-10 -4 -10 -10z"/>
<path d="M2991 513 c-10 -26 -10 -27 4 -9 8 11 15 23 15 28 0 15 -7 8 -19 -19z"/>
<path d="M1380 502 c0 -16 67 -89 74 -82 9 9 -5 50 -17 50 -6 0 -21 10 -34 22
-13 12 -23 16 -23 10z"/>
<path d="M2974 403 c-3 -10 -11 -31 -16 -46 -11 -29 -4 -48 11 -31 10 10 24
94 16 94 -3 0 -8 -8 -11 -17z"/>
<path d="M1582 269 c2 -7 10 -15 17 -17 8 -3 12 1 9 9 -2 7 -10 15 -17 17 -8
3 -12 -1 -9 -9z"/>
<path d="M1665 144 c-19 -15 -19 -15 -1 -10 10 4 25 1 33 -6 13 -10 15 -9 12
6 -5 26 -21 29 -44 10z"/>
<path d="M2723 84 c-3 -8 0 -21 6 -27 10 -9 16 -8 27 7 8 11 14 23 14 28 0 15
-41 8 -47 -8z"/>
<path d="M1840 76 c0 -14 29 -26 68 -26 30 0 28 18 -4 30 -36 14 -64 12 -64
-4z"/>
<path d="M1800 50 c0 -5 5 -10 10 -10 6 0 10 5 10 10 0 6 -4 10 -10 10 -5 0
-10 -4 -10 -10z"/>
<path d="M1945 21 c-10 -17 12 -21 25 -6 10 12 10 15 -3 15 -9 0 -18 -4 -22
-9z"/>
</g>
</svg>
