<?xml version="1.0" standalone="no"?>
<!DOCTYPE svg PUBLIC "-//W3C//DTD SVG 20010904//EN"
 "http://www.w3.org/TR/2001/REC-SVG-20010904/DTD/svg10.dtd">
<svg version="1.0" xmlns="http://www.w3.org/2000/svg"
 width="900.000000pt" height="550.000000pt" viewBox="0 0 900.000000 550.000000"
 preserveAspectRatio="xMidYMid meet">

<g transform="translate(0.000000,550.000000) scale(0.100000,-0.100000)"
fill="#000000" stroke="none">
<path d="M5170 5362 c0 -5 11 -40 25 -76 14 -37 25 -71 25 -76 0 -5 -24 -25
-54 -44 l-54 -34 -64 23 c-115 42 -236 58 -387 53 -118 -5 -148 -10 -229 -37
-51 -17 -109 -40 -130 -51 l-37 -21 40 7 c61 10 86 7 103 -10 15 -14 16 -71
16 -526 0 -281 1 -510 3 -510 1 0 21 36 43 80 22 44 45 80 51 80 11 0 7 -326
-7 -505 -6 -87 1 -91 30 -15 19 50 69 107 133 151 23 16 96 90 164 164 67 75
170 178 230 230 138 121 132 135 84 -205 -9 -63 -22 -150 -30 -194 -25 -133
-17 -127 46 34 46 119 52 128 72 111 10 -8 13 -26 10 -59 -4 -46 -3 -45 60 73
118 222 185 335 198 335 5 0 7 -10 4 -22 -10 -43 -65 -321 -65 -330 0 -4 15
-8 33 -8 31 0 184 23 240 36 27 6 27 6 27 -47 1 -77 23 -170 53 -222 49 -82
154 -157 204 -144 13 3 9 8 -16 17 -28 11 -31 14 -17 22 11 6 33 4 65 -7 37
-12 58 -14 83 -6 l33 9 -40 2 -40 2 50 13 c70 17 115 42 115 64 0 25 53 118
58 102 4 -11 -13 -125 -25 -166 -11 -41 16 2 90 143 67 127 143 300 135 308
-7 6 -260 25 -272 21 -7 -3 -25 -26 -41 -52 -30 -52 -25 -64 25 -66 14 0 19
-3 13 -6 -7 -2 -13 -10 -14 -16 0 -7 -21 -43 -47 -82 -67 -99 -106 -109 -156
-41 -33 44 -27 121 19 236 76 193 209 461 247 500 51 52 150 60 187 16 22 -26
26 -137 7 -174 -21 -40 -8 -41 33 -3 18 17 31 23 31 16 0 -8 -4 -17 -10 -20
-5 -3 -10 -15 -10 -27 0 -32 68 55 76 98 7 40 10 41 42 12 l25 -23 -6 95 c-6
120 -10 130 -52 130 -20 0 -54 13 -86 32 -49 31 -56 32 -153 33 -94 0 -105 -2
-155 -30 -79 -44 -182 -144 -228 -222 -43 -73 -57 -102 -123 -258 -47 -111
-82 -165 -109 -165 -9 0 -21 -4 -27 -9 -13 -13 -146 -53 -152 -46 -8 8 24 92
121 315 47 107 81 196 77 198 -5 2 -20 -4 -35 -14 -14 -9 -28 -15 -31 -12 -2
3 16 59 41 124 25 65 45 122 45 127 0 4 41 91 90 194 50 102 90 190 90 194 0
4 -26 -6 -58 -22 -34 -16 -91 -34 -136 -41 -43 -6 -79 -17 -81 -22 -1 -6 -13
-78 -25 -161 -27 -181 -80 -396 -116 -468 -15 -28 -50 -89 -78 -135 -107 -173
-186 -307 -186 -314 0 -4 -7 -8 -16 -8 -11 0 -15 6 -11 18 31 110 50 197 68
306 15 92 28 143 45 173 20 34 21 41 8 36 -13 -5 -15 -2 -8 18 27 82 170 565
168 567 -1 2 -19 -4 -39 -12 -47 -20 -71 -20 -79 0 -6 14 8 23 79 48 31 11 -1
26 -57 26 -27 0 -48 2 -48 5 0 3 14 32 30 65 17 33 30 62 30 65 0 3 -26 -13
-59 -35 -32 -22 -64 -40 -71 -40 -7 0 -43 27 -81 61 -38 34 -69 57 -69 51z
m155 -259 c-4 -16 -15 -68 -25 -117 -18 -82 -30 -118 -30 -85 0 29 -52 125
-87 161 -20 21 -35 40 -32 42 5 5 117 23 158 25 20 1 22 -2 16 -26z m45 -13
c0 -5 -4 -10 -10 -10 -5 0 -10 5 -10 10 0 6 5 10 10 10 6 0 10 -4 10 -10z
m-414 -65 c22 -6 66 -28 98 -49 106 -68 128 -187 47 -260 -22 -20 -41 -15 -24
6 34 44 13 39 -37 -9 -33 -31 -72 -64 -87 -75 -57 -37 -45 -16 30 53 43 39 83
81 89 93 6 11 -16 -4 -49 -34 -71 -65 -126 -101 -116 -75 4 13 -8 10 -54 -14
-71 -35 -183 -67 -206 -58 -15 5 -17 24 -16 134 0 127 10 268 19 277 3 2 37
11 75 19 74 16 159 13 231 -8z m247 -504 l-17 -133 -105 -96 c-58 -53 -156
-146 -216 -207 -134 -134 -235 -222 -235 -204 0 8 11 43 25 79 34 90 75 250
65 250 -5 0 -32 -9 -60 -20 l-52 -20 6 27 c4 16 13 66 21 112 8 46 16 85 17
86 2 1 51 14 110 29 181 45 343 123 418 201 18 19 35 33 37 32 1 -2 -5 -63
-14 -136z"/>
<path d="M3335 5138 c-396 -98 -630 -180 -824 -287 -475 -265 -701 -401 -701
-424 0 -5 21 4 48 19 26 15 85 47 132 72 47 24 105 57 130 71 109 65 467 227
478 216 3 -2 -4 -8 -14 -12 -10 -3 -41 -23 -69 -44 -27 -20 -77 -50 -110 -67
-80 -39 -222 -122 -210 -122 5 0 80 33 165 74 86 41 194 91 240 111 47 20 117
50 155 67 201 86 151 42 -65 -58 -140 -65 -300 -153 -278 -154 5 0 113 48 214
96 19 9 36 15 37 13 2 -2 10 -47 19 -99 9 -52 33 -178 52 -279 37 -188 40
-226 15 -180 -40 75 -56 100 -106 166 -120 160 -210 213 -361 213 -190 0 -391
-93 -524 -241 -61 -68 -79 -80 -205 -144 -115 -58 -151 -82 -216 -144 -101
-96 -161 -177 -222 -299 -27 -53 -59 -111 -72 -129 -13 -18 -20 -39 -17 -47 4
-11 -22 -49 -78 -113 -170 -198 -242 -304 -303 -448 -20 -49 -50 -117 -66
-150 -35 -75 -66 -157 -79 -212 -13 -51 -30 -65 -30 -25 0 30 35 172 49 200 5
9 30 64 56 122 78 174 137 266 290 450 38 46 59 77 46 68 -34 -24 -135 -149
-196 -243 -78 -120 -119 -146 -50 -32 41 68 33 77 -9 10 -34 -54 -47 -43 -18
14 34 65 213 287 359 446 54 58 113 137 113 151 0 2 -119 -115 -265 -261 -146
-146 -268 -263 -272 -260 -14 14 138 225 256 356 142 157 147 166 34 68 -147
-128 -277 -274 -360 -404 -38 -58 -97 -149 -132 -202 -35 -53 -66 -103 -68
-111 -3 -8 -18 -44 -34 -80 -87 -201 -104 -243 -130 -322 -58 -174 -73 -370
-44 -561 16 -110 26 -146 79 -292 43 -117 63 -162 76 -170 16 -10 11 31 -5 45
-8 7 -15 22 -15 34 1 17 9 12 45 -29 25 -27 45 -45 45 -39 0 6 -7 17 -15 24
-8 7 -15 18 -15 24 1 6 19 -9 41 -33 21 -24 42 -42 44 -39 3 3 -4 13 -15 23
-11 10 -20 25 -20 33 0 12 5 11 22 -5 51 -46 144 -50 343 -12 65 13 271 100
545 231 118 56 242 99 432 149 121 32 290 32 373 -1 181 -70 310 -226 387
-464 50 -158 55 -366 13 -581 -16 -82 -78 -299 -97 -341 -13 -28 8 -88 28 -80
9 4 9 -6 -3 -40 -15 -45 -12 -74 7 -74 6 0 33 35 60 77 76 120 122 185 127
179 5 -5 -48 -97 -107 -186 -36 -53 -47 -79 -69 -166 -14 -55 -14 -59 6 -43
26 22 154 186 210 269 142 212 212 380 258 621 79 407 72 523 -45 761 -109
220 -285 363 -522 424 -133 34 -312 29 -558 -16 -71 -13 -350 -107 -460 -155
-125 -54 -458 -165 -497 -165 -57 0 -139 65 -179 142 -23 44 -21 186 4 273 35
123 78 221 155 357 42 73 79 142 83 153 5 11 26 51 47 88 41 72 42 103 1 52
-24 -30 -162 -230 -197 -286 -20 -30 -37 -38 -37 -16 0 7 6 21 13 32 8 11 42
74 76 140 48 91 182 308 218 355 8 9 23 -26 34 -79 52 -248 260 -477 490 -541
65 -17 85 -19 154 -10 111 14 186 36 294 87 130 60 256 155 288 218 l16 30
-24 -21 c-39 -35 -90 -57 -102 -45 -7 7 -3 13 14 19 23 9 93 79 172 172 l39
45 -27 -49 c-16 -29 -22 -47 -14 -44 12 4 239 331 239 344 0 3 -15 2 -32 -2
-32 -6 -32 -6 17 33 72 57 184 181 224 247 46 77 62 129 62 203 0 35 4 63 9
63 4 0 15 -19 23 -42 16 -48 20 -44 37 46 7 32 15 54 19 50 12 -14 49 -140 66
-226 19 -99 19 -137 0 -145 -13 -5 -13 -8 5 -20 25 -18 28 -97 5 -131 -14 -20
-14 -21 0 -16 10 4 15 0 16 -12 0 -11 6 -5 13 15 13 36 49 71 73 71 7 0 25
-12 39 -27 23 -26 25 -26 19 -5 -5 19 -3 22 21 22 22 0 25 2 14 15 -7 8 -18
15 -26 15 -22 0 -26 18 -9 49 21 43 20 44 -26 20 -31 -16 -47 -18 -63 -11 -20
9 -21 14 -14 133 8 149 -10 314 -54 498 -36 152 -43 167 -57 126 -19 -51 -44
-105 -47 -102 -11 11 -44 222 -54 342 -17 197 -19 191 63 225 84 36 279 85
302 76 13 -5 15 -13 10 -34 -6 -26 -25 -414 -20 -420 7 -8 33 14 57 48 15 22
32 40 37 40 5 0 12 -46 15 -102 4 -57 16 -175 26 -263 11 -88 22 -204 26 -257
4 -54 10 -98 14 -98 13 0 30 89 40 215 22 261 53 447 120 732 6 23 10 44 10
47 0 15 -27 1 -107 -54 -49 -33 -90 -55 -91 -50 -2 6 9 64 24 131 24 106 31
122 53 133 32 16 292 79 421 102 95 17 146 33 105 34 -11 0 -69 -5 -130 -10
-247 -23 -359 -41 -520 -85 -49 -13 -144 -38 -210 -54 -66 -17 -160 -41 -210
-55 -49 -13 -92 -23 -93 -21 -11 11 32 24 700 210 86 24 180 47 210 51 29 4
62 11 73 15 35 15 -146 -2 -240 -23 -298 -65 -413 -88 -435 -87 -14 0 63 29
170 65 107 36 199 70 205 75 5 5 7 8 5 8 -3 -1 -59 -15 -125 -31z m-816 -739
c18 -11 31 -22 28 -25 -5 -6 -87 33 -87 41 0 11 27 4 59 -16z m-57 -57 c82
-64 111 -103 168 -237 24 -56 36 -177 26 -248 -10 -67 -71 -139 -149 -176
-204 -97 -545 -45 -640 97 -58 88 -71 187 -38 284 28 80 58 124 150 211 81 77
135 109 70 41 -38 -41 -39 -41 54 4 58 28 78 33 142 33 92 0 144 -21 203 -82
119 -123 164 -308 104 -425 -20 -40 -93 -114 -112 -114 -6 0 -10 -4 -10 -9 0
-5 19 -2 42 7 94 37 155 147 144 260 -15 151 -103 301 -226 384 -19 13 -21 17
-8 17 9 1 45 -21 80 -47z m-541 -60 c-38 -30 -76 -48 -66 -31 9 13 77 58 90
58 6 1 -5 -12 -24 -27z m-270 -118 c-18 -8 -36 -13 -39 -10 -6 7 37 25 58 25
8 -1 0 -7 -19 -15z m129 -3 c0 -5 -24 -16 -52 -26 -83 -26 -205 -88 -306 -155
-52 -34 -96 -60 -98 -57 -12 11 168 143 256 188 86 43 200 72 200 50z m-128
-218 c9 -168 69 -284 216 -409 141 -120 347 -197 447 -167 49 15 45 3 -23 -87
-76 -98 -172 -177 -288 -237 l-96 -48 -122 0 c-131 0 -168 9 -273 68 -99 55
-170 161 -207 308 -21 87 -20 164 5 284 33 161 81 242 188 315 57 38 115 68
137 69 7 1 13 -34 16 -96z m-491 -439 c-17 -92 -14 -224 8 -292 23 -75 97
-188 159 -243 26 -22 86 -61 135 -85 48 -24 87 -46 87 -48 0 -12 -109 27 -168
59 -115 63 -177 140 -227 282 -37 107 -37 264 1 382 11 35 14 -3 5 -55z m-168
-210 c-92 -123 -139 -191 -215 -314 -75 -122 -94 -147 -103 -138 -15 15 252
415 338 505 52 55 42 29 -20 -53z m1396 -10 c-42 -77 -182 -235 -195 -221 -4
3 28 45 70 92 43 48 91 109 108 137 36 58 50 51 17 -8z m-1862 -427 c-115
-268 -149 -449 -112 -587 19 -71 18 -73 -7 -25 -27 50 -36 191 -19 274 22 100
161 457 169 433 2 -7 -12 -49 -31 -95z m113 -937 c65 -52 70 -65 10 -29 -41
25 -80 59 -80 71 0 13 4 10 70 -42z m1931 -946 l-9 -39 -1 50 c-1 33 2 46 9
39 7 -7 7 -24 1 -50z m199 20 c0 -24 -52 -154 -62 -154 -4 0 -8 -5 -8 -11 0
-18 -43 -84 -47 -72 -2 6 9 38 25 70 16 32 40 86 52 121 22 59 40 80 40 46z
m-209 -111 c-10 -17 -10 -16 -11 3 0 23 13 41 18 25 2 -6 -1 -18 -7 -28z m-31
-129 c-12 -36 -24 -64 -25 -62 -2 2 6 41 18 87 12 46 23 74 25 62 2 -12 -6
-51 -18 -87z m88 -85 c-15 -31 -23 -39 -26 -27 -3 17 36 84 44 75 2 -2 -6 -23
-18 -48z"/>
<path d="M6875 4373 c-60 -7 -210 -44 -225 -54 -16 -11 37 -8 108 7 17 4 32 2
32 -2 0 -5 -37 -18 -82 -28 -46 -10 -101 -25 -123 -32 -38 -13 -37 -13 43 -8
50 3 82 2 82 -4 0 -6 -40 -75 -88 -154 -49 -78 -142 -233 -209 -343 -66 -110
-144 -238 -172 -284 -28 -46 -51 -89 -51 -94 0 -5 12 -1 28 9 91 61 212 137
243 154 31 16 50 44 124 180 48 89 89 159 92 157 2 -3 0 -76 -6 -164 -6 -87
-13 -237 -16 -333 -6 -171 -6 -174 13 -157 10 9 21 17 25 17 4 0 8 -75 9 -167
l3 -168 39 100 c21 55 70 178 108 274 37 96 66 176 63 180 -4 3 -20 -2 -37
-12 -17 -10 -33 -15 -36 -12 -3 2 2 49 11 102 9 54 19 123 22 154 l6 56 101
48 c103 50 216 132 279 202 36 40 59 106 59 172 0 49 -46 124 -95 153 -72 44
-230 67 -350 51z m158 -143 c32 -36 34 -58 7 -111 -38 -73 -186 -147 -277
-137 l-32 3 72 130 c40 72 76 136 81 144 6 10 23 12 65 7 45 -5 61 -12 84 -36z"/>
<path d="M7639 4209 c-97 -50 -223 -167 -307 -285 -83 -117 -262 -395 -262
-407 0 -5 -8 -21 -18 -35 -19 -27 -84 -170 -96 -208 -6 -20 -4 -21 44 -16 27
2 50 2 50 0 0 -3 -13 -36 -28 -74 -20 -47 -32 -103 -41 -179 -7 -60 -15 -126
-17 -145 -4 -26 9 -7 51 75 73 140 147 273 198 353 22 34 38 65 35 67 -2 2
-21 -1 -41 -7 -20 -6 -40 -8 -44 -5 -14 15 36 97 116 192 80 95 125 144 300
330 150 158 150 165 3 37 -79 -69 -102 -83 -102 -63 0 16 82 115 153 184 39
37 67 67 63 67 -4 0 -38 -18 -77 -40 -75 -42 -89 -47 -89 -29 0 11 176 199
193 207 4 2 7 8 7 13 0 14 -9 11 -91 -32z"/>
<path d="M8110 3838 c-157 -68 -230 -113 -380 -236 -58 -48 -219 -210 -248
-250 -27 -37 -42 -34 -42 8 0 25 57 206 85 274 6 14 5 17 -3 12 -22 -13 -71
-125 -97 -223 -59 -214 -106 -348 -180 -508 -53 -114 -110 -288 -135 -411 -12
-58 -20 -108 -17 -110 2 -3 14 19 26 48 30 74 176 314 226 373 48 58 145 192
229 318 102 153 221 264 139 129 -31 -49 -55 -100 -118 -242 -20 -47 -48 -110
-62 -140 -60 -132 -108 -303 -126 -450 -1 -10 7 -15 27 -15 16 0 31 -6 33 -12
8 -22 29 -14 119 45 100 66 229 168 347 275 85 77 208 169 215 162 3 -2 -13
-33 -35 -67 -172 -269 -254 -442 -289 -603 -21 -97 -29 -339 -16 -460 10 -89
44 -210 91 -327 15 -40 20 -35 10 10 -40 174 -66 386 -49 412 7 11 10 5 10
-22 0 -20 6 -67 14 -105 8 -37 17 -85 20 -106 12 -66 23 -31 30 95 7 130 26
232 46 251 10 10 11 -10 6 -88 -7 -111 2 -111 27 0 9 39 22 88 30 110 8 22 31
103 52 180 33 124 48 159 126 301 48 89 120 215 160 280 40 66 118 207 174
314 56 107 123 228 149 269 26 40 79 133 118 205 38 72 74 135 79 141 5 5 9
14 9 21 0 30 -303 -166 -420 -273 -167 -151 -637 -548 -780 -659 -74 -58 -180
-124 -197 -124 -9 0 -9 8 -1 32 16 45 255 513 351 688 44 80 100 183 125 230
25 47 72 124 104 173 32 48 55 87 51 86 -5 0 -19 -5 -33 -11z"/>
<path d="M6157 3614 c-3 -4 -32 -10 -64 -14 l-58 -7 56 -2 c35 -1 62 4 75 14
10 8 14 15 8 15 -6 0 -13 -3 -17 -6z"/>
<path d="M4521 3438 c-70 -6 -98 -13 -107 -26 -9 -11 -13 -50 -14 -112 0 -52
-3 -126 -7 -165 -6 -65 -5 -69 10 -56 15 12 17 11 17 -4 0 -13 5 -16 23 -11
12 3 51 13 87 22 36 9 75 20 87 26 11 6 26 7 32 4 6 -4 11 -3 11 3 0 5 15 11
33 13 17 2 -20 7 -82 11 -63 4 -116 9 -117 10 -1 1 -4 20 -6 42 l-3 40 53 -2
c28 -1 52 2 52 7 0 6 17 10 38 10 52 0 73 15 32 24 -18 3 -49 6 -70 6 -21 0
-52 3 -69 6 -27 6 -31 11 -31 40 l0 33 75 12 c41 7 75 16 75 20 0 3 28 10 63
14 l62 8 -57 10 c-32 5 -58 13 -58 18 0 5 -8 8 -17 8 -10 -1 -60 -6 -112 -11z"/>
<path d="M4265 3350 c-19 -38 -35 -77 -35 -87 -1 -16 -77 -79 -86 -71 -2 3 -8
38 -14 79 -5 41 -13 87 -16 103 -6 29 -7 29 -23 9 -17 -21 -125 -64 -178 -70
-18 -2 -85 -24 -150 -48 -65 -25 -123 -45 -130 -45 -6 0 -15 -5 -19 -11 -5 -8
21 -10 92 -8 l99 4 7 -59 c5 -39 4 -64 -3 -73 -9 -10 -2 -13 41 -13 l52 0 -2
43 c-1 23 -1 65 -1 92 l1 50 82 45 c46 25 85 46 88 48 3 1 6 -48 6 -110 1 -93
4 -121 22 -161 29 -65 48 -58 44 15 l-4 56 61 31 c34 17 64 31 68 31 3 0 3
-16 0 -35 -3 -19 -1 -51 5 -72 l10 -38 18 70 c10 39 21 106 25 150 l8 80 -22
-25 -22 -25 6 35 c4 19 9 45 12 58 9 41 -6 23 -42 -48z"/>
<path d="M5110 3287 c0 -8 -3 -36 -7 -62 -6 -45 -5 -47 15 -40 20 6 22 3 23
-37 0 -24 4 -63 7 -88 l7 -45 40 52 c22 28 44 52 48 52 7 1 31 -48 59 -119 9
-23 10 -23 46 33 20 31 40 57 45 57 4 0 7 -14 7 -30 0 -38 20 -77 57 -111 47
-45 92 -61 178 -66 77 -5 82 -4 113 22 45 38 62 75 62 137 0 61 -28 119 -73
152 -47 34 -177 35 -261 0 -16 -6 -15 -1 8 29 16 20 25 37 22 37 -4 0 -41 -27
-83 -60 -41 -33 -81 -60 -86 -60 -6 0 -31 19 -54 42 l-43 42 -29 -34 c-16 -19
-31 -33 -33 -30 -3 3 -15 33 -28 68 -22 61 -40 87 -40 59z m570 -122 c61 -32
80 -107 38 -152 -12 -13 -17 -23 -10 -23 6 0 20 12 32 27 17 22 21 36 16 68
-5 32 -4 36 5 21 18 -30 4 -98 -26 -123 -48 -42 -189 -20 -251 38 -87 82 80
204 196 144z"/>
<path d="M3144 3092 c-72 -40 -123 -81 -154 -124 -15 -21 -30 -34 -34 -31 -3
3 -6 27 -7 52 l-1 46 -13 -65 c-7 -36 -21 -108 -30 -161 l-16 -96 -52 -7 c-29
-3 -96 -6 -149 -6 -99 0 -129 -12 -61 -25 20 -3 106 -29 191 -56 84 -28 156
-48 159 -45 3 3 1 60 -3 128 -5 68 -9 131 -9 141 0 15 12 19 85 25 139 10 182
6 202 -19 10 -11 18 -25 18 -29 0 -4 -26 -33 -57 -63 -32 -31 -55 -59 -51 -62
12 -12 104 44 146 89 80 86 49 116 -126 125 -147 8 -150 14 -53 112 39 39 71
77 71 85 0 18 4 19 -56 -14z"/>
<path d="M5931 3058 c-133 -160 -161 -198 -177 -245 -31 -92 -6 -85 76 22 41
52 79 95 85 95 27 0 35 -27 35 -112 0 -68 3 -88 14 -88 17 0 26 -31 26 -92 0
-57 17 -64 25 -10 3 20 10 61 16 91 9 45 9 55 -4 62 -9 6 -15 25 -15 55 l-1
46 72 -7 c196 -16 157 109 -56 182 -38 13 -71 23 -73 23 -2 0 -13 -10 -23 -22z
m142 -50 c30 -22 35 -45 11 -55 -16 -6 -124 14 -124 23 0 3 10 18 22 34 24 33
41 33 91 -2z"/>
<path d="M6215 2844 c-44 -40 -57 -57 -47 -63 10 -6 -1 -29 -48 -96 -33 -48
-60 -88 -58 -89 12 -8 285 -170 293 -174 6 -3 -36 40 -93 94 l-102 99 50 85
c27 47 50 95 50 106 0 12 7 38 15 58 8 20 12 36 8 36 -5 -1 -35 -26 -68 -56z"/>
<path d="M3412 2878 c-18 -18 -15 -38 6 -38 26 0 56 25 48 38 -9 15 -39 15
-54 0z"/>
<path d="M6413 2819 c55 -68 55 -65 -7 -207 -31 -71 -56 -134 -56 -140 0 -6
18 -26 40 -44 30 -26 37 -37 28 -46 -8 -8 -8 -13 3 -16 32 -10 189 -27 198
-21 20 12 69 91 79 128 10 35 7 42 -46 133 -51 87 -64 102 -147 163 -115 87
-126 92 -92 50z m159 -212 c26 -35 50 -70 53 -79 4 -9 -5 -33 -22 -57 -24 -34
-33 -40 -64 -41 -26 0 -42 7 -63 29 l-28 29 27 84 c31 93 33 98 43 98 4 -1 28
-29 54 -63z"/>
</g>
</svg>
