<svg xmlns="http://www.w3.org/2000/svg" width="241.27" height="268.77" viewBox="0 0 241.27 268.77">
  <g id="Layer_2" data-name="Layer 2">
    <g id="Content">
      <g>
        <path d="M16.8,198.38c-9.68-8.1-11.07-28.18,12.63-49.61,0,0-16.24,21.21-11.56,36.34,5.59,18,31.4,16.89,57.47,2,0,0-20.73,18.17-40.68,17.47C28.14,204.34,21.51,202.31,16.8,198.38Z" fill="#659d45"/>
        <path d="M11.45,151.24S-1.53,137,8.62,118c10-18.75,44.41-26.24,62.87-14.2,0,0-13.53-13.62-37.42-10S0,117.37,0,128.53C0,138.8,5.43,148.38,11.45,151.24Z" fill="#659d45"/>
        <path d="M72.73,14.8C77.78,8.26,84.5,3,91.76,1c10.08-2.79,24.76,0,30.39,16,0,0-8.1-12.06-24.69-9.28-15.3,2.57-27.94,18.17-31.69,40.79-4,23.86,6.32,47,10.46,52.82,0,0-20.88-23.45-16-56C61.92,34,66.41,23,72.73,14.8Z" fill="#659d45"/>
        <path d="M126.59,43.21s23.6-17.67,39.9-9.08,10.56,35.74,2.66,44.24a44.93,44.93,0,0,0,14.12-32C183.47,26.13,153.06,14.08,126.59,43.21Z" fill="#659d45"/>
        <path d="M184.13,69.6a45.25,45.25,0,0,0-14.66,8.49s27-10.45,37.7,5.9c8.89,13.63,6.52,36.24-6.62,53.43,0,0,19.36-16.69,17.58-46.12C216.8,69.32,199.73,64.17,184.13,69.6Z" fill="#659d45"/>
        <path d="M232.62,177.87c12.52-15.49,15.14-35.17-17.6-40.45,0,0,26.66,6.46,15.41,27.94S175.92,215.28,128.67,211c0,0,30.21,7.35,65.61-6.4C208.91,198.91,223.81,188.77,232.62,177.87Z" fill="#659d45"/>
        <g>
          <path d="M74,194c3.54-1.08,5.34-5.45,4-9.76s-5.25-6.92-8.79-5.84-5.34,5.45-4,9.76S70.42,195,74,194Z" fill="#e4a727"/>
          <path d="M54.83,268.3h45.1c-8.2-8.2-15.26-24.14-14.8-49.32s8.14-51.84,8.14-51.84c-9,14.5-15.81,39.58-15.81,39.58-9.52-11.44-32.33-16.47-32.33-16.47C67.05,203,73.79,220.9,72.1,239,70.11,260.45,54.83,268.3,54.83,268.3Z" fill="#e4a727"/>
        </g>
        <g>
          <path d="M150,194.42c3.54,1.08,7.47-1.54,8.79-5.84s-.49-8.68-4-9.76-7.47,1.54-8.78,5.84S146.43,193.34,150,194.42Z" fill="#941e22"/>
          <path d="M151.82,239.5c-1.69-18.13,5.06-36,27-48.78,0,0-22.81,5-32.33,16.47,0,0-7-26-16-40.52,0,0,7.83,27.61,8.29,52.78s-6.6,41.12-14.81,49.32H169.1S153.81,260.92,151.82,239.5Z" fill="#941e22"/>
        </g>
        <g>
          <path d="M112.14,171c4.59-1.08,7.27-6.39,6-11.86s-6.06-9-10.65-7.93-7.27,6.39-6,11.86S107.55,172.1,112.14,171Z" fill="#4a266c"/>
          <path d="M87.34,268.3h56.29c-10.67-10.66-17.48-31.4-16.89-64.13s11-66.46,11-66.46c-11.65,18.86-21,50.51-21,50.51-7.7-12.14-41.43-22.86-41.43-22.86,28.89,17.92,36.89,41.33,34.47,64.88S87.34,268.3,87.34,268.3Z" fill="#4a266c"/>
        </g>
      </g>
    </g>
  </g>
</svg>
